<?xml version="1.0" encoding="UTF-8" standalone="no"?>
<!DOCTYPE svg PUBLIC "-//W3C//DTD SVG 1.1//EN"
 "http://www.w3.org/Graphics/SVG/1.1/DTD/svg11.dtd">
<!-- Generated by graphviz version 14.0.2 (20251019.1705)
 -->
<!-- Title: src/Hospede.cpp Pages: 1 -->
<svg width="340pt" height="140pt"
 viewBox="0.00 0.00 340.00 140.00" xmlns="http://www.w3.org/2000/svg" xmlns:xlink="http://www.w3.org/1999/xlink">

<svg id="main" version="1.1" xmlns="http://www.w3.org/2000/svg" xmlns:xlink="http://www.w3.org/1999/xlink" xml:space="preserve">

<style type="text/css"><![CDATA[
.node, .edge {opacity: 0.7;}
.node.selected, .edge.selected {opacity: 1;}
.edge:hover path { stroke: red; }
.edge:hover polygon { stroke: red; fill: red; }
]]></style>
<script type="application/ecmascript" xlink:href="svg.min.js"/>
<svg id="graph" class="graph">
<g id="graph0" class="graph" transform="scale(1 1) rotate(0) translate(4 136)">
<title>src/Hospede.cpp</title>
<!-- Node1 -->
<g id="Node000001" class="node">
<title>Node1</title>
<g id="a_Node000001"><a xlink:title=" ">
<polygon fill="#999999" stroke="#666666" points="210.88,-132 120.62,-132 120.62,-112 210.88,-112 210.88,-132"/>
<text xml:space="preserve" text-anchor="middle" x="165.75" y="-118.5" font-family="Helvetica,sans-Serif" font-size="10.00">src/Hospede.cpp</text>
</a>
</g>
</g>
<!-- Node2 -->
<g id="Node000002" class="node">
<title>Node2</title>
<g id="a_Node000002"><a xlink:href="_hospede_8h.html" target="_top" xlink:title=" ">
<polygon fill="white" stroke="#666666" points="118.38,-76 55.12,-76 55.12,-56 118.38,-56 118.38,-76"/>
<text xml:space="preserve" text-anchor="middle" x="86.75" y="-62.5" font-family="Helvetica,sans-Serif" font-size="10.00">Hospede.h</text>
</a>
</g>
</g>
<!-- Node1&#45;&gt;Node2 -->
<g id="edge1_Node000001_Node000002" class="edge">
<title>Node1&#45;&gt;Node2</title>
<g id="a_edge1_Node000001_Node000002"><a xlink:title=" ">
<path fill="none" stroke="#63b8ff" d="M151.99,-111.59C140.39,-103.67 123.55,-92.16 109.89,-82.82"/>
<polygon fill="#63b8ff" stroke="#63b8ff" points="112.1,-80.09 101.87,-77.33 108.15,-85.87 112.1,-80.09"/>
</a>
</g>
</g>
<!-- Node3 -->
<g id="Node000003" class="node">
<title>Node3</title>
<g id="a_Node000003"><a xlink:title=" ">
<polygon fill="#e0e0e0" stroke="#999999" points="53.5,-20 0,-20 0,0 53.5,0 53.5,-20"/>
<text xml:space="preserve" text-anchor="middle" x="26.75" y="-6.5" font-family="Helvetica,sans-Serif" font-size="10.00">iostream</text>
</a>
</g>
</g>
<!-- Node1&#45;&gt;Node3 -->
<g id="edge4_Node000001_Node000003" class="edge">
<title>Node1&#45;&gt;Node3</title>
<g id="a_edge4_Node000001_Node000003"><a xlink:title=" ">
<path fill="none" stroke="#63b8ff" d="M120.28,-114.15C95.13,-108.12 65.13,-96.87 45.75,-76 34.49,-63.87 29.87,-45.43 27.99,-31.28"/>
<polygon fill="#63b8ff" stroke="#63b8ff" points="31.51,-31.36 27.09,-21.73 24.54,-32.01 31.51,-31.36"/>
</a>
</g>
</g>
<!-- Node5 -->
<g id="Node000005" class="node">
<title>Node5</title>
<g id="a_Node000005"><a xlink:title=" ">
<polygon fill="#e0e0e0" stroke="#999999" points="195.12,-76 136.38,-76 136.38,-56 195.12,-56 195.12,-76"/>
<text xml:space="preserve" text-anchor="middle" x="165.75" y="-62.5" font-family="Helvetica,sans-Serif" font-size="10.00">stdexcept</text>
</a>
</g>
</g>
<!-- Node1&#45;&gt;Node5 -->
<g id="edge5_Node000001_Node000005" class="edge">
<title>Node1&#45;&gt;Node5</title>
<g id="a_edge5_Node000001_Node000005"><a xlink:title=" ">
<path fill="none" stroke="#63b8ff" d="M165.75,-111.59C165.75,-105.01 165.75,-95.96 165.75,-87.73"/>
<polygon fill="#63b8ff" stroke="#63b8ff" points="169.25,-87.81 165.75,-77.81 162.25,-87.81 169.25,-87.81"/>
</a>
</g>
</g>
<!-- Node6 -->
<g id="Node000006" class="node">
<title>Node6</title>
<g id="a_Node000006"><a xlink:title=" ">
<polygon fill="#e0e0e0" stroke="#999999" points="268.62,-76 212.88,-76 212.88,-56 268.62,-56 268.62,-76"/>
<text xml:space="preserve" text-anchor="middle" x="240.75" y="-62.5" font-family="Helvetica,sans-Serif" font-size="10.00">algorithm</text>
</a>
</g>
</g>
<!-- Node1&#45;&gt;Node6 -->
<g id="edge6_Node000001_Node000006" class="edge">
<title>Node1&#45;&gt;Node6</title>
<g id="a_edge6_Node000001_Node000006"><a xlink:title=" ">
<path fill="none" stroke="#63b8ff" d="M178.81,-111.59C189.72,-103.74 205.5,-92.38 218.41,-83.09"/>
<polygon fill="#63b8ff" stroke="#63b8ff" points="220.29,-86.05 226.36,-77.36 216.2,-80.37 220.29,-86.05"/>
</a>
</g>
</g>
<!-- Node7 -->
<g id="Node000007" class="node">
<title>Node7</title>
<g id="a_Node000007"><a xlink:title=" ">
<polygon fill="#e0e0e0" stroke="#999999" points="332.38,-76 287.12,-76 287.12,-56 332.38,-56 332.38,-76"/>
<text xml:space="preserve" text-anchor="middle" x="309.75" y="-62.5" font-family="Helvetica,sans-Serif" font-size="10.00">cctype</text>
</a>
</g>
</g>
<!-- Node1&#45;&gt;Node7 -->
<g id="edge7_Node000001_Node000007" class="edge">
<title>Node1&#45;&gt;Node7</title>
<g id="a_edge7_Node000001_Node000007"><a xlink:title=" ">
<path fill="none" stroke="#63b8ff" d="M190.83,-111.59C214.52,-102.71 250.22,-89.32 276.32,-79.54"/>
<polygon fill="#63b8ff" stroke="#63b8ff" points="277.3,-82.91 285.44,-76.12 274.84,-76.35 277.3,-82.91"/>
</a>
</g>
</g>
<!-- Node2&#45;&gt;Node3 -->
<g id="edge2_Node000002_Node000003" class="edge">
<title>Node2&#45;&gt;Node3</title>
<g id="a_edge2_Node000002_Node000003"><a xlink:title=" ">
<path fill="none" stroke="#63b8ff" d="M76.3,-55.59C67.78,-47.93 55.54,-36.91 45.36,-27.75"/>
<polygon fill="#63b8ff" stroke="#63b8ff" points="47.98,-25.4 38.21,-21.31 43.3,-30.6 47.98,-25.4"/>
</a>
</g>
</g>
<!-- Node4 -->
<g id="Node000004" class="node">
<title>Node4</title>
<g id="a_Node000004"><a xlink:title=" ">
<polygon fill="#e0e0e0" stroke="#999999" points="111.75,-20 71.75,-20 71.75,0 111.75,0 111.75,-20"/>
<text xml:space="preserve" text-anchor="middle" x="91.75" y="-6.5" font-family="Helvetica,sans-Serif" font-size="10.00">string</text>
</a>
</g>
</g>
<!-- Node2&#45;&gt;Node4 -->
<g id="edge3_Node000002_Node000004" class="edge">
<title>Node2&#45;&gt;Node4</title>
<g id="a_edge3_Node000002_Node000004"><a xlink:title=" ">
<path fill="none" stroke="#63b8ff" d="M87.62,-55.59C88.23,-49.01 89.07,-39.96 89.83,-31.73"/>
<polygon fill="#63b8ff" stroke="#63b8ff" points="93.31,-32.09 90.75,-21.81 86.34,-31.44 93.31,-32.09"/>
</a>
</g>
</g>
</g>
</svg>
</svg>

<style type='text/css'>
<![CDATA[
[data-mouse-over-selected='false'] { opacity: 0.7; }
[data-mouse-over-selected='true']  { opacity: 1.0; }
]]>
</style>
<script type="application/ecmascript"><![CDATA[
document.addEventListener('DOMContentLoaded', (event) => {
  highlightEdges();
  highlightAdjacentNodes();
});
]]></script>
</svg>
