<?xml version="1.0" encoding="UTF-8" standalone="no"?>
<!DOCTYPE svg PUBLIC "-//W3C//DTD SVG 1.1//EN"
 "http://www.w3.org/Graphics/SVG/1.1/DTD/svg11.dtd">
<!-- Generated by graphviz version 14.0.2 (20251019.1705)
 -->
<!-- Title: Quartos::QNumero Pages: 1 -->
<svg width="372pt" height="116pt"
 viewBox="0.00 0.00 372.00 116.00" xmlns="http://www.w3.org/2000/svg" xmlns:xlink="http://www.w3.org/1999/xlink">
<g id="graph0" class="graph" transform="scale(1 1) rotate(0) translate(4 112)">
<title>Quartos::QNumero</title>
<!-- Node1 -->
<g id="Node000001" class="node">
<title>Node1</title>
<g id="a_Node000001"><a xlink:title="Retorna o número identificador do quarto.">
<polygon fill="#999999" stroke="#666666" points="363.75,-70 265.25,-70 265.25,-50 363.75,-50 363.75,-70"/>
<text xml:space="preserve" text-anchor="middle" x="314.5" y="-56.5" font-family="Helvetica,sans-Serif" font-size="10.00">Quartos::QNumero</text>
</a>
</g>
</g>
<!-- Node2 -->
<g id="Node000002" class="node">
<title>Node2</title>
<g id="a_Node000002"><a xlink:href="class_sistema.html#a0d8dbb4fa2ab6df84be4ed0c4c051aaa" target="_top" xlink:title=" ">
<polygon fill="white" stroke="#666666" points="215,-108 87.25,-108 87.25,-88 215,-88 215,-108"/>
<text xml:space="preserve" text-anchor="middle" x="151.12" y="-94.5" font-family="Helvetica,sans-Serif" font-size="10.00">Sistema::cadastrarQuarto</text>
</a>
</g>
</g>
<!-- Node1&#45;&gt;Node2 -->
<g id="edge1_Node000001_Node000002" class="edge">
<title>Node1&#45;&gt;Node2</title>
<g id="a_edge1_Node000001_Node000002"><a xlink:title=" ">
<path fill="none" stroke="#63b8ff" d="M257.8,-73.12C237.76,-77.83 215.45,-83.09 196.5,-87.55"/>
<polygon fill="#63b8ff" stroke="#63b8ff" points="258.57,-76.53 267.5,-70.83 256.97,-69.72 258.57,-76.53"/>
</a>
</g>
</g>
<!-- Node4 -->
<g id="Node000004" class="node">
<title>Node4</title>
<g id="a_Node000004"><a xlink:href="class_sistema.html#ab5d01c8fea43349d61ff29453a8917e1" target="_top" xlink:title=" ">
<polygon fill="white" stroke="#666666" points="207.88,-70 94.38,-70 94.38,-50 207.88,-50 207.88,-70"/>
<text xml:space="preserve" text-anchor="middle" x="151.12" y="-56.5" font-family="Helvetica,sans-Serif" font-size="10.00">Sistema::criarReserva</text>
</a>
</g>
</g>
<!-- Node1&#45;&gt;Node4 -->
<g id="edge3_Node000001_Node000004" class="edge">
<title>Node1&#45;&gt;Node4</title>
<g id="a_edge3_Node000001_Node000004"><a xlink:title=" ">
<path fill="none" stroke="#63b8ff" d="M253.89,-60C238.93,-60 222.94,-60 208.16,-60"/>
<polygon fill="#63b8ff" stroke="#63b8ff" points="253.57,-63.5 263.57,-60 253.57,-56.5 253.57,-63.5"/>
</a>
</g>
</g>
<!-- Node5 -->
<g id="Node000005" class="node">
<title>Node5</title>
<g id="a_Node000005"><a xlink:href="class_sistema.html#a8f75885af16b3e03ee0e2e459c0c2404" target="_top" xlink:title=" ">
<polygon fill="white" stroke="#666666" points="229.25,-32 73,-32 73,0 229.25,0 229.25,-32"/>
<text xml:space="preserve" text-anchor="start" x="81" y="-18.5" font-family="Helvetica,sans-Serif" font-size="10.00">Sistema::mostrarDadosReserva</text>
<text xml:space="preserve" text-anchor="middle" x="151.12" y="-6.5" font-family="Helvetica,sans-Serif" font-size="10.00">Completa</text>
</a>
</g>
</g>
<!-- Node1&#45;&gt;Node5 -->
<g id="edge5_Node000001_Node000005" class="edge">
<title>Node1&#45;&gt;Node5</title>
<g id="a_edge5_Node000001_Node000005"><a xlink:title=" ">
<path fill="none" stroke="#63b8ff" d="M264.31,-46.59C247.97,-42.13 229.58,-37.12 212.49,-32.46"/>
<polygon fill="#63b8ff" stroke="#63b8ff" points="263.23,-49.92 273.8,-49.17 265.07,-43.17 263.23,-49.92"/>
</a>
</g>
</g>
<!-- Node3 -->
<g id="Node000003" class="node">
<title>Node3</title>
<g id="a_Node000003"><a xlink:href="main_8cpp.html#ae66f6b31b5ad750f1fe042a706a4e3d4" target="_top" xlink:title="Função principal do sistema de hotel.">
<polygon fill="white" stroke="#666666" points="37,-70 0,-70 0,-50 37,-50 37,-70"/>
<text xml:space="preserve" text-anchor="middle" x="18.5" y="-56.5" font-family="Helvetica,sans-Serif" font-size="10.00">main</text>
</a>
</g>
</g>
<!-- Node2&#45;&gt;Node3 -->
<g id="edge2_Node000002_Node000003" class="edge">
<title>Node2&#45;&gt;Node3</title>
<g id="a_edge2_Node000002_Node000003"><a xlink:title=" ">
<path fill="none" stroke="#63b8ff" d="M93.73,-84.8C86.72,-82.95 79.67,-81 73,-79 60.92,-75.38 47.54,-70.63 37.19,-66.78"/>
<polygon fill="#63b8ff" stroke="#63b8ff" points="92.63,-88.13 103.19,-87.22 94.37,-81.35 92.63,-88.13"/>
</a>
</g>
</g>
<!-- Node4&#45;&gt;Node3 -->
<g id="edge4_Node000004_Node000003" class="edge">
<title>Node4&#45;&gt;Node3</title>
<g id="a_edge4_Node000004_Node000003"><a xlink:title=" ">
<path fill="none" stroke="#63b8ff" d="M82.46,-60C65.81,-60 49.36,-60 37.45,-60"/>
<polygon fill="#63b8ff" stroke="#63b8ff" points="82.46,-63.5 92.46,-60 82.46,-56.5 82.46,-63.5"/>
</a>
</g>
</g>
<!-- Node5&#45;&gt;Node3 -->
<g id="edge6_Node000005_Node000003" class="edge">
<title>Node5&#45;&gt;Node3</title>
<g id="a_edge6_Node000005_Node000003"><a xlink:title=" ">
<path fill="none" stroke="#63b8ff" d="M87.71,-36.07C82.73,-37.72 77.78,-39.38 73,-41 61.05,-45.06 47.68,-49.81 37.29,-53.54"/>
<polygon fill="#63b8ff" stroke="#63b8ff" points="88.78,-39.4 97.18,-32.95 86.59,-32.75 88.78,-39.4"/>
</a>
</g>
</g>
</g>
</svg>
