<?xml version="1.0" encoding="UTF-8" standalone="no"?>
<!DOCTYPE svg PUBLIC "-//W3C//DTD SVG 1.1//EN"
 "http://www.w3.org/Graphics/SVG/1.1/DTD/svg11.dtd">
<!-- Generated by graphviz version 14.0.2 (20251019.1705)
 -->
<!-- Title: Sistema::buscarReservaPorNumero Pages: 1 -->
<svg width="412pt" height="90pt"
 viewBox="0.00 0.00 412.00 90.00" xmlns="http://www.w3.org/2000/svg" xmlns:xlink="http://www.w3.org/1999/xlink">
<g id="graph0" class="graph" transform="scale(1 1) rotate(0) translate(4 86)">
<title>Sistema::buscarReservaPorNumero</title>
<!-- Node1 -->
<g id="Node000001" class="node">
<title>Node1</title>
<g id="a_Node000001"><a xlink:title=" ">
<polygon fill="#999999" stroke="#666666" points="404.25,-57 265.25,-57 265.25,-25 404.25,-25 404.25,-57"/>
<text xml:space="preserve" text-anchor="start" x="273.25" y="-43.5" font-family="Helvetica,sans-Serif" font-size="10.00">Sistema::buscarReservaPor</text>
<text xml:space="preserve" text-anchor="middle" x="334.75" y="-31.5" font-family="Helvetica,sans-Serif" font-size="10.00">Numero</text>
</a>
</g>
</g>
<!-- Node2 -->
<g id="Node000002" class="node">
<title>Node2</title>
<g id="a_Node000002"><a xlink:href="class_sistema.html#a8f75885af16b3e03ee0e2e459c0c2404" target="_top" xlink:title=" ">
<polygon fill="white" stroke="#666666" points="229.25,-82 73,-82 73,-50 229.25,-50 229.25,-82"/>
<text xml:space="preserve" text-anchor="start" x="81" y="-68.5" font-family="Helvetica,sans-Serif" font-size="10.00">Sistema::mostrarDadosReserva</text>
<text xml:space="preserve" text-anchor="middle" x="151.12" y="-56.5" font-family="Helvetica,sans-Serif" font-size="10.00">Completa</text>
</a>
</g>
</g>
<!-- Node1&#45;&gt;Node2 -->
<g id="edge1_Node000001_Node000002" class="edge">
<title>Node1&#45;&gt;Node2</title>
<g id="a_edge1_Node000001_Node000002"><a xlink:title=" ">
<path fill="none" stroke="#63b8ff" d="M253.61,-52.03C245.6,-53.13 237.48,-54.25 229.51,-55.35"/>
<polygon fill="#63b8ff" stroke="#63b8ff" points="253.9,-55.52 263.33,-50.69 252.94,-48.59 253.9,-55.52"/>
</a>
</g>
</g>
<!-- Node4 -->
<g id="Node000004" class="node">
<title>Node4</title>
<g id="a_Node000004"><a xlink:href="class_sistema.html#af49ee03765c1fc70add0ca0bd35460ff" target="_top" xlink:title=" ">
<polygon fill="white" stroke="#666666" points="223.62,-32 78.62,-32 78.62,0 223.62,0 223.62,-32"/>
<text xml:space="preserve" text-anchor="start" x="86.62" y="-18.5" font-family="Helvetica,sans-Serif" font-size="10.00">Sistema::mostrarHospedePor</text>
<text xml:space="preserve" text-anchor="middle" x="151.12" y="-6.5" font-family="Helvetica,sans-Serif" font-size="10.00">Reserva</text>
</a>
</g>
</g>
<!-- Node1&#45;&gt;Node4 -->
<g id="edge3_Node000001_Node000004" class="edge">
<title>Node1&#45;&gt;Node4</title>
<g id="a_edge3_Node000001_Node000004"><a xlink:title=" ">
<path fill="none" stroke="#63b8ff" d="M253.43,-29.94C243.64,-28.6 233.68,-27.23 224.02,-25.9"/>
<polygon fill="#63b8ff" stroke="#63b8ff" points="252.94,-33.41 263.33,-31.31 253.9,-26.48 252.94,-33.41"/>
</a>
</g>
</g>
<!-- Node3 -->
<g id="Node000003" class="node">
<title>Node3</title>
<g id="a_Node000003"><a xlink:href="main_8cpp.html#ae66f6b31b5ad750f1fe042a706a4e3d4" target="_top" xlink:title="Função principal do sistema de hotel.">
<polygon fill="white" stroke="#666666" points="37,-76 0,-76 0,-56 37,-56 37,-76"/>
<text xml:space="preserve" text-anchor="middle" x="18.5" y="-62.5" font-family="Helvetica,sans-Serif" font-size="10.00">main</text>
</a>
</g>
</g>
<!-- Node2&#45;&gt;Node3 -->
<g id="edge2_Node000002_Node000003" class="edge">
<title>Node2&#45;&gt;Node3</title>
<g id="a_edge2_Node000002_Node000003"><a xlink:title=" ">
<path fill="none" stroke="#63b8ff" d="M61.13,-66C52.28,-66 44.11,-66 37.39,-66"/>
<polygon fill="#63b8ff" stroke="#63b8ff" points="61.12,-69.5 71.12,-66 61.12,-62.5 61.12,-69.5"/>
</a>
</g>
</g>
</g>
</svg>
