<?xml version="1.0" encoding="UTF-8" standalone="no"?>
<!DOCTYPE svg PUBLIC "-//W3C//DTD SVG 1.1//EN"
 "http://www.w3.org/Graphics/SVG/1.1/DTD/svg11.dtd">
<!-- Generated by graphviz version 14.0.2 (20251019.1705)
 -->
<!-- Title: Sistema::cadastrarHospede Pages: 1 -->
<svg width="327pt" height="142pt"
 viewBox="0.00 0.00 327.00 142.00" xmlns="http://www.w3.org/2000/svg" xmlns:xlink="http://www.w3.org/1999/xlink">

<svg id="main" version="1.1" xmlns="http://www.w3.org/2000/svg" xmlns:xlink="http://www.w3.org/1999/xlink" xml:space="preserve">

<style type="text/css"><![CDATA[
.node, .edge {opacity: 0.7;}
.node.selected, .edge.selected {opacity: 1;}
.edge:hover path { stroke: red; }
.edge:hover polygon { stroke: red; fill: red; }
]]></style>
<script type="application/ecmascript" xlink:href="svg.min.js"/>
<svg id="graph" class="graph">
<g id="graph0" class="graph" transform="scale(1 1) rotate(0) translate(4 138)">
<title>Sistema::cadastrarHospede</title>
<!-- Node1 -->
<g id="Node000001" class="node">
<title>Node1</title>
<g id="a_Node000001"><a xlink:title=" ">
<polygon fill="#999999" stroke="#666666" points="137.5,-77 0,-77 0,-57 137.5,-57 137.5,-77"/>
<text xml:space="preserve" text-anchor="middle" x="68.75" y="-63.5" font-family="Helvetica,sans-Serif" font-size="10.00">Sistema::cadastrarHospede</text>
</a>
</g>
</g>
<!-- Node2 -->
<g id="Node000002" class="node">
<title>Node2</title>
<g id="a_Node000002"><a xlink:href="class_hospede.html#aa214ce430b6b5b37aac6f3b7a56bbc5c" target="_top" xlink:title="Retorna o código identificador do hóspede.">
<polygon fill="white" stroke="#666666" points="295.62,-134 196.38,-134 196.38,-114 295.62,-114 295.62,-134"/>
<text xml:space="preserve" text-anchor="middle" x="246" y="-120.5" font-family="Helvetica,sans-Serif" font-size="10.00">Hospede::HCodigo</text>
</a>
</g>
</g>
<!-- Node1&#45;&gt;Node2 -->
<g id="edge1_Node000001_Node000002" class="edge">
<title>Node1&#45;&gt;Node2</title>
<g id="a_edge1_Node000001_Node000002"><a xlink:title=" ">
<path fill="none" stroke="#63b8ff" d="M95.96,-77.35C116.8,-85.4 146.79,-96.58 173.5,-105 179.62,-106.93 186.08,-108.83 192.5,-110.64"/>
<polygon fill="#63b8ff" stroke="#63b8ff" points="191.2,-113.91 201.77,-113.18 193.05,-107.16 191.2,-113.91"/>
</a>
</g>
</g>
<!-- Node3 -->
<g id="Node000003" class="node">
<title>Node3</title>
<g id="a_Node000003"><a xlink:href="class_sistema.html#a17820cf4c4402f8d205e78c7dc793988" target="_top" xlink:title=" ">
<polygon fill="white" stroke="#666666" points="318.5,-96 173.5,-96 173.5,-76 318.5,-76 318.5,-96"/>
<text xml:space="preserve" text-anchor="middle" x="246" y="-82.5" font-family="Helvetica,sans-Serif" font-size="10.00">Sistema::hospedeCadastrado</text>
</a>
</g>
</g>
<!-- Node1&#45;&gt;Node3 -->
<g id="edge2_Node000001_Node000003" class="edge">
<title>Node1&#45;&gt;Node3</title>
<g id="a_edge2_Node000001_Node000003"><a xlink:title=" ">
<path fill="none" stroke="#63b8ff" d="M137.76,-74.37C145.67,-75.23 153.81,-76.11 161.89,-76.99"/>
<polygon fill="#63b8ff" stroke="#63b8ff" points="161.44,-80.46 171.76,-78.06 162.19,-73.5 161.44,-80.46"/>
</a>
</g>
</g>
<!-- Node4 -->
<g id="Node000004" class="node">
<title>Node4</title>
<g id="a_Node000004"><a xlink:href="class_hospede.html#a41b3ad99025bbcf9a6e7e811d891b79e" target="_top" xlink:title="Retorna o documento de identificação (RG) do hóspede.">
<polygon fill="white" stroke="#666666" points="287.75,-58 204.25,-58 204.25,-38 287.75,-38 287.75,-58"/>
<text xml:space="preserve" text-anchor="middle" x="246" y="-44.5" font-family="Helvetica,sans-Serif" font-size="10.00">Hospede::HRG</text>
</a>
</g>
</g>
<!-- Node1&#45;&gt;Node4 -->
<g id="edge3_Node000001_Node000004" class="edge">
<title>Node1&#45;&gt;Node4</title>
<g id="a_edge3_Node000001_Node000004"><a xlink:title=" ">
<path fill="none" stroke="#63b8ff" d="M137.76,-59.63C156.07,-57.64 175.58,-55.53 192.88,-53.65"/>
<polygon fill="#63b8ff" stroke="#63b8ff" points="192.82,-57.18 202.38,-52.62 192.06,-50.22 192.82,-57.18"/>
</a>
</g>
</g>
<!-- Node5 -->
<g id="Node000005" class="node">
<title>Node5</title>
<g id="a_Node000005"><a xlink:href="class_hospede.html#ae79a0fd4b49489fcde85744d2d7919cb" target="_top" xlink:title="Retorna o número de telefone do hóspede.">
<polygon fill="white" stroke="#666666" points="298.62,-20 193.38,-20 193.38,0 298.62,0 298.62,-20"/>
<text xml:space="preserve" text-anchor="middle" x="246" y="-6.5" font-family="Helvetica,sans-Serif" font-size="10.00">Hospede::HTelefone</text>
</a>
</g>
</g>
<!-- Node1&#45;&gt;Node5 -->
<g id="edge4_Node000001_Node000005" class="edge">
<title>Node1&#45;&gt;Node5</title>
<g id="a_edge4_Node000001_Node000005"><a xlink:title=" ">
<path fill="none" stroke="#63b8ff" d="M95.96,-56.65C116.8,-48.6 146.79,-37.42 173.5,-29 179.62,-27.07 186.08,-25.17 192.5,-23.36"/>
<polygon fill="#63b8ff" stroke="#63b8ff" points="193.05,-26.84 201.77,-20.82 191.2,-20.09 193.05,-26.84"/>
</a>
</g>
</g>
</g>
</svg>
</svg>

<style type='text/css'>
<![CDATA[
[data-mouse-over-selected='false'] { opacity: 0.7; }
[data-mouse-over-selected='true']  { opacity: 1.0; }
]]>
</style>
<script type="application/ecmascript"><![CDATA[
document.addEventListener('DOMContentLoaded', (event) => {
  highlightEdges();
  highlightAdjacentNodes();
});
]]></script>
</svg>
