<?xml version="1.0" encoding="UTF-8" standalone="no"?>
<!DOCTYPE svg PUBLIC "-//W3C//DTD SVG 1.1//EN"
 "http://www.w3.org/Graphics/SVG/1.1/DTD/svg11.dtd">
<!-- Generated by graphviz version 14.0.2 (20251019.1705)
 -->
<!-- Title: Sistema::hospedeCadastrado Pages: 1 -->
<svg width="400pt" height="66pt"
 viewBox="0.00 0.00 400.00 66.00" xmlns="http://www.w3.org/2000/svg" xmlns:xlink="http://www.w3.org/1999/xlink">

<svg id="main" version="1.1" xmlns="http://www.w3.org/2000/svg" xmlns:xlink="http://www.w3.org/1999/xlink" xml:space="preserve">

<style type="text/css"><![CDATA[
.node, .edge {opacity: 0.7;}
.node.selected, .edge.selected {opacity: 1;}
.edge:hover path { stroke: red; }
.edge:hover polygon { stroke: red; fill: red; }
]]></style>
<script type="application/ecmascript" xlink:href="svg.min.js"/>
<svg id="graph" class="graph">
<g id="graph0" class="graph" transform="scale(1 1) rotate(0) translate(4 62)">
<title>Sistema::hospedeCadastrado</title>
<!-- Node1 -->
<g id="Node000001" class="node">
<title>Node1</title>
<g id="a_Node000001"><a xlink:title=" ">
<polygon fill="#999999" stroke="#666666" points="391.5,-39 246.5,-39 246.5,-19 391.5,-19 391.5,-39"/>
<text xml:space="preserve" text-anchor="middle" x="319" y="-25.5" font-family="Helvetica,sans-Serif" font-size="10.00">Sistema::hospedeCadastrado</text>
</a>
</g>
</g>
<!-- Node2 -->
<g id="Node000002" class="node">
<title>Node2</title>
<g id="a_Node000002"><a xlink:href="class_sistema.html#a866bfc58977f5297921b099faae2c835" target="_top" xlink:title=" ">
<polygon fill="white" stroke="#666666" points="210.5,-58 73,-58 73,-38 210.5,-38 210.5,-58"/>
<text xml:space="preserve" text-anchor="middle" x="141.75" y="-44.5" font-family="Helvetica,sans-Serif" font-size="10.00">Sistema::cadastrarHospede</text>
</a>
</g>
</g>
<!-- Node1&#45;&gt;Node2 -->
<g id="edge1_Node000001_Node000002" class="edge">
<title>Node1&#45;&gt;Node2</title>
<g id="a_edge1_Node000001_Node000002"><a xlink:title=" ">
<path fill="none" stroke="#63b8ff" d="M234.86,-38.01C226.78,-38.89 218.66,-39.77 210.75,-40.63"/>
<polygon fill="#63b8ff" stroke="#63b8ff" points="235.14,-41.5 244.71,-36.95 234.39,-34.54 235.14,-41.5"/>
</a>
</g>
</g>
<!-- Node4 -->
<g id="Node000004" class="node">
<title>Node4</title>
<g id="a_Node000004"><a xlink:href="class_sistema.html#ab5d01c8fea43349d61ff29453a8917e1" target="_top" xlink:title=" ">
<polygon fill="white" stroke="#666666" points="198.5,-20 85,-20 85,0 198.5,0 198.5,-20"/>
<text xml:space="preserve" text-anchor="middle" x="141.75" y="-6.5" font-family="Helvetica,sans-Serif" font-size="10.00">Sistema::criarReserva</text>
</a>
</g>
</g>
<!-- Node1&#45;&gt;Node4 -->
<g id="edge3_Node000001_Node000004" class="edge">
<title>Node1&#45;&gt;Node4</title>
<g id="a_edge3_Node000001_Node000004"><a xlink:title=" ">
<path fill="none" stroke="#63b8ff" d="M235.02,-20C222.77,-18.68 210.4,-17.33 198.87,-16.08"/>
<polygon fill="#63b8ff" stroke="#63b8ff" points="234.39,-23.46 244.71,-21.05 235.14,-16.5 234.39,-23.46"/>
</a>
</g>
</g>
<!-- Node3 -->
<g id="Node000003" class="node">
<title>Node3</title>
<g id="a_Node000003"><a xlink:href="main_8cpp.html#ae66f6b31b5ad750f1fe042a706a4e3d4" target="_top" xlink:title="Função principal do sistema de hotel.">
<polygon fill="white" stroke="#666666" points="37,-39 0,-39 0,-19 37,-19 37,-39"/>
<text xml:space="preserve" text-anchor="middle" x="18.5" y="-25.5" font-family="Helvetica,sans-Serif" font-size="10.00">main</text>
</a>
</g>
</g>
<!-- Node2&#45;&gt;Node3 -->
<g id="edge2_Node000002_Node000003" class="edge">
<title>Node2&#45;&gt;Node3</title>
<g id="a_edge2_Node000002_Node000003"><a xlink:title=" ">
<path fill="none" stroke="#63b8ff" d="M62.74,-35.78C53.26,-34.29 44.39,-32.9 37.19,-31.77"/>
<polygon fill="#63b8ff" stroke="#63b8ff" points="62.18,-39.23 72.6,-37.32 63.26,-32.31 62.18,-39.23"/>
</a>
</g>
</g>
<!-- Node4&#45;&gt;Node3 -->
<g id="edge4_Node000004_Node000003" class="edge">
<title>Node4&#45;&gt;Node3</title>
<g id="a_edge4_Node000004_Node000003"><a xlink:title=" ">
<path fill="none" stroke="#63b8ff" d="M73.49,-20.54C60.14,-22.63 47.24,-24.65 37.39,-26.2"/>
<polygon fill="#63b8ff" stroke="#63b8ff" points="73.91,-24.02 83.24,-19.01 72.82,-17.1 73.91,-24.02"/>
</a>
</g>
</g>
</g>
</svg>
</svg>

<style type='text/css'>
<![CDATA[
[data-mouse-over-selected='false'] { opacity: 0.7; }
[data-mouse-over-selected='true']  { opacity: 1.0; }
]]>
</style>
<script type="application/ecmascript"><![CDATA[
document.addEventListener('DOMContentLoaded', (event) => {
  highlightEdges();
  highlightAdjacentNodes();
});
]]></script>
</svg>
