<?xml version="1.0" encoding="UTF-8" standalone="no"?>
<!DOCTYPE svg PUBLIC "-//W3C//DTD SVG 1.1//EN"
 "http://www.w3.org/Graphics/SVG/1.1/DTD/svg11.dtd">
<!-- Generated by graphviz version 14.0.2 (20251019.1705)
 -->
<!-- Title: Sistema::criarReserva Pages: 1 -->
<svg width="303pt" height="332pt"
 viewBox="0.00 0.00 303.00 332.00" xmlns="http://www.w3.org/2000/svg" xmlns:xlink="http://www.w3.org/1999/xlink">

<svg id="main" version="1.1" xmlns="http://www.w3.org/2000/svg" xmlns:xlink="http://www.w3.org/1999/xlink" xml:space="preserve">

<style type="text/css"><![CDATA[
.node, .edge {opacity: 0.7;}
.node.selected, .edge.selected {opacity: 1;}
.edge:hover path { stroke: red; }
.edge:hover polygon { stroke: red; fill: red; }
]]></style>
<script type="application/ecmascript" xlink:href="svg.min.js"/>
<svg id="graph" class="graph">
<g id="graph0" class="graph" transform="scale(1 1) rotate(0) translate(4 328)">
<title>Sistema::criarReserva</title>
<!-- Node1 -->
<g id="Node000001" class="node">
<title>Node1</title>
<g id="a_Node000001"><a xlink:title=" ">
<polygon fill="#999999" stroke="#666666" points="113.5,-172 0,-172 0,-152 113.5,-152 113.5,-172"/>
<text xml:space="preserve" text-anchor="middle" x="56.75" y="-158.5" font-family="Helvetica,sans-Serif" font-size="10.00">Sistema::criarReserva</text>
</a>
</g>
</g>
<!-- Node2 -->
<g id="Node000002" class="node">
<title>Node2</title>
<g id="a_Node000002"><a xlink:href="class_hospede.html#aa214ce430b6b5b37aac6f3b7a56bbc5c" target="_top" xlink:title="Retorna o código identificador do hóspede.">
<polygon fill="white" stroke="#666666" points="271.62,-324 172.38,-324 172.38,-304 271.62,-304 271.62,-324"/>
<text xml:space="preserve" text-anchor="middle" x="222" y="-310.5" font-family="Helvetica,sans-Serif" font-size="10.00">Hospede::HCodigo</text>
</a>
</g>
</g>
<!-- Node1&#45;&gt;Node2 -->
<g id="edge1_Node000001_Node000002" class="edge">
<title>Node1&#45;&gt;Node2</title>
<g id="a_edge1_Node000001_Node000002"><a xlink:title=" ">
<path fill="none" stroke="#63b8ff" d="M61.78,-172.16C72.23,-197.16 102.7,-262.06 149.5,-295 153.18,-297.59 157.18,-299.82 161.36,-301.75"/>
<polygon fill="#63b8ff" stroke="#63b8ff" points="160.02,-304.99 170.61,-305.4 162.59,-298.47 160.02,-304.99"/>
</a>
</g>
</g>
<!-- Node3 -->
<g id="Node000003" class="node">
<title>Node3</title>
<g id="a_Node000003"><a xlink:href="class_sistema.html#a17820cf4c4402f8d205e78c7dc793988" target="_top" xlink:title=" ">
<polygon fill="white" stroke="#666666" points="294.5,-286 149.5,-286 149.5,-266 294.5,-266 294.5,-286"/>
<text xml:space="preserve" text-anchor="middle" x="222" y="-272.5" font-family="Helvetica,sans-Serif" font-size="10.00">Sistema::hospedeCadastrado</text>
</a>
</g>
</g>
<!-- Node1&#45;&gt;Node3 -->
<g id="edge2_Node000001_Node000003" class="edge">
<title>Node1&#45;&gt;Node3</title>
<g id="a_edge2_Node000001_Node000003"><a xlink:title=" ">
<path fill="none" stroke="#63b8ff" d="M64.75,-172.36C78.57,-191.97 111.35,-234.58 149.5,-257 152.16,-258.56 154.95,-260 157.82,-261.32"/>
<polygon fill="#63b8ff" stroke="#63b8ff" points="156.51,-264.56 167.09,-265.05 159.12,-258.07 156.51,-264.56"/>
</a>
</g>
</g>
<!-- Node4 -->
<g id="Node000004" class="node">
<title>Node4</title>
<g id="a_Node000004"><a xlink:href="class_sistema.html#a1e95f2a5b2be75a479a71efe63b71043" target="_top" xlink:title=" ">
<polygon fill="white" stroke="#666666" points="282.5,-248 161.5,-248 161.5,-228 282.5,-228 282.5,-248"/>
<text xml:space="preserve" text-anchor="middle" x="222" y="-234.5" font-family="Helvetica,sans-Serif" font-size="10.00">Sistema::posicaoQuarto</text>
</a>
</g>
</g>
<!-- Node1&#45;&gt;Node4 -->
<g id="edge3_Node000001_Node000004" class="edge">
<title>Node1&#45;&gt;Node4</title>
<g id="a_edge3_Node000001_Node000004"><a xlink:title=" ">
<path fill="none" stroke="#63b8ff" d="M71.64,-172.47C89.01,-185.12 120.06,-206.28 149.5,-219 153.81,-220.86 158.35,-222.58 162.96,-224.16"/>
<polygon fill="#63b8ff" stroke="#63b8ff" points="161.75,-227.45 172.34,-227.13 163.86,-220.77 161.75,-227.45"/>
</a>
</g>
</g>
<!-- Node5 -->
<g id="Node000005" class="node">
<title>Node5</title>
<g id="a_Node000005"><a xlink:href="class_quartos.html#a9c29a38b3c9293bee738f3eca7b28e98" target="_top" xlink:title="Retorna o número identificador do quarto.">
<polygon fill="white" stroke="#666666" points="271.25,-210 172.75,-210 172.75,-190 271.25,-190 271.25,-210"/>
<text xml:space="preserve" text-anchor="middle" x="222" y="-196.5" font-family="Helvetica,sans-Serif" font-size="10.00">Quartos::QNumero</text>
</a>
</g>
</g>
<!-- Node1&#45;&gt;Node5 -->
<g id="edge4_Node000001_Node000005" class="edge">
<title>Node1&#45;&gt;Node5</title>
<g id="a_edge4_Node000001_Node000005"><a xlink:title=" ">
<path fill="none" stroke="#63b8ff" d="M102.79,-172.48C122.06,-176.97 144.76,-182.25 165.09,-186.99"/>
<polygon fill="#63b8ff" stroke="#63b8ff" points="164.1,-190.35 174.63,-189.21 165.69,-183.53 164.1,-190.35"/>
</a>
</g>
</g>
<!-- Node6 -->
<g id="Node000006" class="node">
<title>Node6</title>
<g id="a_Node000006"><a xlink:href="class_reserva.html#a3df24f4285d07d5d287a02abeaae4d30" target="_top" xlink:title="Retorna a data de check&#45;in da reserva.">
<polygon fill="white" stroke="#666666" points="273.5,-172 170.5,-172 170.5,-152 273.5,-152 273.5,-172"/>
<text xml:space="preserve" text-anchor="middle" x="222" y="-158.5" font-family="Helvetica,sans-Serif" font-size="10.00">Reserva::RCheckIn</text>
</a>
</g>
</g>
<!-- Node1&#45;&gt;Node6 -->
<g id="edge5_Node000001_Node000006" class="edge">
<title>Node1&#45;&gt;Node6</title>
<g id="a_edge5_Node000001_Node000006"><a xlink:title=" ">
<path fill="none" stroke="#63b8ff" d="M113.93,-162C128.48,-162 144.23,-162 159.06,-162"/>
<polygon fill="#63b8ff" stroke="#63b8ff" points="158.68,-165.5 168.68,-162 158.68,-158.5 158.68,-165.5"/>
</a>
</g>
</g>
<!-- Node7 -->
<g id="Node000007" class="node">
<title>Node7</title>
<g id="a_Node000007"><a xlink:href="class_reserva.html#acb9430861a703b226bc0c2552278ed97" target="_top" xlink:title="Retorna a data de check&#45;out da reserva.">
<polygon fill="white" stroke="#666666" points="277.25,-134 166.75,-134 166.75,-114 277.25,-114 277.25,-134"/>
<text xml:space="preserve" text-anchor="middle" x="222" y="-120.5" font-family="Helvetica,sans-Serif" font-size="10.00">Reserva::RCheckOut</text>
</a>
</g>
</g>
<!-- Node1&#45;&gt;Node7 -->
<g id="edge6_Node000001_Node000007" class="edge">
<title>Node1&#45;&gt;Node7</title>
<g id="a_edge6_Node000001_Node000007"><a xlink:title=" ">
<path fill="none" stroke="#63b8ff" d="M102.79,-151.52C122.06,-147.03 144.76,-141.75 165.09,-137.01"/>
<polygon fill="#63b8ff" stroke="#63b8ff" points="165.69,-140.47 174.63,-134.79 164.1,-133.65 165.69,-140.47"/>
</a>
</g>
</g>
<!-- Node8 -->
<g id="Node000008" class="node">
<title>Node8</title>
<g id="a_Node000008"><a xlink:href="class_sistema.html#ad8230e486098d6e1bfb2e5ff1dc9755a" target="_top" xlink:title=" ">
<polygon fill="white" stroke="#666666" points="291.88,-96 152.12,-96 152.12,-76 291.88,-76 291.88,-96"/>
<text xml:space="preserve" text-anchor="middle" x="222" y="-82.5" font-family="Helvetica,sans-Serif" font-size="10.00">Sistema::reservaSobreposta</text>
</a>
</g>
</g>
<!-- Node1&#45;&gt;Node8 -->
<g id="edge7_Node000001_Node000008" class="edge">
<title>Node1&#45;&gt;Node8</title>
<g id="a_edge7_Node000001_Node000008"><a xlink:title=" ">
<path fill="none" stroke="#63b8ff" d="M71.64,-151.53C89.01,-138.88 120.06,-117.72 149.5,-105 153.81,-103.14 158.35,-101.42 162.96,-99.84"/>
<polygon fill="#63b8ff" stroke="#63b8ff" points="163.86,-103.23 172.34,-96.87 161.75,-96.55 163.86,-103.23"/>
</a>
</g>
</g>
<!-- Node9 -->
<g id="Node000009" class="node">
<title>Node9</title>
<g id="a_Node000009"><a xlink:href="class_reserva.html#a4795c2154ab9a851d080e71bb65c0452" target="_top" xlink:title="Retorna o hóspede associado à reserva.">
<polygon fill="white" stroke="#666666" points="274.62,-58 169.38,-58 169.38,-38 274.62,-38 274.62,-58"/>
<text xml:space="preserve" text-anchor="middle" x="222" y="-44.5" font-family="Helvetica,sans-Serif" font-size="10.00">Reserva::RHospede</text>
</a>
</g>
</g>
<!-- Node1&#45;&gt;Node9 -->
<g id="edge8_Node000001_Node000009" class="edge">
<title>Node1&#45;&gt;Node9</title>
<g id="a_edge8_Node000001_Node000009"><a xlink:title=" ">
<path fill="none" stroke="#63b8ff" d="M64.75,-151.64C78.57,-132.03 111.35,-89.42 149.5,-67 152.45,-65.27 155.56,-63.69 158.77,-62.25"/>
<polygon fill="#63b8ff" stroke="#63b8ff" points="159.81,-65.6 167.84,-58.68 157.25,-59.09 159.81,-65.6"/>
</a>
</g>
</g>
<!-- Node10 -->
<g id="Node000010" class="node">
<title>Node10</title>
<g id="a_Node000010"><a xlink:href="class_reserva.html#a459fe5e23ee1be0486086a4502e3fc87" target="_top" xlink:title="Retorna o quarto reservado.">
<polygon fill="white" stroke="#666666" points="269.75,-20 174.25,-20 174.25,0 269.75,0 269.75,-20"/>
<text xml:space="preserve" text-anchor="middle" x="222" y="-6.5" font-family="Helvetica,sans-Serif" font-size="10.00">Reserva::RQuarto</text>
</a>
</g>
</g>
<!-- Node1&#45;&gt;Node10 -->
<g id="edge9_Node000001_Node000010" class="edge">
<title>Node1&#45;&gt;Node10</title>
<g id="a_edge9_Node000001_Node000010"><a xlink:title=" ">
<path fill="none" stroke="#63b8ff" d="M61.78,-151.84C72.23,-126.84 102.7,-61.94 149.5,-29 153.69,-26.05 158.31,-23.56 163.12,-21.45"/>
<polygon fill="#63b8ff" stroke="#63b8ff" points="164.32,-24.74 172.47,-17.97 161.87,-18.19 164.32,-24.74"/>
</a>
</g>
</g>
</g>
</svg>
</svg>

<style type='text/css'>
<![CDATA[
[data-mouse-over-selected='false'] { opacity: 0.7; }
[data-mouse-over-selected='true']  { opacity: 1.0; }
]]>
</style>
<script type="application/ecmascript"><![CDATA[
document.addEventListener('DOMContentLoaded', (event) => {
  highlightEdges();
  highlightAdjacentNodes();
});
]]></script>
</svg>
