<?xml version="1.0" encoding="UTF-8" standalone="no"?>
<!DOCTYPE svg PUBLIC "-//W3C//DTD SVG 1.1//EN"
 "http://www.w3.org/Graphics/SVG/1.1/DTD/svg11.dtd">
<!-- Generated by graphviz version 14.0.2 (20251019.1705)
 -->
<!-- Title: Reserva::RHospede Pages: 1 -->
<svg width="379pt" height="128pt"
 viewBox="0.00 0.00 379.00 128.00" xmlns="http://www.w3.org/2000/svg" xmlns:xlink="http://www.w3.org/1999/xlink">
<g id="graph0" class="graph" transform="scale(1 1) rotate(0) translate(4 124)">
<title>Reserva::RHospede</title>
<!-- Node1 -->
<g id="Node000001" class="node">
<title>Node1</title>
<g id="a_Node000001"><a xlink:title="Retorna o hóspede associado à reserva.">
<polygon fill="#999999" stroke="#666666" points="370.5,-76 265.25,-76 265.25,-56 370.5,-56 370.5,-76"/>
<text xml:space="preserve" text-anchor="middle" x="317.88" y="-62.5" font-family="Helvetica,sans-Serif" font-size="10.00">Reserva::RHospede</text>
</a>
</g>
</g>
<!-- Node2 -->
<g id="Node000002" class="node">
<title>Node2</title>
<g id="a_Node000002"><a xlink:href="class_sistema.html#ab5d01c8fea43349d61ff29453a8917e1" target="_top" xlink:title=" ">
<polygon fill="white" stroke="#666666" points="207.88,-120 94.38,-120 94.38,-100 207.88,-100 207.88,-120"/>
<text xml:space="preserve" text-anchor="middle" x="151.12" y="-106.5" font-family="Helvetica,sans-Serif" font-size="10.00">Sistema::criarReserva</text>
</a>
</g>
</g>
<!-- Node1&#45;&gt;Node2 -->
<g id="edge1_Node000001_Node000002" class="edge">
<title>Node1&#45;&gt;Node2</title>
<g id="a_edge1_Node000001_Node000002"><a xlink:title=" ">
<path fill="none" stroke="#63b8ff" d="M270.7,-79.51C257.36,-83.33 242.75,-87.41 229.25,-91 218.45,-93.87 206.77,-96.82 195.84,-99.52"/>
<polygon fill="#63b8ff" stroke="#63b8ff" points="271.47,-82.93 280.11,-76.81 269.54,-76.21 271.47,-82.93"/>
</a>
</g>
</g>
<!-- Node4 -->
<g id="Node000004" class="node">
<title>Node4</title>
<g id="a_Node000004"><a xlink:href="class_sistema.html#a8f75885af16b3e03ee0e2e459c0c2404" target="_top" xlink:title=" ">
<polygon fill="white" stroke="#666666" points="229.25,-82 73,-82 73,-50 229.25,-50 229.25,-82"/>
<text xml:space="preserve" text-anchor="start" x="81" y="-68.5" font-family="Helvetica,sans-Serif" font-size="10.00">Sistema::mostrarDadosReserva</text>
<text xml:space="preserve" text-anchor="middle" x="151.12" y="-56.5" font-family="Helvetica,sans-Serif" font-size="10.00">Completa</text>
</a>
</g>
</g>
<!-- Node1&#45;&gt;Node4 -->
<g id="edge3_Node000001_Node000004" class="edge">
<title>Node1&#45;&gt;Node4</title>
<g id="a_edge3_Node000001_Node000004"><a xlink:title=" ">
<path fill="none" stroke="#63b8ff" d="M253.8,-66C245.87,-66 237.68,-66 229.56,-66"/>
<polygon fill="#63b8ff" stroke="#63b8ff" points="253.69,-69.5 263.69,-66 253.69,-62.5 253.69,-69.5"/>
</a>
</g>
</g>
<!-- Node5 -->
<g id="Node000005" class="node">
<title>Node5</title>
<g id="a_Node000005"><a xlink:href="class_sistema.html#af49ee03765c1fc70add0ca0bd35460ff" target="_top" xlink:title=" ">
<polygon fill="white" stroke="#666666" points="223.62,-32 78.62,-32 78.62,0 223.62,0 223.62,-32"/>
<text xml:space="preserve" text-anchor="start" x="86.62" y="-18.5" font-family="Helvetica,sans-Serif" font-size="10.00">Sistema::mostrarHospedePor</text>
<text xml:space="preserve" text-anchor="middle" x="151.12" y="-6.5" font-family="Helvetica,sans-Serif" font-size="10.00">Reserva</text>
</a>
</g>
</g>
<!-- Node1&#45;&gt;Node5 -->
<g id="edge5_Node000001_Node000005" class="edge">
<title>Node1&#45;&gt;Node5</title>
<g id="a_edge5_Node000001_Node000005"><a xlink:title=" ">
<path fill="none" stroke="#63b8ff" d="M271.56,-52.25C251.4,-46.13 227.5,-38.88 206.4,-32.47"/>
<polygon fill="#63b8ff" stroke="#63b8ff" points="270.3,-55.52 280.89,-55.08 272.34,-48.83 270.3,-55.52"/>
</a>
</g>
</g>
<!-- Node3 -->
<g id="Node000003" class="node">
<title>Node3</title>
<g id="a_Node000003"><a xlink:href="main_8cpp.html#ae66f6b31b5ad750f1fe042a706a4e3d4" target="_top" xlink:title="Função principal do sistema de hotel.">
<polygon fill="white" stroke="#666666" points="37,-98 0,-98 0,-78 37,-78 37,-98"/>
<text xml:space="preserve" text-anchor="middle" x="18.5" y="-84.5" font-family="Helvetica,sans-Serif" font-size="10.00">main</text>
</a>
</g>
</g>
<!-- Node2&#45;&gt;Node3 -->
<g id="edge2_Node000002_Node000003" class="edge">
<title>Node2&#45;&gt;Node3</title>
<g id="a_edge2_Node000002_Node000003"><a xlink:title=" ">
<path fill="none" stroke="#63b8ff" d="M82.94,-98.68C66.12,-95.85 49.47,-93.05 37.45,-91.02"/>
<polygon fill="#63b8ff" stroke="#63b8ff" points="82.04,-102.08 92.48,-100.29 83.2,-95.18 82.04,-102.08"/>
</a>
</g>
</g>
<!-- Node4&#45;&gt;Node3 -->
<g id="edge4_Node000004_Node000003" class="edge">
<title>Node4&#45;&gt;Node3</title>
<g id="a_edge4_Node000004_Node000003"><a xlink:title=" ">
<path fill="none" stroke="#63b8ff" d="M61.42,-80.94C52.47,-82.45 44.18,-83.84 37.39,-84.99"/>
<polygon fill="#63b8ff" stroke="#63b8ff" points="61.86,-84.42 71.14,-79.3 60.7,-77.51 61.86,-84.42"/>
</a>
</g>
</g>
</g>
</svg>
