<?xml version="1.0" encoding="UTF-8" standalone="no"?>
<!DOCTYPE svg PUBLIC "-//W3C//DTD SVG 1.1//EN"
 "http://www.w3.org/Graphics/SVG/1.1/DTD/svg11.dtd">
<!-- Generated by graphviz version 14.0.2 (20251019.1705)
 -->
<!-- Title: include/Quartos.h Pages: 1 -->
<svg width="296pt" height="196pt"
 viewBox="0.00 0.00 296.00 196.00" xmlns="http://www.w3.org/2000/svg" xmlns:xlink="http://www.w3.org/1999/xlink">

<svg id="main" version="1.1" xmlns="http://www.w3.org/2000/svg" xmlns:xlink="http://www.w3.org/1999/xlink" xml:space="preserve">

<style type="text/css"><![CDATA[
.node, .edge {opacity: 0.7;}
.node.selected, .edge.selected {opacity: 1;}
.edge:hover path { stroke: red; }
.edge:hover polygon { stroke: red; fill: red; }
]]></style>
<script type="application/ecmascript" xlink:href="svg.min.js"/>
<svg id="graph" class="graph">
<g id="graph0" class="graph" transform="scale(1 1) rotate(0) translate(4 192)">
<title>include/Quartos.h</title>
<!-- Node1 -->
<g id="Node000001" class="node">
<title>Node1</title>
<g id="a_Node000001"><a xlink:title=" ">
<polygon fill="#999999" stroke="#666666" points="141.98,-188 49.48,-188 49.48,-168 141.98,-168 141.98,-188"/>
<text xml:space="preserve" text-anchor="middle" x="95.73" y="-174.5" font-family="Helvetica,sans-Serif" font-size="10.00">include/Quartos.h</text>
</a>
</g>
</g>
<!-- Node2 -->
<g id="Node000002" class="node">
<title>Node2</title>
<g id="a_Node000002"><a xlink:href="_reserva_8h.html" target="_top" xlink:title=" ">
<polygon fill="white" stroke="#666666" points="181.1,-132 86.35,-132 86.35,-112 181.1,-112 181.1,-132"/>
<text xml:space="preserve" text-anchor="middle" x="133.73" y="-118.5" font-family="Helvetica,sans-Serif" font-size="10.00">include/Reserva.h</text>
</a>
</g>
</g>
<!-- Node1&#45;&gt;Node2 -->
<g id="edge1_Node000001_Node000002" class="edge">
<title>Node1&#45;&gt;Node2</title>
<g id="a_edge1_Node000001_Node000002"><a xlink:title=" ">
<path fill="none" stroke="#63b8ff" d="M108.79,-158.44C115,-149.62 122.14,-139.47 127.19,-132.3"/>
<polygon fill="#63b8ff" stroke="#63b8ff" points="106.11,-156.16 103.22,-166.36 111.84,-160.19 106.11,-156.16"/>
</a>
</g>
</g>
<!-- Node3 -->
<g id="Node000003" class="node">
<title>Node3</title>
<g id="a_Node000003"><a xlink:href="_sistema_8h.html" target="_top" xlink:title=" ">
<polygon fill="white" stroke="#666666" points="105.73,-76 11.73,-76 11.73,-56 105.73,-56 105.73,-76"/>
<text xml:space="preserve" text-anchor="middle" x="58.73" y="-62.5" font-family="Helvetica,sans-Serif" font-size="10.00">include/Sistema.h</text>
</a>
</g>
</g>
<!-- Node1&#45;&gt;Node3 -->
<g id="edge8_Node000001_Node000003" class="edge">
<title>Node1&#45;&gt;Node3</title>
<g id="a_edge8_Node000001_Node000003"><a xlink:title=" ">
<path fill="none" stroke="#63b8ff" d="M87.33,-157.2C84.15,-149.41 80.61,-140.35 77.73,-132 70.98,-112.44 64.53,-89.05 61.16,-76.35"/>
<polygon fill="#63b8ff" stroke="#63b8ff" points="84.08,-158.51 91.16,-166.39 90.55,-155.82 84.08,-158.51"/>
</a>
</g>
</g>
<!-- Node4 -->
<g id="Node000004" class="node">
<title>Node4</title>
<g id="a_Node000004"><a xlink:href="main_8cpp.html" target="_top" xlink:title="Ponto de entrada do sistema de gerenciamento de hotel.">
<polygon fill="white" stroke="#666666" points="86.6,-20 30.85,-20 30.85,0 86.6,0 86.6,-20"/>
<text xml:space="preserve" text-anchor="middle" x="58.73" y="-6.5" font-family="Helvetica,sans-Serif" font-size="10.00">main.cpp</text>
</a>
</g>
</g>
<!-- Node1&#45;&gt;Node4 -->
<g id="edge9_Node000001_Node000004" class="edge">
<title>Node1&#45;&gt;Node4</title>
<g id="a_edge9_Node000001_Node000004"><a xlink:title=" ">
<path fill="none" stroke="#63b8ff" d="M73.31,-160.94C50.59,-143.15 16.83,-112.14 2.73,-76 -0.5,-67.72 -1.11,-64.02 2.73,-56 10.33,-40.14 26.55,-28.1 39.58,-20.48"/>
<polygon fill="#63b8ff" stroke="#63b8ff" points="70.99,-163.58 81.08,-166.83 75.22,-158 70.99,-163.58"/>
</a>
</g>
</g>
<!-- Node7 -->
<g id="Node000007" class="node">
<title>Node7</title>
<g id="a_Node000007"><a xlink:href="_quartos_8cpp.html" target="_top" xlink:title=" ">
<polygon fill="white" stroke="#666666" points="284.6,-132 198.85,-132 198.85,-112 284.6,-112 284.6,-132"/>
<text xml:space="preserve" text-anchor="middle" x="241.73" y="-118.5" font-family="Helvetica,sans-Serif" font-size="10.00">src/Quartos.cpp</text>
</a>
</g>
</g>
<!-- Node1&#45;&gt;Node7 -->
<g id="edge10_Node000001_Node000007" class="edge">
<title>Node1&#45;&gt;Node7</title>
<g id="a_edge10_Node000001_Node000007"><a xlink:title=" ">
<path fill="none" stroke="#63b8ff" d="M131.79,-163.66C157.96,-153.98 192.73,-141.12 216.1,-132.48"/>
<polygon fill="#63b8ff" stroke="#63b8ff" points="130.74,-160.32 122.58,-167.07 133.17,-166.88 130.74,-160.32"/>
</a>
</g>
</g>
<!-- Node2&#45;&gt;Node3 -->
<g id="edge2_Node000002_Node000003" class="edge">
<title>Node2&#45;&gt;Node3</title>
<g id="a_edge2_Node000002_Node000003"><a xlink:title=" ">
<path fill="none" stroke="#63b8ff" d="M111.5,-105C98.62,-95.72 82.83,-84.35 71.89,-76.48"/>
<polygon fill="#63b8ff" stroke="#63b8ff" points="109.28,-107.71 119.44,-110.71 113.37,-102.03 109.28,-107.71"/>
</a>
</g>
</g>
<!-- Node2&#45;&gt;Node4 -->
<g id="edge5_Node000002_Node000004" class="edge">
<title>Node2&#45;&gt;Node4</title>
<g id="a_edge5_Node000002_Node000004"><a xlink:title=" ">
<path fill="none" stroke="#63b8ff" d="M131.08,-100.84C128.55,-87.28 123.73,-69.47 114.73,-56 104.61,-40.86 87.82,-28.35 75.26,-20.4"/>
<polygon fill="#63b8ff" stroke="#63b8ff" points="127.56,-101.04 132.57,-110.37 134.48,-99.95 127.56,-101.04"/>
</a>
</g>
</g>
<!-- Node5 -->
<g id="Node000005" class="node">
<title>Node5</title>
<g id="a_Node000005"><a xlink:href="_sistema_8cpp.html" target="_top" xlink:title=" ">
<polygon fill="white" stroke="#666666" points="203.35,-20 116.1,-20 116.1,0 203.35,0 203.35,-20"/>
<text xml:space="preserve" text-anchor="middle" x="159.73" y="-6.5" font-family="Helvetica,sans-Serif" font-size="10.00">src/Sistema.cpp</text>
</a>
</g>
</g>
<!-- Node2&#45;&gt;Node5 -->
<g id="edge7_Node000002_Node000005" class="edge">
<title>Node2&#45;&gt;Node5</title>
<g id="a_edge7_Node000002_Node000005"><a xlink:title=" ">
<path fill="none" stroke="#63b8ff" d="M140.54,-100.91C143.01,-93.18 145.7,-84.24 147.73,-76 152.57,-56.39 156.43,-33.02 158.36,-20.33"/>
<polygon fill="#63b8ff" stroke="#63b8ff" points="137.24,-99.75 137.43,-110.35 143.88,-101.95 137.24,-99.75"/>
</a>
</g>
</g>
<!-- Node6 -->
<g id="Node000006" class="node">
<title>Node6</title>
<g id="a_Node000006"><a xlink:href="_reserva_8cpp.html" target="_top" xlink:title=" ">
<polygon fill="white" stroke="#666666" points="287.73,-76 199.73,-76 199.73,-56 287.73,-56 287.73,-76"/>
<text xml:space="preserve" text-anchor="middle" x="243.73" y="-62.5" font-family="Helvetica,sans-Serif" font-size="10.00">src/Reserva.cpp</text>
</a>
</g>
</g>
<!-- Node2&#45;&gt;Node6 -->
<g id="edge6_Node000002_Node000006" class="edge">
<title>Node2&#45;&gt;Node6</title>
<g id="a_edge6_Node000002_Node000006"><a xlink:title=" ">
<path fill="none" stroke="#63b8ff" d="M163.04,-106.61C182.48,-97.07 207.44,-84.81 224.42,-76.48"/>
<polygon fill="#63b8ff" stroke="#63b8ff" points="161.68,-103.38 154.25,-110.93 164.77,-109.66 161.68,-103.38"/>
</a>
</g>
</g>
<!-- Node3&#45;&gt;Node4 -->
<g id="edge3_Node000003_Node000004" class="edge">
<title>Node3&#45;&gt;Node4</title>
<g id="a_edge3_Node000003_Node000004"><a xlink:title=" ">
<path fill="none" stroke="#63b8ff" d="M58.73,-44.13C58.73,-35.9 58.73,-26.85 58.73,-20.3"/>
<polygon fill="#63b8ff" stroke="#63b8ff" points="55.23,-44.08 58.73,-54.08 62.23,-44.08 55.23,-44.08"/>
</a>
</g>
</g>
<!-- Node3&#45;&gt;Node5 -->
<g id="edge4_Node000003_Node000005" class="edge">
<title>Node3&#45;&gt;Node5</title>
<g id="a_edge4_Node000003_Node000005"><a xlink:title=" ">
<path fill="none" stroke="#63b8ff" d="M86.13,-50.35C103.91,-40.84 126.55,-28.74 142,-20.48"/>
<polygon fill="#63b8ff" stroke="#63b8ff" points="84.82,-47.08 77.66,-54.88 88.13,-53.25 84.82,-47.08"/>
</a>
</g>
</g>
</g>
</svg>
</svg>

<style type='text/css'>
<![CDATA[
[data-mouse-over-selected='false'] { opacity: 0.7; }
[data-mouse-over-selected='true']  { opacity: 1.0; }
]]>
</style>
<script type="application/ecmascript"><![CDATA[
document.addEventListener('DOMContentLoaded', (event) => {
  highlightEdges();
  highlightAdjacentNodes();
});
]]></script>
</svg>
