<?xml version="1.0" encoding="UTF-8" standalone="no"?>
<!DOCTYPE svg PUBLIC "-//W3C//DTD SVG 1.1//EN"
 "http://www.w3.org/Graphics/SVG/1.1/DTD/svg11.dtd">
<!-- Generated by graphviz version 14.0.2 (20251019.1705)
 -->
<!-- Title: include/Reserva.h Pages: 1 -->
<svg width="166pt" height="140pt"
 viewBox="0.00 0.00 166.00 140.00" xmlns="http://www.w3.org/2000/svg" xmlns:xlink="http://www.w3.org/1999/xlink">

<svg id="main" version="1.1" xmlns="http://www.w3.org/2000/svg" xmlns:xlink="http://www.w3.org/1999/xlink" xml:space="preserve">

<style type="text/css"><![CDATA[
.node, .edge {opacity: 0.7;}
.node.selected, .edge.selected {opacity: 1;}
.edge:hover path { stroke: red; }
.edge:hover polygon { stroke: red; fill: red; }
]]></style>
<script type="application/ecmascript" xlink:href="svg.min.js"/>
<svg id="graph" class="graph">
<g id="graph0" class="graph" transform="scale(1 1) rotate(0) translate(4 136)">
<title>include/Reserva.h</title>
<!-- Node1 -->
<g id="Node000001" class="node">
<title>Node1</title>
<g id="a_Node000001"><a xlink:title=" ">
<polygon fill="#999999" stroke="#666666" points="94.75,-132 0,-132 0,-112 94.75,-112 94.75,-132"/>
<text xml:space="preserve" text-anchor="middle" x="47.38" y="-118.5" font-family="Helvetica,sans-Serif" font-size="10.00">include/Reserva.h</text>
</a>
</g>
</g>
<!-- Node2 -->
<g id="Node000002" class="node">
<title>Node2</title>
<g id="a_Node000002"><a xlink:title=" ">
<polygon fill="#e0e0e0" stroke="#999999" points="67.38,-20 27.38,-20 27.38,0 67.38,0 67.38,-20"/>
<text xml:space="preserve" text-anchor="middle" x="47.38" y="-6.5" font-family="Helvetica,sans-Serif" font-size="10.00">string</text>
</a>
</g>
</g>
<!-- Node1&#45;&gt;Node2 -->
<g id="edge1_Node000001_Node000002" class="edge">
<title>Node1&#45;&gt;Node2</title>
<g id="a_edge1_Node000001_Node000002"><a xlink:title=" ">
<path fill="none" stroke="#63b8ff" d="M35.77,-111.84C21.93,-99.71 1.56,-77.36 9.38,-56 13.16,-45.65 20.5,-36.03 27.72,-28.37"/>
<polygon fill="#63b8ff" stroke="#63b8ff" points="30.15,-30.9 34.85,-21.41 25.25,-25.89 30.15,-30.9"/>
</a>
</g>
</g>
<!-- Node3 -->
<g id="Node000003" class="node">
<title>Node3</title>
<g id="a_Node000003"><a xlink:href="_hospede_8h.html" target="_top" xlink:title=" ">
<polygon fill="white" stroke="#666666" points="158,-76 94.75,-76 94.75,-56 158,-56 158,-76"/>
<text xml:space="preserve" text-anchor="middle" x="126.38" y="-62.5" font-family="Helvetica,sans-Serif" font-size="10.00">Hospede.h</text>
</a>
</g>
</g>
<!-- Node1&#45;&gt;Node3 -->
<g id="edge2_Node000001_Node000003" class="edge">
<title>Node1&#45;&gt;Node3</title>
<g id="a_edge2_Node000001_Node000003"><a xlink:title=" ">
<path fill="none" stroke="#63b8ff" d="M61.14,-111.59C72.73,-103.67 89.57,-92.16 103.24,-82.82"/>
<polygon fill="#63b8ff" stroke="#63b8ff" points="104.98,-85.87 111.26,-77.33 101.03,-80.09 104.98,-85.87"/>
</a>
</g>
</g>
<!-- Node5 -->
<g id="Node000005" class="node">
<title>Node5</title>
<g id="a_Node000005"><a xlink:href="_quartos_8h.html" target="_top" xlink:title=" ">
<polygon fill="white" stroke="#666666" points="76.75,-76 18,-76 18,-56 76.75,-56 76.75,-76"/>
<text xml:space="preserve" text-anchor="middle" x="47.38" y="-62.5" font-family="Helvetica,sans-Serif" font-size="10.00">Quartos.h</text>
</a>
</g>
</g>
<!-- Node1&#45;&gt;Node5 -->
<g id="edge5_Node000001_Node000005" class="edge">
<title>Node1&#45;&gt;Node5</title>
<g id="a_edge5_Node000001_Node000005"><a xlink:title=" ">
<path fill="none" stroke="#63b8ff" d="M47.38,-111.59C47.38,-105.01 47.38,-95.96 47.38,-87.73"/>
<polygon fill="#63b8ff" stroke="#63b8ff" points="50.88,-87.81 47.38,-77.81 43.88,-87.81 50.88,-87.81"/>
</a>
</g>
</g>
<!-- Node3&#45;&gt;Node2 -->
<g id="edge4_Node000003_Node000002" class="edge">
<title>Node3&#45;&gt;Node2</title>
<g id="a_edge4_Node000003_Node000002"><a xlink:title=" ">
<path fill="none" stroke="#63b8ff" d="M112.61,-55.59C101.02,-47.67 84.18,-36.16 70.51,-26.82"/>
<polygon fill="#63b8ff" stroke="#63b8ff" points="72.72,-24.09 62.49,-21.33 68.77,-29.87 72.72,-24.09"/>
</a>
</g>
</g>
<!-- Node4 -->
<g id="Node000004" class="node">
<title>Node4</title>
<g id="a_Node000004"><a xlink:title=" ">
<polygon fill="#e0e0e0" stroke="#999999" points="153.12,-20 99.62,-20 99.62,0 153.12,0 153.12,-20"/>
<text xml:space="preserve" text-anchor="middle" x="126.38" y="-6.5" font-family="Helvetica,sans-Serif" font-size="10.00">iostream</text>
</a>
</g>
</g>
<!-- Node3&#45;&gt;Node4 -->
<g id="edge3_Node000003_Node000004" class="edge">
<title>Node3&#45;&gt;Node4</title>
<g id="a_edge3_Node000003_Node000004"><a xlink:title=" ">
<path fill="none" stroke="#63b8ff" d="M126.38,-55.59C126.38,-49.01 126.38,-39.96 126.38,-31.73"/>
<polygon fill="#63b8ff" stroke="#63b8ff" points="129.88,-31.81 126.38,-21.81 122.88,-31.81 129.88,-31.81"/>
</a>
</g>
</g>
<!-- Node5&#45;&gt;Node2 -->
<g id="edge6_Node000005_Node000002" class="edge">
<title>Node5&#45;&gt;Node2</title>
<g id="a_edge6_Node000005_Node000002"><a xlink:title=" ">
<path fill="none" stroke="#63b8ff" d="M47.38,-55.59C47.38,-49.01 47.38,-39.96 47.38,-31.73"/>
<polygon fill="#63b8ff" stroke="#63b8ff" points="50.88,-31.81 47.38,-21.81 43.88,-31.81 50.88,-31.81"/>
</a>
</g>
</g>
</g>
</svg>
</svg>

<style type='text/css'>
<![CDATA[
[data-mouse-over-selected='false'] { opacity: 0.7; }
[data-mouse-over-selected='true']  { opacity: 1.0; }
]]>
</style>
<script type="application/ecmascript"><![CDATA[
document.addEventListener('DOMContentLoaded', (event) => {
  highlightEdges();
  highlightAdjacentNodes();
});
]]></script>
</svg>
