<?xml version="1.0" encoding="UTF-8" standalone="no"?>
<!DOCTYPE svg PUBLIC "-//W3C//DTD SVG 1.1//EN"
 "http://www.w3.org/Graphics/SVG/1.1/DTD/svg11.dtd">
<!-- Generated by graphviz version 14.0.2 (20251019.1705)
 -->
<!-- Title: src/Reserva.cpp Pages: 1 -->
<svg width="251pt" height="196pt"
 viewBox="0.00 0.00 251.00 196.00" xmlns="http://www.w3.org/2000/svg" xmlns:xlink="http://www.w3.org/1999/xlink">
<g id="graph0" class="graph" transform="scale(1 1) rotate(0) translate(4 192)">
<title>src/Reserva.cpp</title>
<!-- Node1 -->
<g id="Node000001" class="node">
<title>Node1</title>
<g id="a_Node000001"><a xlink:title=" ">
<polygon fill="#999999" stroke="#666666" points="123.44,-188 35.44,-188 35.44,-168 123.44,-168 123.44,-188"/>
<text xml:space="preserve" text-anchor="middle" x="79.44" y="-174.5" font-family="Helvetica,sans-Serif" font-size="10.00">src/Reserva.cpp</text>
</a>
</g>
</g>
<!-- Node2 -->
<g id="Node000002" class="node">
<title>Node2</title>
<g id="a_Node000002"><a xlink:title=" ">
<polygon fill="#e0e0e0" stroke="#999999" points="80.19,-20 26.69,-20 26.69,0 80.19,0 80.19,-20"/>
<text xml:space="preserve" text-anchor="middle" x="53.44" y="-6.5" font-family="Helvetica,sans-Serif" font-size="10.00">iostream</text>
</a>
</g>
</g>
<!-- Node1&#45;&gt;Node2 -->
<g id="edge1_Node000001_Node000002" class="edge">
<title>Node1&#45;&gt;Node2</title>
<g id="a_edge1_Node000001_Node000002"><a xlink:title=" ">
<path fill="none" stroke="#63b8ff" d="M51.39,-167.63C35.13,-160.59 16.02,-149.16 6.44,-132 -12.96,-97.26 16.76,-52.88 37.07,-28.69"/>
<polygon fill="#63b8ff" stroke="#63b8ff" points="39.56,-31.15 43.53,-21.33 34.3,-26.54 39.56,-31.15"/>
</a>
</g>
</g>
<!-- Node3 -->
<g id="Node000003" class="node">
<title>Node3</title>
<g id="a_Node000003"><a xlink:title=" ">
<polygon fill="#e0e0e0" stroke="#999999" points="73.82,-132 15.07,-132 15.07,-112 73.82,-112 73.82,-132"/>
<text xml:space="preserve" text-anchor="middle" x="44.44" y="-118.5" font-family="Helvetica,sans-Serif" font-size="10.00">stdexcept</text>
</a>
</g>
</g>
<!-- Node1&#45;&gt;Node3 -->
<g id="edge2_Node000001_Node000003" class="edge">
<title>Node1&#45;&gt;Node3</title>
<g id="a_edge2_Node000001_Node000003"><a xlink:title=" ">
<path fill="none" stroke="#63b8ff" d="M73.34,-167.59C68.73,-160.47 62.23,-150.45 56.57,-141.72"/>
<polygon fill="#63b8ff" stroke="#63b8ff" points="59.67,-140.06 51.29,-133.57 53.79,-143.86 59.67,-140.06"/>
</a>
</g>
</g>
<!-- Node4 -->
<g id="Node000004" class="node">
<title>Node4</title>
<g id="a_Node000004"><a xlink:title=" ">
<polygon fill="#e0e0e0" stroke="#999999" points="137.07,-132 91.82,-132 91.82,-112 137.07,-112 137.07,-132"/>
<text xml:space="preserve" text-anchor="middle" x="114.44" y="-118.5" font-family="Helvetica,sans-Serif" font-size="10.00">cctype</text>
</a>
</g>
</g>
<!-- Node1&#45;&gt;Node4 -->
<g id="edge3_Node000001_Node000004" class="edge">
<title>Node1&#45;&gt;Node4</title>
<g id="a_edge3_Node000001_Node000004"><a xlink:title=" ">
<path fill="none" stroke="#63b8ff" d="M85.54,-167.59C90.15,-160.47 96.65,-150.45 102.31,-141.72"/>
<polygon fill="#63b8ff" stroke="#63b8ff" points="105.09,-143.86 107.59,-133.57 99.22,-140.06 105.09,-143.86"/>
</a>
</g>
</g>
<!-- Node5 -->
<g id="Node000005" class="node">
<title>Node5</title>
<g id="a_Node000005"><a xlink:href="_reserva_8h.html" target="_top" xlink:title=" ">
<polygon fill="white" stroke="#666666" points="215.94,-132 154.94,-132 154.94,-112 215.94,-112 215.94,-132"/>
<text xml:space="preserve" text-anchor="middle" x="185.44" y="-118.5" font-family="Helvetica,sans-Serif" font-size="10.00">Reserva.h</text>
</a>
</g>
</g>
<!-- Node1&#45;&gt;Node5 -->
<g id="edge4_Node000001_Node000005" class="edge">
<title>Node1&#45;&gt;Node5</title>
<g id="a_edge4_Node000001_Node000005"><a xlink:title=" ">
<path fill="none" stroke="#63b8ff" d="M97.9,-167.59C114.14,-159.32 138.05,-147.14 156.77,-137.6"/>
<polygon fill="#63b8ff" stroke="#63b8ff" points="158.16,-140.82 165.48,-133.17 154.99,-134.59 158.16,-140.82"/>
</a>
</g>
</g>
<!-- Node6 -->
<g id="Node000006" class="node">
<title>Node6</title>
<g id="a_Node000006"><a xlink:title=" ">
<polygon fill="#e0e0e0" stroke="#999999" points="176.44,-20 136.44,-20 136.44,0 176.44,0 176.44,-20"/>
<text xml:space="preserve" text-anchor="middle" x="156.44" y="-6.5" font-family="Helvetica,sans-Serif" font-size="10.00">string</text>
</a>
</g>
</g>
<!-- Node5&#45;&gt;Node6 -->
<g id="edge5_Node000005_Node000006" class="edge">
<title>Node5&#45;&gt;Node6</title>
<g id="a_edge5_Node000005_Node000006"><a xlink:title=" ">
<path fill="none" stroke="#63b8ff" d="M182.97,-111.62C178.3,-93.92 168.1,-55.24 161.8,-31.32"/>
<polygon fill="#63b8ff" stroke="#63b8ff" points="165.23,-30.6 159.29,-21.82 158.46,-32.38 165.23,-30.6"/>
</a>
</g>
</g>
<!-- Node7 -->
<g id="Node000007" class="node">
<title>Node7</title>
<g id="a_Node000007"><a xlink:href="_hospede_8h.html" target="_top" xlink:title=" ">
<polygon fill="white" stroke="#666666" points="128.07,-76 64.82,-76 64.82,-56 128.07,-56 128.07,-76"/>
<text xml:space="preserve" text-anchor="middle" x="96.44" y="-62.5" font-family="Helvetica,sans-Serif" font-size="10.00">Hospede.h</text>
</a>
</g>
</g>
<!-- Node5&#45;&gt;Node7 -->
<g id="edge6_Node000005_Node000007" class="edge">
<title>Node5&#45;&gt;Node7</title>
<g id="a_edge6_Node000005_Node000007"><a xlink:title=" ">
<path fill="none" stroke="#63b8ff" d="M169.94,-111.59C156.62,-103.51 137.16,-91.71 121.61,-82.27"/>
<polygon fill="#63b8ff" stroke="#63b8ff" points="123.72,-79.46 113.36,-77.26 120.09,-85.44 123.72,-79.46"/>
</a>
</g>
</g>
<!-- Node8 -->
<g id="Node000008" class="node">
<title>Node8</title>
<g id="a_Node000008"><a xlink:href="_quartos_8h.html" target="_top" xlink:title=" ">
<polygon fill="white" stroke="#666666" points="242.82,-76 184.07,-76 184.07,-56 242.82,-56 242.82,-76"/>
<text xml:space="preserve" text-anchor="middle" x="213.44" y="-62.5" font-family="Helvetica,sans-Serif" font-size="10.00">Quartos.h</text>
</a>
</g>
</g>
<!-- Node5&#45;&gt;Node8 -->
<g id="edge9_Node000005_Node000008" class="edge">
<title>Node5&#45;&gt;Node8</title>
<g id="a_edge9_Node000005_Node000008"><a xlink:title=" ">
<path fill="none" stroke="#63b8ff" d="M190.32,-111.59C193.93,-104.63 198.98,-94.89 203.44,-86.29"/>
<polygon fill="#63b8ff" stroke="#63b8ff" points="206.43,-88.13 207.92,-77.64 200.21,-84.91 206.43,-88.13"/>
</a>
</g>
</g>
<!-- Node7&#45;&gt;Node2 -->
<g id="edge7_Node000007_Node000002" class="edge">
<title>Node7&#45;&gt;Node2</title>
<g id="a_edge7_Node000007_Node000002"><a xlink:title=" ">
<path fill="none" stroke="#63b8ff" d="M88.95,-55.59C83.15,-48.32 74.95,-38.02 67.89,-29.15"/>
<polygon fill="#63b8ff" stroke="#63b8ff" points="70.76,-27.12 61.79,-21.48 65.28,-31.49 70.76,-27.12"/>
</a>
</g>
</g>
<!-- Node7&#45;&gt;Node6 -->
<g id="edge8_Node000007_Node000006" class="edge">
<title>Node7&#45;&gt;Node6</title>
<g id="a_edge8_Node000007_Node000006"><a xlink:title=" ">
<path fill="none" stroke="#63b8ff" d="M106.89,-55.59C115.41,-47.93 127.65,-36.91 137.83,-27.75"/>
<polygon fill="#63b8ff" stroke="#63b8ff" points="139.89,-30.6 144.98,-21.31 135.21,-25.4 139.89,-30.6"/>
</a>
</g>
</g>
<!-- Node8&#45;&gt;Node6 -->
<g id="edge10_Node000008_Node000006" class="edge">
<title>Node8&#45;&gt;Node6</title>
<g id="a_edge10_Node000008_Node000006"><a xlink:title=" ">
<path fill="none" stroke="#63b8ff" d="M203.51,-55.59C195.5,-48.01 184.03,-37.13 174.41,-28.02"/>
<polygon fill="#63b8ff" stroke="#63b8ff" points="177.02,-25.68 167.35,-21.34 172.21,-30.76 177.02,-25.68"/>
</a>
</g>
</g>
</g>
</svg>
