<?xml version="1.0" encoding="UTF-8" standalone="no"?>
<!DOCTYPE svg PUBLIC "-//W3C//DTD SVG 1.1//EN"
 "http://www.w3.org/Graphics/SVG/1.1/DTD/svg11.dtd">
<!-- Generated by graphviz version 14.0.2 (20251019.1705)
 -->
<!-- Title: include/Reserva.h Pages: 1 -->
<svg width="272pt" height="140pt"
 viewBox="0.00 0.00 272.00 140.00" xmlns="http://www.w3.org/2000/svg" xmlns:xlink="http://www.w3.org/1999/xlink">

<svg id="main" version="1.1" xmlns="http://www.w3.org/2000/svg" xmlns:xlink="http://www.w3.org/1999/xlink" xml:space="preserve">

<style type="text/css"><![CDATA[
.node, .edge {opacity: 0.7;}
.node.selected, .edge.selected {opacity: 1;}
.edge:hover path { stroke: red; }
.edge:hover polygon { stroke: red; fill: red; }
]]></style>
<script type="application/ecmascript" xlink:href="svg.min.js"/>
<svg id="graph" class="graph">
<g id="graph0" class="graph" transform="scale(1 1) rotate(0) translate(4 136)">
<title>include/Reserva.h</title>
<!-- Node1 -->
<g id="Node000001" class="node">
<title>Node1</title>
<g id="a_Node000001"><a xlink:title=" ">
<polygon fill="#999999" stroke="#666666" points="157.25,-132 62.5,-132 62.5,-112 157.25,-112 157.25,-132"/>
<text xml:space="preserve" text-anchor="middle" x="109.88" y="-118.5" font-family="Helvetica,sans-Serif" font-size="10.00">include/Reserva.h</text>
</a>
</g>
</g>
<!-- Node2 -->
<g id="Node000002" class="node">
<title>Node2</title>
<g id="a_Node000002"><a xlink:href="_sistema_8h.html" target="_top" xlink:title=" ">
<polygon fill="white" stroke="#666666" points="119.88,-76 25.87,-76 25.87,-56 119.88,-56 119.88,-76"/>
<text xml:space="preserve" text-anchor="middle" x="72.88" y="-62.5" font-family="Helvetica,sans-Serif" font-size="10.00">include/Sistema.h</text>
</a>
</g>
</g>
<!-- Node1&#45;&gt;Node2 -->
<g id="edge1_Node000001_Node000002" class="edge">
<title>Node1&#45;&gt;Node2</title>
<g id="a_edge1_Node000001_Node000002"><a xlink:title=" ">
<path fill="none" stroke="#63b8ff" d="M96.96,-102.15C90.97,-93.4 84.11,-83.39 79.25,-76.3"/>
<polygon fill="#63b8ff" stroke="#63b8ff" points="94.03,-104.07 102.57,-110.35 99.81,-100.12 94.03,-104.07"/>
</a>
</g>
</g>
<!-- Node3 -->
<g id="Node000003" class="node">
<title>Node3</title>
<g id="a_Node000003"><a xlink:href="main_8cpp.html" target="_top" xlink:title="Ponto de entrada do sistema de gerenciamento de hotel.">
<polygon fill="white" stroke="#666666" points="55.75,-20 0,-20 0,0 55.75,0 55.75,-20"/>
<text xml:space="preserve" text-anchor="middle" x="27.88" y="-6.5" font-family="Helvetica,sans-Serif" font-size="10.00">main.cpp</text>
</a>
</g>
</g>
<!-- Node1&#45;&gt;Node3 -->
<g id="edge4_Node000001_Node000003" class="edge">
<title>Node1&#45;&gt;Node3</title>
<g id="a_edge4_Node000001_Node000003"><a xlink:title=" ">
<path fill="none" stroke="#63b8ff" d="M57.41,-107.5C41.64,-100.73 26.1,-90.71 16.88,-76 5.93,-58.55 15.82,-33.5 22.65,-20.17"/>
<polygon fill="#63b8ff" stroke="#63b8ff" points="55.74,-110.61 66.33,-110.95 58.27,-104.08 55.74,-110.61"/>
</a>
</g>
</g>
<!-- Node4 -->
<g id="Node000004" class="node">
<title>Node4</title>
<g id="a_Node000004"><a xlink:href="_sistema_8cpp.html" target="_top" xlink:title=" ">
<polygon fill="white" stroke="#666666" points="176.5,-20 89.25,-20 89.25,0 176.5,0 176.5,-20"/>
<text xml:space="preserve" text-anchor="middle" x="132.88" y="-6.5" font-family="Helvetica,sans-Serif" font-size="10.00">src/Sistema.cpp</text>
</a>
</g>
</g>
<!-- Node1&#45;&gt;Node4 -->
<g id="edge6_Node000001_Node000004" class="edge">
<title>Node1&#45;&gt;Node4</title>
<g id="a_edge6_Node000001_Node000004"><a xlink:title=" ">
<path fill="none" stroke="#63b8ff" d="M119.8,-101.51C123.29,-93.76 126.84,-84.65 128.88,-76 133.42,-56.63 133.61,-33.17 133.28,-20.4"/>
<polygon fill="#63b8ff" stroke="#63b8ff" points="116.76,-99.77 115.58,-110.3 123.07,-102.8 116.76,-99.77"/>
</a>
</g>
</g>
<!-- Node5 -->
<g id="Node000005" class="node">
<title>Node5</title>
<g id="a_Node000005"><a xlink:href="_reserva_8cpp.html" target="_top" xlink:title=" ">
<polygon fill="white" stroke="#666666" points="263.88,-76 175.88,-76 175.88,-56 263.88,-56 263.88,-76"/>
<text xml:space="preserve" text-anchor="middle" x="219.88" y="-62.5" font-family="Helvetica,sans-Serif" font-size="10.00">src/Reserva.cpp</text>
</a>
</g>
</g>
<!-- Node1&#45;&gt;Node5 -->
<g id="edge5_Node000001_Node000005" class="edge">
<title>Node1&#45;&gt;Node5</title>
<g id="a_edge5_Node000001_Node000005"><a xlink:title=" ">
<path fill="none" stroke="#63b8ff" d="M139.18,-106.61C158.62,-97.07 183.59,-84.81 200.56,-76.48"/>
<polygon fill="#63b8ff" stroke="#63b8ff" points="137.83,-103.38 130.39,-110.93 140.91,-109.66 137.83,-103.38"/>
</a>
</g>
</g>
<!-- Node2&#45;&gt;Node3 -->
<g id="edge2_Node000002_Node000003" class="edge">
<title>Node2&#45;&gt;Node3</title>
<g id="a_edge2_Node000002_Node000003"><a xlink:title=" ">
<path fill="none" stroke="#63b8ff" d="M57.88,-47C50.42,-38.06 41.73,-27.62 35.62,-20.3"/>
<polygon fill="#63b8ff" stroke="#63b8ff" points="54.98,-48.99 64.07,-54.43 60.35,-44.51 54.98,-48.99"/>
</a>
</g>
</g>
<!-- Node2&#45;&gt;Node4 -->
<g id="edge3_Node000002_Node000004" class="edge">
<title>Node2&#45;&gt;Node4</title>
<g id="a_edge3_Node000002_Node000004"><a xlink:title=" ">
<path fill="none" stroke="#63b8ff" d="M91.62,-48.13C101.83,-38.94 114.06,-27.93 122.54,-20.3"/>
<polygon fill="#63b8ff" stroke="#63b8ff" points="89.54,-45.29 84.45,-54.58 94.23,-50.49 89.54,-45.29"/>
</a>
</g>
</g>
</g>
</svg>
</svg>

<style type='text/css'>
<![CDATA[
[data-mouse-over-selected='false'] { opacity: 0.7; }
[data-mouse-over-selected='true']  { opacity: 1.0; }
]]>
</style>
<script type="application/ecmascript"><![CDATA[
document.addEventListener('DOMContentLoaded', (event) => {
  highlightEdges();
  highlightAdjacentNodes();
});
]]></script>
</svg>
