<?xml version="1.0" encoding="UTF-8" standalone="no"?>
<!DOCTYPE svg PUBLIC "-//W3C//DTD SVG 1.1//EN"
 "http://www.w3.org/Graphics/SVG/1.1/DTD/svg11.dtd">
<!-- Generated by graphviz version 14.0.2 (20251019.1705)
 -->
<!-- Title: src/Sistema.cpp Pages: 1 -->
<svg width="217pt" height="252pt"
 viewBox="0.00 0.00 217.00 252.00" xmlns="http://www.w3.org/2000/svg" xmlns:xlink="http://www.w3.org/1999/xlink">
<g id="graph0" class="graph" transform="scale(1 1) rotate(0) translate(4 248)">
<title>src/Sistema.cpp</title>
<!-- Node1 -->
<g id="Node000001" class="node">
<title>Node1</title>
<g id="a_Node000001"><a xlink:title=" ">
<polygon fill="#999999" stroke="#666666" points="123.38,-244 36.12,-244 36.12,-224 123.38,-224 123.38,-244"/>
<text xml:space="preserve" text-anchor="middle" x="79.75" y="-230.5" font-family="Helvetica,sans-Serif" font-size="10.00">src/Sistema.cpp</text>
</a>
</g>
</g>
<!-- Node2 -->
<g id="Node000002" class="node">
<title>Node2</title>
<g id="a_Node000002"><a xlink:title=" ">
<polygon fill="#e0e0e0" stroke="#999999" points="53.5,-20 0,-20 0,0 53.5,0 53.5,-20"/>
<text xml:space="preserve" text-anchor="middle" x="26.75" y="-6.5" font-family="Helvetica,sans-Serif" font-size="10.00">iostream</text>
</a>
</g>
</g>
<!-- Node1&#45;&gt;Node2 -->
<g id="edge1_Node000001_Node000002" class="edge">
<title>Node1&#45;&gt;Node2</title>
<g id="a_edge1_Node000001_Node000002"><a xlink:title=" ">
<path fill="none" stroke="#63b8ff" d="M73.16,-223.68C57.04,-200.25 15.94,-136.45 1.75,-76 -0.28,-67.35 -0.48,-64.6 1.75,-56 4.12,-46.84 8.81,-37.56 13.49,-29.83"/>
<polygon fill="#63b8ff" stroke="#63b8ff" points="16.28,-31.95 18.82,-21.66 10.42,-28.12 16.28,-31.95"/>
</a>
</g>
</g>
<!-- Node3 -->
<g id="Node000003" class="node">
<title>Node3</title>
<g id="a_Node000003"><a xlink:href="_sistema_8h.html" target="_top" xlink:title=" ">
<polygon fill="white" stroke="#666666" points="173.88,-188 113.62,-188 113.62,-168 173.88,-168 173.88,-188"/>
<text xml:space="preserve" text-anchor="middle" x="143.75" y="-174.5" font-family="Helvetica,sans-Serif" font-size="10.00">Sistema.h</text>
</a>
</g>
</g>
<!-- Node1&#45;&gt;Node3 -->
<g id="edge2_Node000001_Node000003" class="edge">
<title>Node1&#45;&gt;Node3</title>
<g id="a_edge2_Node000001_Node000003"><a xlink:title=" ">
<path fill="none" stroke="#63b8ff" d="M90.9,-223.59C100.08,-215.85 113.3,-204.69 124.23,-195.47"/>
<polygon fill="#63b8ff" stroke="#63b8ff" points="126.19,-198.4 131.57,-189.27 121.67,-193.05 126.19,-198.4"/>
</a>
</g>
</g>
<!-- Node8 -->
<g id="Node000008" class="node">
<title>Node8</title>
<g id="a_Node000008"><a xlink:href="_reserva_8h.html" target="_top" xlink:title=" ">
<polygon fill="white" stroke="#666666" points="110.25,-132 49.25,-132 49.25,-112 110.25,-112 110.25,-132"/>
<text xml:space="preserve" text-anchor="middle" x="79.75" y="-118.5" font-family="Helvetica,sans-Serif" font-size="10.00">Reserva.h</text>
</a>
</g>
</g>
<!-- Node1&#45;&gt;Node8 -->
<g id="edge14_Node000001_Node000008" class="edge">
<title>Node1&#45;&gt;Node8</title>
<g id="a_edge14_Node000001_Node000008"><a xlink:title=" ">
<path fill="none" stroke="#63b8ff" d="M79.75,-223.62C79.75,-206.01 79.75,-167.59 79.75,-143.65"/>
<polygon fill="#63b8ff" stroke="#63b8ff" points="83.25,-143.87 79.75,-133.87 76.25,-143.87 83.25,-143.87"/>
</a>
</g>
</g>
<!-- Node4 -->
<g id="Node000004" class="node">
<title>Node4</title>
<g id="a_Node000004"><a xlink:title=" ">
<polygon fill="#e0e0e0" stroke="#999999" points="171.25,-132 128.25,-132 128.25,-112 171.25,-112 171.25,-132"/>
<text xml:space="preserve" text-anchor="middle" x="149.75" y="-118.5" font-family="Helvetica,sans-Serif" font-size="10.00">vector</text>
</a>
</g>
</g>
<!-- Node3&#45;&gt;Node4 -->
<g id="edge3_Node000003_Node000004" class="edge">
<title>Node3&#45;&gt;Node4</title>
<g id="a_edge3_Node000003_Node000004"><a xlink:title=" ">
<path fill="none" stroke="#63b8ff" d="M144.8,-167.59C145.53,-161.01 146.53,-151.96 147.45,-143.73"/>
<polygon fill="#63b8ff" stroke="#63b8ff" points="150.92,-144.13 148.55,-133.8 143.97,-143.35 150.92,-144.13"/>
</a>
</g>
</g>
<!-- Node5 -->
<g id="Node000005" class="node">
<title>Node5</title>
<g id="a_Node000005"><a xlink:title=" ">
<polygon fill="#e0e0e0" stroke="#999999" points="138.75,-20 98.75,-20 98.75,0 138.75,0 138.75,-20"/>
<text xml:space="preserve" text-anchor="middle" x="118.75" y="-6.5" font-family="Helvetica,sans-Serif" font-size="10.00">string</text>
</a>
</g>
</g>
<!-- Node3&#45;&gt;Node5 -->
<g id="edge4_Node000003_Node000005" class="edge">
<title>Node3&#45;&gt;Node5</title>
<g id="a_edge4_Node000003_Node000005"><a xlink:title=" ">
<path fill="none" stroke="#63b8ff" d="M160.64,-167.6C172.8,-159.81 188.33,-147.51 195.75,-132 210.34,-101.52 214.73,-85.21 197.75,-56 187.37,-38.14 166.96,-26.79 149.49,-19.95"/>
<polygon fill="#63b8ff" stroke="#63b8ff" points="151.13,-16.81 140.53,-16.76 148.78,-23.41 151.13,-16.81"/>
</a>
</g>
</g>
<!-- Node6 -->
<g id="Node000006" class="node">
<title>Node6</title>
<g id="a_Node000006"><a xlink:href="_hospede_8h.html" target="_top" xlink:title=" ">
<polygon fill="white" stroke="#666666" points="74.38,-76 11.12,-76 11.12,-56 74.38,-56 74.38,-76"/>
<text xml:space="preserve" text-anchor="middle" x="42.75" y="-62.5" font-family="Helvetica,sans-Serif" font-size="10.00">Hospede.h</text>
</a>
</g>
</g>
<!-- Node3&#45;&gt;Node6 -->
<g id="edge5_Node000003_Node000006" class="edge">
<title>Node3&#45;&gt;Node6</title>
<g id="a_edge5_Node000003_Node000006"><a xlink:title=" ">
<path fill="none" stroke="#63b8ff" d="M113.36,-172.93C88.87,-167.87 55.95,-156.66 39.75,-132 31.12,-118.86 32.76,-100.78 36.06,-87.03"/>
<polygon fill="#63b8ff" stroke="#63b8ff" points="39.33,-88.32 38.74,-77.75 32.6,-86.38 39.33,-88.32"/>
</a>
</g>
</g>
<!-- Node7 -->
<g id="Node000007" class="node">
<title>Node7</title>
<g id="a_Node000007"><a xlink:href="_quartos_8h.html" target="_top" xlink:title=" ">
<polygon fill="white" stroke="#666666" points="189.12,-76 130.38,-76 130.38,-56 189.12,-56 189.12,-76"/>
<text xml:space="preserve" text-anchor="middle" x="159.75" y="-62.5" font-family="Helvetica,sans-Serif" font-size="10.00">Quartos.h</text>
</a>
</g>
</g>
<!-- Node3&#45;&gt;Node7 -->
<g id="edge8_Node000003_Node000007" class="edge">
<title>Node3&#45;&gt;Node7</title>
<g id="a_edge8_Node000003_Node000007"><a xlink:title=" ">
<path fill="none" stroke="#63b8ff" d="M154.9,-167.59C163.81,-159.28 175.63,-146.28 180.75,-132 186.25,-116.65 179.78,-99.04 172.62,-86.02"/>
<polygon fill="#63b8ff" stroke="#63b8ff" points="175.68,-84.31 167.47,-77.61 169.71,-87.97 175.68,-84.31"/>
</a>
</g>
</g>
<!-- Node3&#45;&gt;Node8 -->
<g id="edge10_Node000003_Node000008" class="edge">
<title>Node3&#45;&gt;Node8</title>
<g id="a_edge10_Node000003_Node000008"><a xlink:title=" ">
<path fill="none" stroke="#63b8ff" d="M132.6,-167.59C123.42,-159.85 110.2,-148.69 99.27,-139.47"/>
<polygon fill="#63b8ff" stroke="#63b8ff" points="101.83,-137.05 91.93,-133.27 97.31,-142.4 101.83,-137.05"/>
</a>
</g>
</g>
<!-- Node6&#45;&gt;Node2 -->
<g id="edge6_Node000006_Node000002" class="edge">
<title>Node6&#45;&gt;Node2</title>
<g id="a_edge6_Node000006_Node000002"><a xlink:title=" ">
<path fill="none" stroke="#63b8ff" d="M39.96,-55.59C37.97,-48.86 35.2,-39.53 32.72,-31.15"/>
<polygon fill="#63b8ff" stroke="#63b8ff" points="36.13,-30.34 29.94,-21.75 29.42,-32.33 36.13,-30.34"/>
</a>
</g>
</g>
<!-- Node6&#45;&gt;Node5 -->
<g id="edge7_Node000006_Node000005" class="edge">
<title>Node6&#45;&gt;Node5</title>
<g id="a_edge7_Node000006_Node000005"><a xlink:title=" ">
<path fill="none" stroke="#63b8ff" d="M55.99,-55.59C67.04,-47.74 83.03,-36.38 96.11,-27.09"/>
<polygon fill="#63b8ff" stroke="#63b8ff" points="98.05,-30 104.17,-21.36 94,-24.3 98.05,-30"/>
</a>
</g>
</g>
<!-- Node7&#45;&gt;Node5 -->
<g id="edge9_Node000007_Node000005" class="edge">
<title>Node7&#45;&gt;Node5</title>
<g id="a_edge9_Node000007_Node000005"><a xlink:title=" ">
<path fill="none" stroke="#63b8ff" d="M152.61,-55.59C147.14,-48.39 139.43,-38.23 132.74,-29.43"/>
<polygon fill="#63b8ff" stroke="#63b8ff" points="135.56,-27.35 126.73,-21.5 129.98,-31.58 135.56,-27.35"/>
</a>
</g>
</g>
<!-- Node8&#45;&gt;Node5 -->
<g id="edge11_Node000008_Node000005" class="edge">
<title>Node8&#45;&gt;Node5</title>
<g id="a_edge11_Node000008_Node000005"><a xlink:title=" ">
<path fill="none" stroke="#63b8ff" d="M83.08,-111.62C89.38,-93.84 103.19,-54.88 111.66,-31"/>
<polygon fill="#63b8ff" stroke="#63b8ff" points="114.88,-32.38 114.93,-21.78 108.29,-30.04 114.88,-32.38"/>
</a>
</g>
</g>
<!-- Node8&#45;&gt;Node6 -->
<g id="edge12_Node000008_Node000006" class="edge">
<title>Node8&#45;&gt;Node6</title>
<g id="a_edge12_Node000008_Node000006"><a xlink:title=" ">
<path fill="none" stroke="#63b8ff" d="M73.31,-111.59C68.42,-104.47 61.56,-94.45 55.57,-85.72"/>
<polygon fill="#63b8ff" stroke="#63b8ff" points="58.52,-83.82 49.98,-77.55 52.74,-87.77 58.52,-83.82"/>
</a>
</g>
</g>
<!-- Node8&#45;&gt;Node7 -->
<g id="edge13_Node000008_Node000007" class="edge">
<title>Node8&#45;&gt;Node7</title>
<g id="a_edge13_Node000008_Node000007"><a xlink:title=" ">
<path fill="none" stroke="#63b8ff" d="M93.68,-111.59C105.43,-103.67 122.48,-92.16 136.32,-82.82"/>
<polygon fill="#63b8ff" stroke="#63b8ff" points="138.12,-85.82 144.45,-77.33 134.21,-80.02 138.12,-85.82"/>
</a>
</g>
</g>
</g>
</svg>
