<?xml version="1.0" encoding="UTF-8" standalone="no"?>
<!DOCTYPE svg PUBLIC "-//W3C//DTD SVG 1.1//EN"
 "http://www.w3.org/Graphics/SVG/1.1/DTD/svg11.dtd">
<!-- Generated by graphviz version 14.0.2 (20251019.1705)
 -->
<!-- Title: include/Sistema.h Pages: 1 -->
<svg width="236pt" height="196pt"
 viewBox="0.00 0.00 236.00 196.00" xmlns="http://www.w3.org/2000/svg" xmlns:xlink="http://www.w3.org/1999/xlink">
<g id="graph0" class="graph" transform="scale(1 1) rotate(0) translate(4 192)">
<title>include/Sistema.h</title>
<!-- Node1 -->
<g id="Node000001" class="node">
<title>Node1</title>
<g id="a_Node000001"><a xlink:title=" ">
<polygon fill="#999999" stroke="#666666" points="177.5,-188 83.5,-188 83.5,-168 177.5,-168 177.5,-188"/>
<text xml:space="preserve" text-anchor="middle" x="130.5" y="-174.5" font-family="Helvetica,sans-Serif" font-size="10.00">include/Sistema.h</text>
</a>
</g>
</g>
<!-- Node2 -->
<g id="Node000002" class="node">
<title>Node2</title>
<g id="a_Node000002"><a xlink:title=" ">
<polygon fill="#e0e0e0" stroke="#999999" points="43,-132 0,-132 0,-112 43,-112 43,-132"/>
<text xml:space="preserve" text-anchor="middle" x="21.5" y="-118.5" font-family="Helvetica,sans-Serif" font-size="10.00">vector</text>
</a>
</g>
</g>
<!-- Node1&#45;&gt;Node2 -->
<g id="edge1_Node000001_Node000002" class="edge">
<title>Node1&#45;&gt;Node2</title>
<g id="a_edge1_Node000001_Node000002"><a xlink:title=" ">
<path fill="none" stroke="#63b8ff" d="M111.51,-167.59C94.74,-159.28 70.01,-147.03 50.71,-137.47"/>
<polygon fill="#63b8ff" stroke="#63b8ff" points="52.51,-134.45 41.99,-133.15 49.4,-140.73 52.51,-134.45"/>
</a>
</g>
</g>
<!-- Node3 -->
<g id="Node000003" class="node">
<title>Node3</title>
<g id="a_Node000003"><a xlink:title=" ">
<polygon fill="#e0e0e0" stroke="#999999" points="181.5,-20 141.5,-20 141.5,0 181.5,0 181.5,-20"/>
<text xml:space="preserve" text-anchor="middle" x="161.5" y="-6.5" font-family="Helvetica,sans-Serif" font-size="10.00">string</text>
</a>
</g>
</g>
<!-- Node1&#45;&gt;Node3 -->
<g id="edge2_Node000001_Node000003" class="edge">
<title>Node1&#45;&gt;Node3</title>
<g id="a_edge2_Node000001_Node000003"><a xlink:title=" ">
<path fill="none" stroke="#63b8ff" d="M145.79,-167.59C169.25,-152.04 212.75,-118.42 225.5,-76 228.06,-67.49 229.6,-63.89 225.5,-56 218.29,-42.11 204.61,-31.61 191.74,-24.26"/>
<polygon fill="#63b8ff" stroke="#63b8ff" points="193.56,-21.26 183.07,-19.74 190.32,-27.47 193.56,-21.26"/>
</a>
</g>
</g>
<!-- Node4 -->
<g id="Node000004" class="node">
<title>Node4</title>
<g id="a_Node000004"><a xlink:href="_hospede_8h.html" target="_top" xlink:title=" ">
<polygon fill="white" stroke="#666666" points="102.12,-76 38.88,-76 38.88,-56 102.12,-56 102.12,-76"/>
<text xml:space="preserve" text-anchor="middle" x="70.5" y="-62.5" font-family="Helvetica,sans-Serif" font-size="10.00">Hospede.h</text>
</a>
</g>
</g>
<!-- Node1&#45;&gt;Node4 -->
<g id="edge3_Node000001_Node000004" class="edge">
<title>Node1&#45;&gt;Node4</title>
<g id="a_edge3_Node000001_Node000004"><a xlink:title=" ">
<path fill="none" stroke="#63b8ff" d="M120.24,-167.53C111.52,-158.99 99.22,-145.69 91.5,-132 83.56,-117.92 78.13,-100.41 74.78,-87.11"/>
<polygon fill="#63b8ff" stroke="#63b8ff" points="78.28,-86.73 72.62,-77.78 71.46,-88.31 78.28,-86.73"/>
</a>
</g>
</g>
<!-- Node6 -->
<g id="Node000006" class="node">
<title>Node6</title>
<g id="a_Node000006"><a xlink:href="_quartos_8h.html" target="_top" xlink:title=" ">
<polygon fill="white" stroke="#666666" points="216.88,-76 158.12,-76 158.12,-56 216.88,-56 216.88,-76"/>
<text xml:space="preserve" text-anchor="middle" x="187.5" y="-62.5" font-family="Helvetica,sans-Serif" font-size="10.00">Quartos.h</text>
</a>
</g>
</g>
<!-- Node1&#45;&gt;Node6 -->
<g id="edge6_Node000001_Node000006" class="edge">
<title>Node1&#45;&gt;Node6</title>
<g id="a_edge6_Node000001_Node000006"><a xlink:title=" ">
<path fill="none" stroke="#63b8ff" d="M141.23,-167.69C150.31,-159.25 163.01,-146.01 170.5,-132 177.92,-118.13 182.24,-100.83 184.67,-87.56"/>
<polygon fill="#63b8ff" stroke="#63b8ff" points="188.1,-88.25 186.22,-77.82 181.19,-87.15 188.1,-88.25"/>
</a>
</g>
</g>
<!-- Node7 -->
<g id="Node000007" class="node">
<title>Node7</title>
<g id="a_Node000007"><a xlink:href="_reserva_8h.html" target="_top" xlink:title=" ">
<polygon fill="white" stroke="#666666" points="161,-132 100,-132 100,-112 161,-112 161,-132"/>
<text xml:space="preserve" text-anchor="middle" x="130.5" y="-118.5" font-family="Helvetica,sans-Serif" font-size="10.00">Reserva.h</text>
</a>
</g>
</g>
<!-- Node1&#45;&gt;Node7 -->
<g id="edge8_Node000001_Node000007" class="edge">
<title>Node1&#45;&gt;Node7</title>
<g id="a_edge8_Node000001_Node000007"><a xlink:title=" ">
<path fill="none" stroke="#63b8ff" d="M130.5,-167.59C130.5,-161.01 130.5,-151.96 130.5,-143.73"/>
<polygon fill="#63b8ff" stroke="#63b8ff" points="134,-143.81 130.5,-133.81 127,-143.81 134,-143.81"/>
</a>
</g>
</g>
<!-- Node4&#45;&gt;Node3 -->
<g id="edge5_Node000004_Node000003" class="edge">
<title>Node4&#45;&gt;Node3</title>
<g id="a_edge5_Node000004_Node000003"><a xlink:title=" ">
<path fill="none" stroke="#63b8ff" d="M86.35,-55.59C99.97,-47.51 119.86,-35.71 135.76,-26.27"/>
<polygon fill="#63b8ff" stroke="#63b8ff" points="137.41,-29.37 144.22,-21.25 133.84,-23.35 137.41,-29.37"/>
</a>
</g>
</g>
<!-- Node5 -->
<g id="Node000005" class="node">
<title>Node5</title>
<g id="a_Node000005"><a xlink:title=" ">
<polygon fill="#e0e0e0" stroke="#999999" points="97.25,-20 43.75,-20 43.75,0 97.25,0 97.25,-20"/>
<text xml:space="preserve" text-anchor="middle" x="70.5" y="-6.5" font-family="Helvetica,sans-Serif" font-size="10.00">iostream</text>
</a>
</g>
</g>
<!-- Node4&#45;&gt;Node5 -->
<g id="edge4_Node000004_Node000005" class="edge">
<title>Node4&#45;&gt;Node5</title>
<g id="a_edge4_Node000004_Node000005"><a xlink:title=" ">
<path fill="none" stroke="#63b8ff" d="M70.5,-55.59C70.5,-49.01 70.5,-39.96 70.5,-31.73"/>
<polygon fill="#63b8ff" stroke="#63b8ff" points="74,-31.81 70.5,-21.81 67,-31.81 74,-31.81"/>
</a>
</g>
</g>
<!-- Node6&#45;&gt;Node3 -->
<g id="edge7_Node000006_Node000003" class="edge">
<title>Node6&#45;&gt;Node3</title>
<g id="a_edge7_Node000006_Node000003"><a xlink:title=" ">
<path fill="none" stroke="#63b8ff" d="M182.97,-55.59C179.65,-48.7 175.03,-39.1 170.92,-30.57"/>
<polygon fill="#63b8ff" stroke="#63b8ff" points="174.13,-29.15 166.63,-21.66 167.82,-32.19 174.13,-29.15"/>
</a>
</g>
</g>
<!-- Node7&#45;&gt;Node3 -->
<g id="edge9_Node000007_Node000003" class="edge">
<title>Node7&#45;&gt;Node3</title>
<g id="a_edge9_Node000007_Node000003"><a xlink:title=" ">
<path fill="none" stroke="#63b8ff" d="M133.14,-111.62C138.13,-93.92 149.03,-55.24 155.77,-31.32"/>
<polygon fill="#63b8ff" stroke="#63b8ff" points="159.11,-32.39 158.45,-21.81 152.37,-30.49 159.11,-32.39"/>
</a>
</g>
</g>
<!-- Node7&#45;&gt;Node4 -->
<g id="edge10_Node000007_Node000004" class="edge">
<title>Node7&#45;&gt;Node4</title>
<g id="a_edge10_Node000007_Node000004"><a xlink:title=" ">
<path fill="none" stroke="#63b8ff" d="M120.05,-111.59C111.53,-103.93 99.29,-92.91 89.11,-83.75"/>
<polygon fill="#63b8ff" stroke="#63b8ff" points="91.73,-81.4 81.96,-77.31 87.05,-86.6 91.73,-81.4"/>
</a>
</g>
</g>
<!-- Node7&#45;&gt;Node6 -->
<g id="edge11_Node000007_Node000006" class="edge">
<title>Node7&#45;&gt;Node6</title>
<g id="a_edge11_Node000007_Node000006"><a xlink:title=" ">
<path fill="none" stroke="#63b8ff" d="M140.43,-111.59C148.44,-104.01 159.92,-93.13 169.53,-84.02"/>
<polygon fill="#63b8ff" stroke="#63b8ff" points="171.73,-86.76 176.59,-77.34 166.92,-81.68 171.73,-86.76"/>
</a>
</g>
</g>
</g>
</svg>
