<?xml version="1.0" encoding="UTF-8" standalone="no"?>
<!DOCTYPE svg PUBLIC "-//W3C//DTD SVG 1.1//EN"
 "http://www.w3.org/Graphics/SVG/1.1/DTD/svg11.dtd">
<!-- Generated by graphviz version 14.0.2 (20251019.1705)
 -->
<!-- Title: Hospede::HTelefone Pages: 1 -->
<svg width="379pt" height="166pt"
 viewBox="0.00 0.00 379.00 166.00" xmlns="http://www.w3.org/2000/svg" xmlns:xlink="http://www.w3.org/1999/xlink">

<svg id="main" version="1.1" xmlns="http://www.w3.org/2000/svg" xmlns:xlink="http://www.w3.org/1999/xlink" xml:space="preserve">

<style type="text/css"><![CDATA[
.node, .edge {opacity: 0.7;}
.node.selected, .edge.selected {opacity: 1;}
.edge:hover path { stroke: red; }
.edge:hover polygon { stroke: red; fill: red; }
]]></style>
<script type="application/ecmascript" xlink:href="svg.min.js"/>
<svg id="graph" class="graph">
<g id="graph0" class="graph" transform="scale(1 1) rotate(0) translate(4 162)">
<title>Hospede::HTelefone</title>
<!-- Node1 -->
<g id="Node000001" class="node">
<title>Node1</title>
<g id="a_Node000001"><a xlink:title="Retorna o número de telefone do hóspede.">
<polygon fill="#999999" stroke="#666666" points="370.5,-98 265.25,-98 265.25,-78 370.5,-78 370.5,-98"/>
<text xml:space="preserve" text-anchor="middle" x="317.88" y="-84.5" font-family="Helvetica,sans-Serif" font-size="10.00">Hospede::HTelefone</text>
</a>
</g>
</g>
<!-- Node2 -->
<g id="Node000002" class="node">
<title>Node2</title>
<g id="a_Node000002"><a xlink:href="class_sistema.html#a866bfc58977f5297921b099faae2c835" target="_top" xlink:title=" ">
<polygon fill="white" stroke="#666666" points="219.88,-158 82.38,-158 82.38,-138 219.88,-138 219.88,-158"/>
<text xml:space="preserve" text-anchor="middle" x="151.12" y="-144.5" font-family="Helvetica,sans-Serif" font-size="10.00">Sistema::cadastrarHospede</text>
</a>
</g>
</g>
<!-- Node1&#45;&gt;Node2 -->
<g id="edge1_Node000001_Node000002" class="edge">
<title>Node1&#45;&gt;Node2</title>
<g id="a_edge1_Node000001_Node000002"><a xlink:title=" ">
<path fill="none" stroke="#63b8ff" d="M282.76,-102.83C266.66,-109.62 247.1,-117.57 229.25,-124 215.92,-128.8 201.11,-133.55 188.05,-137.54"/>
<polygon fill="#63b8ff" stroke="#63b8ff" points="284.07,-106.08 291.9,-98.94 281.33,-99.64 284.07,-106.08"/>
</a>
</g>
</g>
<!-- Node3 -->
<g id="Node000003" class="node">
<title>Node3</title>
<g id="a_Node000003"><a xlink:href="main_8cpp.html#ae66f6b31b5ad750f1fe042a706a4e3d4" target="_top" xlink:title="Função principal do sistema de hotel.">
<polygon fill="white" stroke="#666666" points="37,-120 0,-120 0,-100 37,-100 37,-120"/>
<text xml:space="preserve" text-anchor="middle" x="18.5" y="-106.5" font-family="Helvetica,sans-Serif" font-size="10.00">main</text>
</a>
</g>
</g>
<!-- Node1&#45;&gt;Node3 -->
<g id="edge3_Node000001_Node000003" class="edge">
<title>Node1&#45;&gt;Node3</title>
<g id="a_edge3_Node000001_Node000003"><a xlink:title=" ">
<path fill="none" stroke="#63b8ff" d="M253.95,-92.65C185.19,-97.74 79.22,-105.58 37.38,-108.68"/>
<polygon fill="#63b8ff" stroke="#63b8ff" points="253.85,-96.17 263.57,-91.94 253.34,-89.19 253.85,-96.17"/>
</a>
</g>
</g>
<!-- Node4 -->
<g id="Node000004" class="node">
<title>Node4</title>
<g id="a_Node000004"><a xlink:href="class_sistema.html#a8f75885af16b3e03ee0e2e459c0c2404" target="_top" xlink:title=" ">
<polygon fill="white" stroke="#666666" points="229.25,-82 73,-82 73,-50 229.25,-50 229.25,-82"/>
<text xml:space="preserve" text-anchor="start" x="81" y="-68.5" font-family="Helvetica,sans-Serif" font-size="10.00">Sistema::mostrarDadosReserva</text>
<text xml:space="preserve" text-anchor="middle" x="151.12" y="-56.5" font-family="Helvetica,sans-Serif" font-size="10.00">Completa</text>
</a>
</g>
</g>
<!-- Node1&#45;&gt;Node4 -->
<g id="edge4_Node000001_Node000004" class="edge">
<title>Node1&#45;&gt;Node4</title>
<g id="a_edge4_Node000001_Node000004"><a xlink:title=" ">
<path fill="none" stroke="#63b8ff" d="M253.8,-79.58C245.87,-78.52 237.68,-77.42 229.56,-76.34"/>
<polygon fill="#63b8ff" stroke="#63b8ff" points="253.32,-83.04 263.7,-80.9 254.25,-76.11 253.32,-83.04"/>
</a>
</g>
</g>
<!-- Node5 -->
<g id="Node000005" class="node">
<title>Node5</title>
<g id="a_Node000005"><a xlink:href="class_sistema.html#af49ee03765c1fc70add0ca0bd35460ff" target="_top" xlink:title=" ">
<polygon fill="white" stroke="#666666" points="223.62,-32 78.62,-32 78.62,0 223.62,0 223.62,-32"/>
<text xml:space="preserve" text-anchor="start" x="86.62" y="-18.5" font-family="Helvetica,sans-Serif" font-size="10.00">Sistema::mostrarHospedePor</text>
<text xml:space="preserve" text-anchor="middle" x="151.12" y="-6.5" font-family="Helvetica,sans-Serif" font-size="10.00">Reserva</text>
</a>
</g>
</g>
<!-- Node1&#45;&gt;Node5 -->
<g id="edge6_Node000001_Node000005" class="edge">
<title>Node1&#45;&gt;Node5</title>
<g id="a_edge6_Node000001_Node000005"><a xlink:title=" ">
<path fill="none" stroke="#63b8ff" d="M289.74,-71.82C272.74,-62.09 250.16,-49.91 229.25,-41 222.13,-37.96 214.51,-35.08 206.93,-32.42"/>
<polygon fill="#63b8ff" stroke="#63b8ff" points="287.83,-74.75 298.23,-76.75 291.34,-68.7 287.83,-74.75"/>
</a>
</g>
</g>
<!-- Node2&#45;&gt;Node3 -->
<g id="edge2_Node000002_Node000003" class="edge">
<title>Node2&#45;&gt;Node3</title>
<g id="a_edge2_Node000002_Node000003"><a xlink:title=" ">
<path fill="none" stroke="#63b8ff" d="M103.2,-134.35C80.39,-127.71 54.31,-120.13 37.41,-115.21"/>
<polygon fill="#63b8ff" stroke="#63b8ff" points="102.05,-137.66 112.63,-137.09 104.01,-130.94 102.05,-137.66"/>
</a>
</g>
</g>
<!-- Node4&#45;&gt;Node3 -->
<g id="edge5_Node000004_Node000003" class="edge">
<title>Node4&#45;&gt;Node3</title>
<g id="a_edge5_Node000004_Node000003"><a xlink:title=" ">
<path fill="none" stroke="#63b8ff" d="M90.78,-85.99C71.3,-92.55 51.11,-99.35 37.21,-104.03"/>
<polygon fill="#63b8ff" stroke="#63b8ff" points="91.69,-89.38 100.05,-82.87 89.46,-82.74 91.69,-89.38"/>
</a>
</g>
</g>
</g>
</svg>
</svg>

<style type='text/css'>
<![CDATA[
[data-mouse-over-selected='false'] { opacity: 0.7; }
[data-mouse-over-selected='true']  { opacity: 1.0; }
]]>
</style>
<script type="application/ecmascript"><![CDATA[
document.addEventListener('DOMContentLoaded', (event) => {
  highlightEdges();
  highlightAdjacentNodes();
});
]]></script>
</svg>
