<?xml version="1.0" encoding="UTF-8" standalone="no"?>
<!DOCTYPE svg PUBLIC "-//W3C//DTD SVG 1.1//EN"
 "http://www.w3.org/Graphics/SVG/1.1/DTD/svg11.dtd">
<!-- Generated by graphviz version 14.0.2 (20251019.1705)
 -->
<!-- Title: Reserva::RCheckOut Pages: 1 -->
<svg width="384pt" height="78pt"
 viewBox="0.00 0.00 384.00 78.00" xmlns="http://www.w3.org/2000/svg" xmlns:xlink="http://www.w3.org/1999/xlink">

<svg id="main" version="1.1" xmlns="http://www.w3.org/2000/svg" xmlns:xlink="http://www.w3.org/1999/xlink" xml:space="preserve">

<style type="text/css"><![CDATA[
.node, .edge {opacity: 0.7;}
.node.selected, .edge.selected {opacity: 1;}
.edge:hover path { stroke: red; }
.edge:hover polygon { stroke: red; fill: red; }
]]></style>
<script type="application/ecmascript" xlink:href="svg.min.js"/>
<svg id="graph" class="graph">
<g id="graph0" class="graph" transform="scale(1 1) rotate(0) translate(4 74)">
<title>Reserva::RCheckOut</title>
<!-- Node1 -->
<g id="Node000001" class="node">
<title>Node1</title>
<g id="a_Node000001"><a xlink:title="Retorna a data de check&#45;out da reserva.">
<polygon fill="#999999" stroke="#666666" points="375.75,-48 265.25,-48 265.25,-28 375.75,-28 375.75,-48"/>
<text xml:space="preserve" text-anchor="middle" x="320.5" y="-34.5" font-family="Helvetica,sans-Serif" font-size="10.00">Reserva::RCheckOut</text>
</a>
</g>
</g>
<!-- Node2 -->
<g id="Node000002" class="node">
<title>Node2</title>
<g id="a_Node000002"><a xlink:href="class_sistema.html#ab5d01c8fea43349d61ff29453a8917e1" target="_top" xlink:title=" ">
<polygon fill="white" stroke="#666666" points="207.88,-70 94.38,-70 94.38,-50 207.88,-50 207.88,-70"/>
<text xml:space="preserve" text-anchor="middle" x="151.12" y="-56.5" font-family="Helvetica,sans-Serif" font-size="10.00">Sistema::criarReserva</text>
</a>
</g>
</g>
<!-- Node1&#45;&gt;Node2 -->
<g id="edge1_Node000001_Node000002" class="edge">
<title>Node1&#45;&gt;Node2</title>
<g id="a_edge1_Node000001_Node000002"><a xlink:title=" ">
<path fill="none" stroke="#63b8ff" d="M253.82,-46.63C238.74,-48.62 222.84,-50.71 208.2,-52.63"/>
<polygon fill="#63b8ff" stroke="#63b8ff" points="254.2,-50.11 263.66,-45.34 253.29,-43.17 254.2,-50.11"/>
</a>
</g>
</g>
<!-- Node4 -->
<g id="Node000004" class="node">
<title>Node4</title>
<g id="a_Node000004"><a xlink:href="class_sistema.html#a8f75885af16b3e03ee0e2e459c0c2404" target="_top" xlink:title=" ">
<polygon fill="white" stroke="#666666" points="229.25,-32 73,-32 73,0 229.25,0 229.25,-32"/>
<text xml:space="preserve" text-anchor="start" x="81" y="-18.5" font-family="Helvetica,sans-Serif" font-size="10.00">Sistema::mostrarDadosReserva</text>
<text xml:space="preserve" text-anchor="middle" x="151.12" y="-6.5" font-family="Helvetica,sans-Serif" font-size="10.00">Completa</text>
</a>
</g>
</g>
<!-- Node1&#45;&gt;Node4 -->
<g id="edge3_Node000001_Node000004" class="edge">
<title>Node1&#45;&gt;Node4</title>
<g id="a_edge3_Node000001_Node000004"><a xlink:title=" ">
<path fill="none" stroke="#63b8ff" d="M253.75,-29.36C245.82,-28.32 237.67,-27.24 229.6,-26.18"/>
<polygon fill="#63b8ff" stroke="#63b8ff" points="253.29,-32.83 263.66,-30.66 254.2,-25.89 253.29,-32.83"/>
</a>
</g>
</g>
<!-- Node3 -->
<g id="Node000003" class="node">
<title>Node3</title>
<g id="a_Node000003"><a xlink:href="main_8cpp.html#ae66f6b31b5ad750f1fe042a706a4e3d4" target="_top" xlink:title="Função principal do sistema de hotel.">
<polygon fill="white" stroke="#666666" points="37,-48 0,-48 0,-28 37,-28 37,-48"/>
<text xml:space="preserve" text-anchor="middle" x="18.5" y="-34.5" font-family="Helvetica,sans-Serif" font-size="10.00">main</text>
</a>
</g>
</g>
<!-- Node2&#45;&gt;Node3 -->
<g id="edge2_Node000002_Node000003" class="edge">
<title>Node2&#45;&gt;Node3</title>
<g id="a_edge2_Node000002_Node000003"><a xlink:title=" ">
<path fill="none" stroke="#63b8ff" d="M82.94,-48.68C66.12,-45.85 49.47,-43.05 37.45,-41.02"/>
<polygon fill="#63b8ff" stroke="#63b8ff" points="82.04,-52.08 92.48,-50.29 83.2,-45.18 82.04,-52.08"/>
</a>
</g>
</g>
<!-- Node4&#45;&gt;Node3 -->
<g id="edge4_Node000004_Node000003" class="edge">
<title>Node4&#45;&gt;Node3</title>
<g id="a_edge4_Node000004_Node000003"><a xlink:title=" ">
<path fill="none" stroke="#63b8ff" d="M61.42,-30.94C52.47,-32.45 44.18,-33.84 37.39,-34.99"/>
<polygon fill="#63b8ff" stroke="#63b8ff" points="61.86,-34.42 71.14,-29.3 60.7,-27.51 61.86,-34.42"/>
</a>
</g>
</g>
</g>
</svg>
</svg>

<style type='text/css'>
<![CDATA[
[data-mouse-over-selected='false'] { opacity: 0.7; }
[data-mouse-over-selected='true']  { opacity: 1.0; }
]]>
</style>
<script type="application/ecmascript"><![CDATA[
document.addEventListener('DOMContentLoaded', (event) => {
  highlightEdges();
  highlightAdjacentNodes();
});
]]></script>
</svg>
