<?xml version="1.0" encoding="UTF-8" standalone="no"?>
<!DOCTYPE svg PUBLIC "-//W3C//DTD SVG 1.1//EN"
 "http://www.w3.org/Graphics/SVG/1.1/DTD/svg11.dtd">
<!-- Generated by graphviz version 14.0.2 (20251019.1705)
 -->
<!-- Title: Sistema::mostrarDadosReservaCompleta Pages: 1 -->
<svg width="339pt" height="534pt"
 viewBox="0.00 0.00 339.00 534.00" xmlns="http://www.w3.org/2000/svg" xmlns:xlink="http://www.w3.org/1999/xlink">
<g id="graph0" class="graph" transform="scale(1 1) rotate(0) translate(4 530)">
<title>Sistema::mostrarDadosReservaCompleta</title>
<!-- Node1 -->
<g id="Node000001" class="node">
<title>Node1</title>
<g id="a_Node000001"><a xlink:title=" ">
<polygon fill="#999999" stroke="#666666" points="156.25,-273 0,-273 0,-241 156.25,-241 156.25,-273"/>
<text xml:space="preserve" text-anchor="start" x="8" y="-259.5" font-family="Helvetica,sans-Serif" font-size="10.00">Sistema::mostrarDadosReserva</text>
<text xml:space="preserve" text-anchor="middle" x="78.12" y="-247.5" font-family="Helvetica,sans-Serif" font-size="10.00">Completa</text>
</a>
</g>
</g>
<!-- Node2 -->
<g id="Node000002" class="node">
<title>Node2</title>
<g id="a_Node000002"><a xlink:href="class_sistema.html#a37638daf36679a06734878b25c77002d" target="_top" xlink:title=" ">
<polygon fill="white" stroke="#666666" points="331.25,-526 192.25,-526 192.25,-494 331.25,-494 331.25,-526"/>
<text xml:space="preserve" text-anchor="start" x="200.25" y="-512.5" font-family="Helvetica,sans-Serif" font-size="10.00">Sistema::buscarReservaPor</text>
<text xml:space="preserve" text-anchor="middle" x="261.75" y="-500.5" font-family="Helvetica,sans-Serif" font-size="10.00">Numero</text>
</a>
</g>
</g>
<!-- Node1&#45;&gt;Node2 -->
<g id="edge1_Node000001_Node000002" class="edge">
<title>Node1&#45;&gt;Node2</title>
<g id="a_edge1_Node000001_Node000002"><a xlink:title=" ">
<path fill="none" stroke="#63b8ff" d="M82.77,-273.35C92.82,-314.72 124.75,-424.59 192.25,-485 193.17,-485.82 194.12,-486.62 195.09,-487.39"/>
<polygon fill="#63b8ff" stroke="#63b8ff" points="192.95,-490.17 203.21,-492.82 196.84,-484.35 192.95,-490.17"/>
</a>
</g>
</g>
<!-- Node3 -->
<g id="Node000003" class="node">
<title>Node3</title>
<g id="a_Node000003"><a xlink:href="class_hospede.html#a22dc1c4cb834a9717076bbc4679639e4" target="_top" xlink:title="Retorna o endereço de e&#45;mail do hóspede.">
<polygon fill="white" stroke="#666666" points="308.38,-476 215.12,-476 215.12,-456 308.38,-456 308.38,-476"/>
<text xml:space="preserve" text-anchor="middle" x="261.75" y="-462.5" font-family="Helvetica,sans-Serif" font-size="10.00">Hospede::HEmail</text>
</a>
</g>
</g>
<!-- Node1&#45;&gt;Node3 -->
<g id="edge2_Node000001_Node000003" class="edge">
<title>Node1&#45;&gt;Node3</title>
<g id="a_edge2_Node000001_Node000003"><a xlink:title=" ">
<path fill="none" stroke="#63b8ff" d="M84.14,-273.33C96.33,-310.2 131.07,-400.28 192.25,-447 196,-449.86 200.16,-452.3 204.52,-454.36"/>
<polygon fill="#63b8ff" stroke="#63b8ff" points="202.98,-457.52 213.57,-457.99 205.59,-451.02 202.98,-457.52"/>
</a>
</g>
</g>
<!-- Node4 -->
<g id="Node000004" class="node">
<title>Node4</title>
<g id="a_Node000004"><a xlink:href="class_hospede.html#a3f7e244ec10a26db6411f8b915d67047" target="_top" xlink:title="Retorna o nome do hóspede.">
<polygon fill="white" stroke="#666666" points="309.12,-438 214.38,-438 214.38,-418 309.12,-418 309.12,-438"/>
<text xml:space="preserve" text-anchor="middle" x="261.75" y="-424.5" font-family="Helvetica,sans-Serif" font-size="10.00">Hospede::HNome</text>
</a>
</g>
</g>
<!-- Node1&#45;&gt;Node4 -->
<g id="edge3_Node000001_Node000004" class="edge">
<title>Node1&#45;&gt;Node4</title>
<g id="a_edge3_Node000001_Node000004"><a xlink:title=" ">
<path fill="none" stroke="#63b8ff" d="M86.55,-273.08C101.79,-304.24 139.61,-372.93 192.25,-409 195.71,-411.37 199.46,-413.45 203.36,-415.27"/>
<polygon fill="#63b8ff" stroke="#63b8ff" points="201.96,-418.48 212.54,-418.94 204.56,-411.98 201.96,-418.48"/>
</a>
</g>
</g>
<!-- Node5 -->
<g id="Node000005" class="node">
<title>Node5</title>
<g id="a_Node000005"><a xlink:href="class_hospede.html#a41b3ad99025bbcf9a6e7e811d891b79e" target="_top" xlink:title="Retorna o documento de identificação (RG) do hóspede.">
<polygon fill="white" stroke="#666666" points="303.5,-400 220,-400 220,-380 303.5,-380 303.5,-400"/>
<text xml:space="preserve" text-anchor="middle" x="261.75" y="-386.5" font-family="Helvetica,sans-Serif" font-size="10.00">Hospede::HRG</text>
</a>
</g>
</g>
<!-- Node1&#45;&gt;Node5 -->
<g id="edge4_Node000001_Node000005" class="edge">
<title>Node1&#45;&gt;Node5</title>
<g id="a_edge4_Node000001_Node000005"><a xlink:title=" ">
<path fill="none" stroke="#63b8ff" d="M90.73,-273.23C109.33,-298.04 148.22,-345.21 192.25,-371 197.51,-374.08 203.29,-376.68 209.19,-378.87"/>
<polygon fill="#63b8ff" stroke="#63b8ff" points="207.83,-382.1 218.42,-381.91 210.02,-375.46 207.83,-382.1"/>
</a>
</g>
</g>
<!-- Node6 -->
<g id="Node000006" class="node">
<title>Node6</title>
<g id="a_Node000006"><a xlink:href="class_hospede.html#ae79a0fd4b49489fcde85744d2d7919cb" target="_top" xlink:title="Retorna o número de telefone do hóspede.">
<polygon fill="white" stroke="#666666" points="314.38,-362 209.12,-362 209.12,-342 314.38,-342 314.38,-362"/>
<text xml:space="preserve" text-anchor="middle" x="261.75" y="-348.5" font-family="Helvetica,sans-Serif" font-size="10.00">Hospede::HTelefone</text>
</a>
</g>
</g>
<!-- Node1&#45;&gt;Node6 -->
<g id="edge5_Node000001_Node000006" class="edge">
<title>Node1&#45;&gt;Node6</title>
<g id="a_edge5_Node000001_Node000006"><a xlink:title=" ">
<path fill="none" stroke="#63b8ff" d="M99.19,-273.42C120.93,-290.48 157.21,-316.89 192.25,-333 196.06,-334.75 200.07,-336.38 204.15,-337.87"/>
<polygon fill="#63b8ff" stroke="#63b8ff" points="203.03,-341.19 213.63,-341.06 205.26,-334.55 203.03,-341.19"/>
</a>
</g>
</g>
<!-- Node7 -->
<g id="Node000007" class="node">
<title>Node7</title>
<g id="a_Node000007"><a xlink:href="class_quartos.html#a9c29a38b3c9293bee738f3eca7b28e98" target="_top" xlink:title="Retorna o número identificador do quarto.">
<polygon fill="white" stroke="#666666" points="311,-324 212.5,-324 212.5,-304 311,-304 311,-324"/>
<text xml:space="preserve" text-anchor="middle" x="261.75" y="-310.5" font-family="Helvetica,sans-Serif" font-size="10.00">Quartos::QNumero</text>
</a>
</g>
</g>
<!-- Node1&#45;&gt;Node7 -->
<g id="edge6_Node000001_Node000007" class="edge">
<title>Node1&#45;&gt;Node7</title>
<g id="a_edge6_Node000001_Node000007"><a xlink:title=" ">
<path fill="none" stroke="#63b8ff" d="M126.28,-273.47C146.51,-280.37 170.46,-288.32 192.25,-295 198.15,-296.81 204.36,-298.63 210.53,-300.4"/>
<polygon fill="#63b8ff" stroke="#63b8ff" points="209.49,-303.75 220.07,-303.1 211.39,-297.01 209.49,-303.75"/>
</a>
</g>
</g>
<!-- Node8 -->
<g id="Node000008" class="node">
<title>Node8</title>
<g id="a_Node000008"><a xlink:href="class_quartos.html#ab9829fdba2f9e15041192f9b06b99911" target="_top" xlink:title="Retorna o preço da diária do quarto.">
<polygon fill="white" stroke="#666666" points="306.5,-286 217,-286 217,-266 306.5,-266 306.5,-286"/>
<text xml:space="preserve" text-anchor="middle" x="261.75" y="-272.5" font-family="Helvetica,sans-Serif" font-size="10.00">Quartos::QPreco</text>
</a>
</g>
</g>
<!-- Node1&#45;&gt;Node8 -->
<g id="edge7_Node000001_Node000008" class="edge">
<title>Node1&#45;&gt;Node8</title>
<g id="a_edge7_Node000001_Node000008"><a xlink:title=" ">
<path fill="none" stroke="#63b8ff" d="M156.68,-265.11C173.04,-266.82 189.99,-268.6 205.35,-270.2"/>
<polygon fill="#63b8ff" stroke="#63b8ff" points="204.92,-273.68 215.23,-271.24 205.65,-266.72 204.92,-273.68"/>
</a>
</g>
</g>
<!-- Node9 -->
<g id="Node000009" class="node">
<title>Node9</title>
<g id="a_Node000009"><a xlink:href="class_quartos.html#a2a2a8efcf79e40dcbad6020b5931beca" target="_top" xlink:title="Retorna o tipo do quarto.">
<polygon fill="white" stroke="#666666" points="303.12,-248 220.38,-248 220.38,-228 303.12,-228 303.12,-248"/>
<text xml:space="preserve" text-anchor="middle" x="261.75" y="-234.5" font-family="Helvetica,sans-Serif" font-size="10.00">Quartos::QTipo</text>
</a>
</g>
</g>
<!-- Node1&#45;&gt;Node9 -->
<g id="edge8_Node000001_Node000009" class="edge">
<title>Node1&#45;&gt;Node9</title>
<g id="a_edge8_Node000001_Node000009"><a xlink:title=" ">
<path fill="none" stroke="#63b8ff" d="M156.68,-248.89C174.21,-247.05 192.42,-245.15 208.61,-243.45"/>
<polygon fill="#63b8ff" stroke="#63b8ff" points="208.92,-246.94 218.5,-242.42 208.19,-239.98 208.92,-246.94"/>
</a>
</g>
</g>
<!-- Node10 -->
<g id="Node000010" class="node">
<title>Node10</title>
<g id="a_Node000010"><a xlink:href="class_reserva.html#a3df24f4285d07d5d287a02abeaae4d30" target="_top" xlink:title="Retorna a data de check&#45;in da reserva.">
<polygon fill="white" stroke="#666666" points="313.25,-210 210.25,-210 210.25,-190 313.25,-190 313.25,-210"/>
<text xml:space="preserve" text-anchor="middle" x="261.75" y="-196.5" font-family="Helvetica,sans-Serif" font-size="10.00">Reserva::RCheckIn</text>
</a>
</g>
</g>
<!-- Node1&#45;&gt;Node10 -->
<g id="edge9_Node000001_Node000010" class="edge">
<title>Node1&#45;&gt;Node10</title>
<g id="a_edge9_Node000001_Node000010"><a xlink:title=" ">
<path fill="none" stroke="#63b8ff" d="M126.28,-240.53C146.51,-233.63 170.46,-225.68 192.25,-219 198.15,-217.19 204.36,-215.37 210.53,-213.6"/>
<polygon fill="#63b8ff" stroke="#63b8ff" points="211.39,-216.99 220.07,-210.9 209.49,-210.25 211.39,-216.99"/>
</a>
</g>
</g>
<!-- Node11 -->
<g id="Node000011" class="node">
<title>Node11</title>
<g id="a_Node000011"><a xlink:href="class_reserva.html#acb9430861a703b226bc0c2552278ed97" target="_top" xlink:title="Retorna a data de check&#45;out da reserva.">
<polygon fill="white" stroke="#666666" points="317,-172 206.5,-172 206.5,-152 317,-152 317,-172"/>
<text xml:space="preserve" text-anchor="middle" x="261.75" y="-158.5" font-family="Helvetica,sans-Serif" font-size="10.00">Reserva::RCheckOut</text>
</a>
</g>
</g>
<!-- Node1&#45;&gt;Node11 -->
<g id="edge10_Node000001_Node000011" class="edge">
<title>Node1&#45;&gt;Node11</title>
<g id="a_edge10_Node000001_Node000011"><a xlink:title=" ">
<path fill="none" stroke="#63b8ff" d="M99.19,-240.58C120.93,-223.52 157.21,-197.11 192.25,-181 196.06,-179.25 200.07,-177.62 204.15,-176.13"/>
<polygon fill="#63b8ff" stroke="#63b8ff" points="205.26,-179.45 213.63,-172.94 203.03,-172.81 205.26,-179.45"/>
</a>
</g>
</g>
<!-- Node12 -->
<g id="Node000012" class="node">
<title>Node12</title>
<g id="a_Node000012"><a xlink:href="class_reserva.html#a4795c2154ab9a851d080e71bb65c0452" target="_top" xlink:title="Retorna o hóspede associado à reserva.">
<polygon fill="white" stroke="#666666" points="314.38,-134 209.12,-134 209.12,-114 314.38,-114 314.38,-134"/>
<text xml:space="preserve" text-anchor="middle" x="261.75" y="-120.5" font-family="Helvetica,sans-Serif" font-size="10.00">Reserva::RHospede</text>
</a>
</g>
</g>
<!-- Node1&#45;&gt;Node12 -->
<g id="edge11_Node000001_Node000012" class="edge">
<title>Node1&#45;&gt;Node12</title>
<g id="a_edge11_Node000001_Node000012"><a xlink:title=" ">
<path fill="none" stroke="#63b8ff" d="M90.73,-240.77C109.33,-215.96 148.22,-168.79 192.25,-143 194.9,-141.45 197.69,-140.01 200.56,-138.69"/>
<polygon fill="#63b8ff" stroke="#63b8ff" points="201.84,-141.95 209.8,-134.97 199.22,-135.46 201.84,-141.95"/>
</a>
</g>
</g>
<!-- Node13 -->
<g id="Node000013" class="node">
<title>Node13</title>
<g id="a_Node000013"><a xlink:href="class_reserva.html#a0d57da37ede5e631558101df90748814" target="_top" xlink:title="Retorna o número identificador da reserva.">
<polygon fill="white" stroke="#666666" points="330.5,-96 193,-96 193,-76 330.5,-76 330.5,-96"/>
<text xml:space="preserve" text-anchor="middle" x="261.75" y="-82.5" font-family="Helvetica,sans-Serif" font-size="10.00">Reserva::RNumeroReserva</text>
</a>
</g>
</g>
<!-- Node1&#45;&gt;Node13 -->
<g id="edge12_Node000001_Node000013" class="edge">
<title>Node1&#45;&gt;Node13</title>
<g id="a_edge12_Node000001_Node000013"><a xlink:title=" ">
<path fill="none" stroke="#63b8ff" d="M86.55,-240.92C101.79,-209.76 139.61,-141.07 192.25,-105 194.2,-103.66 196.24,-102.42 198.35,-101.27"/>
<polygon fill="#63b8ff" stroke="#63b8ff" points="199.65,-104.52 207.23,-97.11 196.69,-98.18 199.65,-104.52"/>
</a>
</g>
</g>
<!-- Node14 -->
<g id="Node000014" class="node">
<title>Node14</title>
<g id="a_Node000014"><a xlink:href="class_reserva.html#a459fe5e23ee1be0486086a4502e3fc87" target="_top" xlink:title="Retorna o quarto reservado.">
<polygon fill="white" stroke="#666666" points="309.5,-58 214,-58 214,-38 309.5,-38 309.5,-58"/>
<text xml:space="preserve" text-anchor="middle" x="261.75" y="-44.5" font-family="Helvetica,sans-Serif" font-size="10.00">Reserva::RQuarto</text>
</a>
</g>
</g>
<!-- Node1&#45;&gt;Node14 -->
<g id="edge13_Node000001_Node000014" class="edge">
<title>Node1&#45;&gt;Node14</title>
<g id="a_edge13_Node000001_Node000014"><a xlink:title=" ">
<path fill="none" stroke="#63b8ff" d="M84.14,-240.67C96.33,-203.8 131.07,-113.72 192.25,-67 195.58,-64.45 199.24,-62.25 203.08,-60.34"/>
<polygon fill="#63b8ff" stroke="#63b8ff" points="204.29,-63.63 212.15,-56.53 201.58,-57.17 204.29,-63.63"/>
</a>
</g>
</g>
<!-- Node15 -->
<g id="Node000015" class="node">
<title>Node15</title>
<g id="a_Node000015"><a xlink:href="class_reserva.html#a765cc7aacdbd0e2a62ff1ef08255e024" target="_top" xlink:title="Retorna o status atual da reserva.">
<polygon fill="white" stroke="#666666" points="309.12,-20 214.38,-20 214.38,0 309.12,0 309.12,-20"/>
<text xml:space="preserve" text-anchor="middle" x="261.75" y="-6.5" font-family="Helvetica,sans-Serif" font-size="10.00">Reserva::RStatus</text>
</a>
</g>
</g>
<!-- Node1&#45;&gt;Node15 -->
<g id="edge14_Node000001_Node000015" class="edge">
<title>Node1&#45;&gt;Node15</title>
<g id="a_edge14_Node000001_Node000015"><a xlink:title=" ">
<path fill="none" stroke="#63b8ff" d="M82.42,-240.63C91.73,-198.73 122.24,-86.83 192.25,-29 195.68,-26.16 199.51,-23.75 203.55,-21.69"/>
<polygon fill="#63b8ff" stroke="#63b8ff" points="204.71,-25.01 212.55,-17.88 201.97,-18.56 204.71,-25.01"/>
</a>
</g>
</g>
</g>
</svg>
