<?xml version="1.0" encoding="UTF-8" standalone="no"?>
<!DOCTYPE svg PUBLIC "-//W3C//DTD SVG 1.1//EN"
 "http://www.w3.org/Graphics/SVG/1.1/DTD/svg11.dtd">
<!-- Generated by graphviz version 14.0.2 (20251019.1705)
 -->
<!-- Title: Hospede::HCodigo Pages: 1 -->
<svg width="354pt" height="104pt"
 viewBox="0.00 0.00 354.00 104.00" xmlns="http://www.w3.org/2000/svg" xmlns:xlink="http://www.w3.org/1999/xlink">

<svg id="main" version="1.1" xmlns="http://www.w3.org/2000/svg" xmlns:xlink="http://www.w3.org/1999/xlink" xml:space="preserve">

<style type="text/css"><![CDATA[
.node, .edge {opacity: 0.7;}
.node.selected, .edge.selected {opacity: 1;}
.edge:hover path { stroke: red; }
.edge:hover polygon { stroke: red; fill: red; }
]]></style>
<script type="application/ecmascript" xlink:href="svg.min.js"/>
<svg id="graph" class="graph">
<g id="graph0" class="graph" transform="scale(1 1) rotate(0) translate(4 100)">
<title>Hospede::HCodigo</title>
<!-- Node1 -->
<g id="Node000001" class="node">
<title>Node1</title>
<g id="a_Node000001"><a xlink:title="Retorna o código identificador do hóspede.">
<polygon fill="#999999" stroke="#666666" points="345.75,-58 246.5,-58 246.5,-38 345.75,-38 345.75,-58"/>
<text xml:space="preserve" text-anchor="middle" x="296.12" y="-44.5" font-family="Helvetica,sans-Serif" font-size="10.00">Hospede::HCodigo</text>
</a>
</g>
</g>
<!-- Node2 -->
<g id="Node000002" class="node">
<title>Node2</title>
<g id="a_Node000002"><a xlink:href="class_sistema.html#a866bfc58977f5297921b099faae2c835" target="_top" xlink:title=" ">
<polygon fill="white" stroke="#666666" points="210.5,-96 73,-96 73,-76 210.5,-76 210.5,-96"/>
<text xml:space="preserve" text-anchor="middle" x="141.75" y="-82.5" font-family="Helvetica,sans-Serif" font-size="10.00">Sistema::cadastrarHospede</text>
</a>
</g>
</g>
<!-- Node1&#45;&gt;Node2 -->
<g id="edge1_Node000001_Node000002" class="edge">
<title>Node1&#45;&gt;Node2</title>
<g id="a_edge1_Node000001_Node000002"><a xlink:title=" ">
<path fill="none" stroke="#63b8ff" d="M242,-61.25C223.22,-65.93 202.37,-71.13 184.65,-75.55"/>
<polygon fill="#63b8ff" stroke="#63b8ff" points="242.76,-64.67 251.62,-58.85 241.07,-57.87 242.76,-64.67"/>
</a>
</g>
</g>
<!-- Node3 -->
<g id="Node000003" class="node">
<title>Node3</title>
<g id="a_Node000003"><a xlink:href="main_8cpp.html#ae66f6b31b5ad750f1fe042a706a4e3d4" target="_top" xlink:title="Função principal do sistema de hotel.">
<polygon fill="white" stroke="#666666" points="37,-58 0,-58 0,-38 37,-38 37,-58"/>
<text xml:space="preserve" text-anchor="middle" x="18.5" y="-44.5" font-family="Helvetica,sans-Serif" font-size="10.00">main</text>
</a>
</g>
</g>
<!-- Node1&#45;&gt;Node3 -->
<g id="edge5_Node000001_Node000003" class="edge">
<title>Node1&#45;&gt;Node3</title>
<g id="a_edge5_Node000001_Node000003"><a xlink:title=" ">
<path fill="none" stroke="#63b8ff" d="M234.79,-48C171.78,-48 76.75,-48 37.47,-48"/>
<polygon fill="#63b8ff" stroke="#63b8ff" points="234.65,-51.5 244.65,-48 234.65,-44.5 234.65,-51.5"/>
</a>
</g>
</g>
<!-- Node4 -->
<g id="Node000004" class="node">
<title>Node4</title>
<g id="a_Node000004"><a xlink:href="class_sistema.html#ab5d01c8fea43349d61ff29453a8917e1" target="_top" xlink:title=" ">
<polygon fill="white" stroke="#666666" points="198.5,-20 85,-20 85,0 198.5,0 198.5,-20"/>
<text xml:space="preserve" text-anchor="middle" x="141.75" y="-6.5" font-family="Helvetica,sans-Serif" font-size="10.00">Sistema::criarReserva</text>
</a>
</g>
</g>
<!-- Node1&#45;&gt;Node4 -->
<g id="edge3_Node000001_Node000004" class="edge">
<title>Node1&#45;&gt;Node4</title>
<g id="a_edge3_Node000001_Node000004"><a xlink:title=" ">
<path fill="none" stroke="#63b8ff" d="M242,-34.75C223.22,-30.07 202.37,-24.87 184.65,-20.45"/>
<polygon fill="#63b8ff" stroke="#63b8ff" points="241.07,-38.13 251.62,-37.15 242.76,-31.33 241.07,-38.13"/>
</a>
</g>
</g>
<!-- Node2&#45;&gt;Node3 -->
<g id="edge2_Node000002_Node000003" class="edge">
<title>Node2&#45;&gt;Node3</title>
<g id="a_edge2_Node000002_Node000003"><a xlink:title=" ">
<path fill="none" stroke="#63b8ff" d="M96.32,-72.07C75.95,-65.69 52.95,-58.48 37.47,-53.63"/>
<polygon fill="#63b8ff" stroke="#63b8ff" points="95.26,-75.41 105.85,-75.06 97.36,-68.73 95.26,-75.41"/>
</a>
</g>
</g>
<!-- Node4&#45;&gt;Node3 -->
<g id="edge4_Node000004_Node000003" class="edge">
<title>Node4&#45;&gt;Node3</title>
<g id="a_edge4_Node000004_Node000003"><a xlink:title=" ">
<path fill="none" stroke="#63b8ff" d="M96.32,-23.93C75.95,-30.31 52.95,-37.52 37.47,-42.37"/>
<polygon fill="#63b8ff" stroke="#63b8ff" points="97.36,-27.27 105.85,-20.94 95.26,-20.59 97.36,-27.27"/>
</a>
</g>
</g>
</g>
</svg>
</svg>

<style type='text/css'>
<![CDATA[
[data-mouse-over-selected='false'] { opacity: 0.7; }
[data-mouse-over-selected='true']  { opacity: 1.0; }
]]>
</style>
<script type="application/ecmascript"><![CDATA[
document.addEventListener('DOMContentLoaded', (event) => {
  highlightEdges();
  highlightAdjacentNodes();
});
]]></script>
</svg>
