<?xml version="1.0" encoding="UTF-8" standalone="no"?>
<!DOCTYPE svg PUBLIC "-//W3C//DTD SVG 1.1//EN"
 "http://www.w3.org/Graphics/SVG/1.1/DTD/svg11.dtd">
<!-- Generated by graphviz version 14.0.2 (20251019.1705)
 -->
<!-- Title: Reserva Pages: 1 -->
<svg width="132pt" height="102pt"
 viewBox="0.00 0.00 132.00 102.00" xmlns="http://www.w3.org/2000/svg" xmlns:xlink="http://www.w3.org/1999/xlink">
<g id="graph0" class="graph" transform="scale(1 1) rotate(0) translate(4 98)">
<title>Reserva</title>
<!-- Node1 -->
<g id="Node000001" class="node">
<title>Node1</title>
<g id="a_Node000001"><a xlink:title="Representa uma reserva de hospedagem no sistema do hotel.">
<polygon fill="#999999" stroke="#666666" points="88.88,-20 36.12,-20 36.12,0 88.88,0 88.88,-20"/>
<text xml:space="preserve" text-anchor="middle" x="62.5" y="-6.5" font-family="Helvetica,sans-Serif" font-size="10.00">Reserva</text>
</a>
</g>
</g>
<!-- Node2 -->
<g id="Node000002" class="node">
<title>Node2</title>
<g id="a_Node000002"><a xlink:href="class_hospede.html" target="_top" xlink:title="Representa um hóspede do sistema de hotel.">
<polygon fill="white" stroke="#666666" points="55,-94 0,-94 0,-74 55,-74 55,-94"/>
<text xml:space="preserve" text-anchor="middle" x="27.5" y="-80.5" font-family="Helvetica,sans-Serif" font-size="10.00">Hospede</text>
</a>
</g>
</g>
<!-- Node2&#45;&gt;Node1 -->
<g id="edge1_Node000001_Node000002" class="edge">
<title>Node2&#45;&gt;Node1</title>
<g id="a_edge1_Node000001_Node000002"><a xlink:title=" ">
<path fill="none" stroke="#9a32cd" stroke-dasharray="5,2" d="M27.46,-62.48C28.17,-54.47 29.9,-45.45 33.75,-38 37.34,-31.07 43.43,-24.95 49.09,-20.31"/>
<polygon fill="#9a32cd" stroke="#9a32cd" points="23.97,-62.21 27.09,-72.33 30.96,-62.47 23.97,-62.21"/>
</a>
</g>
<text xml:space="preserve" text-anchor="start" x="36.75" y="-43.5" font-family="Helvetica,sans-Serif" font-size="10.00" fill="grey">hospede</text>
</g>
<!-- Node3 -->
<g id="Node000003" class="node">
<title>Node3</title>
<g id="a_Node000003"><a xlink:href="class_quartos.html" target="_top" xlink:title="Representa um quarto do hotel.">
<polygon fill="white" stroke="#666666" points="123.75,-94 73.25,-94 73.25,-74 123.75,-74 123.75,-94"/>
<text xml:space="preserve" text-anchor="middle" x="98.5" y="-80.5" font-family="Helvetica,sans-Serif" font-size="10.00">Quartos</text>
</a>
</g>
</g>
<!-- Node3&#45;&gt;Node1 -->
<g id="edge2_Node000001_Node000003" class="edge">
<title>Node3&#45;&gt;Node1</title>
<g id="a_edge2_Node000001_Node000003"><a xlink:title=" ">
<path fill="none" stroke="#9a32cd" stroke-dasharray="5,2" d="M89.11,-63.55C85.25,-55.6 80.7,-46.34 76.5,-38 73.56,-32.15 70.18,-25.63 67.48,-20.47"/>
<polygon fill="#9a32cd" stroke="#9a32cd" points="85.84,-64.82 93.35,-72.3 92.14,-61.77 85.84,-64.82"/>
</a>
</g>
<text xml:space="preserve" text-anchor="start" x="88.07" y="-43.5" font-family="Helvetica,sans-Serif" font-size="10.00" fill="grey">quarto</text>
</g>
</g>
</svg>
