<?xml version="1.0" encoding="UTF-8" standalone="no"?>
<!DOCTYPE svg PUBLIC "-//W3C//DTD SVG 1.1//EN"
 "http://www.w3.org/Graphics/SVG/1.1/DTD/svg11.dtd">
<!-- Generated by graphviz version 14.0.2 (20251019.1705)
 -->
<!-- Title: Sistema::posicaoQuarto Pages: 1 -->
<svg width="370pt" height="180pt"
 viewBox="0.00 0.00 370.00 180.00" xmlns="http://www.w3.org/2000/svg" xmlns:xlink="http://www.w3.org/1999/xlink">

<svg id="main" version="1.1" xmlns="http://www.w3.org/2000/svg" xmlns:xlink="http://www.w3.org/1999/xlink" xml:space="preserve">

<style type="text/css"><![CDATA[
.node, .edge {opacity: 0.7;}
.node.selected, .edge.selected {opacity: 1;}
.edge:hover path { stroke: red; }
.edge:hover polygon { stroke: red; fill: red; }
]]></style>
<script type="application/ecmascript" xlink:href="svg.min.js"/>
<svg id="graph" class="graph">
<g id="graph0" class="graph" transform="scale(1 1) rotate(0) translate(4 176)">
<title>Sistema::posicaoQuarto</title>
<!-- Node1 -->
<g id="Node000001" class="node">
<title>Node1</title>
<g id="a_Node000001"><a xlink:title=" ">
<polygon fill="#999999" stroke="#666666" points="361.5,-96 240.5,-96 240.5,-76 361.5,-76 361.5,-96"/>
<text xml:space="preserve" text-anchor="middle" x="301" y="-82.5" font-family="Helvetica,sans-Serif" font-size="10.00">Sistema::posicaoQuarto</text>
</a>
</g>
</g>
<!-- Node2 -->
<g id="Node000002" class="node">
<title>Node2</title>
<g id="a_Node000002"><a xlink:href="class_sistema.html#aaea4514ecf8b9193ce0d5dfe22f664b5" target="_top" xlink:title=" ">
<polygon fill="white" stroke="#666666" points="204.5,-172 73,-172 73,-152 204.5,-152 204.5,-172"/>
<text xml:space="preserve" text-anchor="middle" x="138.75" y="-158.5" font-family="Helvetica,sans-Serif" font-size="10.00">Sistema::cancelarReserva</text>
</a>
</g>
</g>
<!-- Node1&#45;&gt;Node2 -->
<g id="edge1_Node000001_Node000002" class="edge">
<title>Node1&#45;&gt;Node2</title>
<g id="a_edge1_Node000001_Node000002"><a xlink:title=" ">
<path fill="none" stroke="#63b8ff" d="M275.9,-102.72C257.12,-115.16 230.03,-131.85 204.5,-143 197.09,-146.24 188.97,-149.11 181.07,-151.58"/>
<polygon fill="#63b8ff" stroke="#63b8ff" points="277.82,-105.65 284.16,-97.15 273.91,-99.84 277.82,-105.65"/>
</a>
</g>
</g>
<!-- Node3 -->
<g id="Node000003" class="node">
<title>Node3</title>
<g id="a_Node000003"><a xlink:href="class_sistema.html#ab5d01c8fea43349d61ff29453a8917e1" target="_top" xlink:title=" ">
<polygon fill="white" stroke="#666666" points="195.5,-134 82,-134 82,-114 195.5,-114 195.5,-134"/>
<text xml:space="preserve" text-anchor="middle" x="138.75" y="-120.5" font-family="Helvetica,sans-Serif" font-size="10.00">Sistema::criarReserva</text>
</a>
</g>
</g>
<!-- Node1&#45;&gt;Node3 -->
<g id="edge2_Node000001_Node000003" class="edge">
<title>Node1&#45;&gt;Node3</title>
<g id="a_edge2_Node000001_Node000003"><a xlink:title=" ">
<path fill="none" stroke="#63b8ff" d="M244.69,-99.12C224.79,-103.83 202.63,-109.09 183.82,-113.55"/>
<polygon fill="#63b8ff" stroke="#63b8ff" points="245.39,-102.55 254.31,-96.83 243.78,-95.74 245.39,-102.55"/>
</a>
</g>
</g>
<!-- Node5 -->
<g id="Node000005" class="node">
<title>Node5</title>
<g id="a_Node000005"><a xlink:href="class_sistema.html#a0f242510970e29be4c331acb4b532853" target="_top" xlink:title=" ">
<polygon fill="white" stroke="#666666" points="200.75,-96 76.75,-96 76.75,-76 200.75,-76 200.75,-96"/>
<text xml:space="preserve" text-anchor="middle" x="138.75" y="-82.5" font-family="Helvetica,sans-Serif" font-size="10.00">Sistema::fazerCheckOut</text>
</a>
</g>
</g>
<!-- Node1&#45;&gt;Node5 -->
<g id="edge4_Node000001_Node000005" class="edge">
<title>Node1&#45;&gt;Node5</title>
<g id="a_edge4_Node000001_Node000005"><a xlink:title=" ">
<path fill="none" stroke="#63b8ff" d="M229.06,-86C219.73,-86 210.23,-86 201.08,-86"/>
<polygon fill="#63b8ff" stroke="#63b8ff" points="228.82,-89.5 238.82,-86 228.82,-82.5 228.82,-89.5"/>
</a>
</g>
</g>
<!-- Node6 -->
<g id="Node000006" class="node">
<title>Node6</title>
<g id="a_Node000006"><a xlink:href="class_sistema.html#abeae5379fa32859346fc1231641f9ff9" target="_top" xlink:title=" ">
<polygon fill="white" stroke="#666666" points="195.5,-58 82,-58 82,-38 195.5,-38 195.5,-58"/>
<text xml:space="preserve" text-anchor="middle" x="138.75" y="-44.5" font-family="Helvetica,sans-Serif" font-size="10.00">Sistema::liberarQuarto</text>
</a>
</g>
</g>
<!-- Node1&#45;&gt;Node6 -->
<g id="edge5_Node000001_Node000006" class="edge">
<title>Node1&#45;&gt;Node6</title>
<g id="a_edge5_Node000001_Node000006"><a xlink:title=" ">
<path fill="none" stroke="#63b8ff" d="M244.69,-72.88C224.79,-68.17 202.63,-62.91 183.82,-58.45"/>
<polygon fill="#63b8ff" stroke="#63b8ff" points="243.78,-76.26 254.31,-75.17 245.39,-69.45 243.78,-76.26"/>
</a>
</g>
</g>
<!-- Node7 -->
<g id="Node000007" class="node">
<title>Node7</title>
<g id="a_Node000007"><a xlink:href="class_sistema.html#a2cfde648109d395e55ddf6ad379f3190" target="_top" xlink:title=" ">
<polygon fill="white" stroke="#666666" points="197,-20 80.5,-20 80.5,0 197,0 197,-20"/>
<text xml:space="preserve" text-anchor="middle" x="138.75" y="-6.5" font-family="Helvetica,sans-Serif" font-size="10.00">Sistema::ocuparQuarto</text>
</a>
</g>
</g>
<!-- Node1&#45;&gt;Node7 -->
<g id="edge7_Node000001_Node000007" class="edge">
<title>Node1&#45;&gt;Node7</title>
<g id="a_edge7_Node000001_Node000007"><a xlink:title=" ">
<path fill="none" stroke="#63b8ff" d="M275.9,-69.28C257.12,-56.84 230.03,-40.15 204.5,-29 197.09,-25.76 188.97,-22.89 181.07,-20.42"/>
<polygon fill="#63b8ff" stroke="#63b8ff" points="273.91,-72.16 284.16,-74.85 277.82,-66.35 273.91,-72.16"/>
</a>
</g>
</g>
<!-- Node4 -->
<g id="Node000004" class="node">
<title>Node4</title>
<g id="a_Node000004"><a xlink:href="main_8cpp.html#ae66f6b31b5ad750f1fe042a706a4e3d4" target="_top" xlink:title="Função principal do sistema de hotel.">
<polygon fill="white" stroke="#666666" points="37,-58 0,-58 0,-38 37,-38 37,-58"/>
<text xml:space="preserve" text-anchor="middle" x="18.5" y="-44.5" font-family="Helvetica,sans-Serif" font-size="10.00">main</text>
</a>
</g>
</g>
<!-- Node3&#45;&gt;Node4 -->
<g id="edge3_Node000003_Node000004" class="edge">
<title>Node3&#45;&gt;Node4</title>
<g id="a_edge3_Node000003_Node000004"><a xlink:title=" ">
<path fill="none" stroke="#63b8ff" d="M80.66,-109.18C78.02,-107.89 75.45,-106.5 73,-105 53.11,-92.77 35.8,-71.25 26.58,-58.43"/>
<polygon fill="#63b8ff" stroke="#63b8ff" points="79.21,-112.36 89.78,-113.03 81.93,-105.91 79.21,-112.36"/>
</a>
</g>
</g>
<!-- Node6&#45;&gt;Node4 -->
<g id="edge6_Node000006_Node000004" class="edge">
<title>Node6&#45;&gt;Node4</title>
<g id="a_edge6_Node000006_Node000004"><a xlink:title=" ">
<path fill="none" stroke="#63b8ff" d="M70.42,-48C58.17,-48 46.4,-48 37.27,-48"/>
<polygon fill="#63b8ff" stroke="#63b8ff" points="70.23,-51.5 80.23,-48 70.23,-44.5 70.23,-51.5"/>
</a>
</g>
</g>
<!-- Node7&#45;&gt;Node4 -->
<g id="edge8_Node000007_Node000004" class="edge">
<title>Node7&#45;&gt;Node4</title>
<g id="a_edge8_Node000007_Node000004"><a xlink:title=" ">
<path fill="none" stroke="#63b8ff" d="M89.83,-23.73C84.15,-25.46 78.43,-27.24 73,-29 61,-32.89 47.62,-37.64 37.25,-41.42"/>
<polygon fill="#63b8ff" stroke="#63b8ff" points="90.63,-27.15 99.21,-20.93 88.63,-20.44 90.63,-27.15"/>
</a>
</g>
</g>
</g>
</svg>
</svg>

<style type='text/css'>
<![CDATA[
[data-mouse-over-selected='false'] { opacity: 0.7; }
[data-mouse-over-selected='true']  { opacity: 1.0; }
]]>
</style>
<script type="application/ecmascript"><![CDATA[
document.addEventListener('DOMContentLoaded', (event) => {
  highlightEdges();
  highlightAdjacentNodes();
});
]]></script>
</svg>
