<?xml version="1.0" encoding="UTF-8" standalone="no"?>
<!DOCTYPE svg PUBLIC "-//W3C//DTD SVG 1.1//EN"
 "http://www.w3.org/Graphics/SVG/1.1/DTD/svg11.dtd">
<!-- Generated by graphviz version 14.0.2 (20251019.1705)
 -->
<!-- Title: Hospede::HNome Pages: 1 -->
<svg width="368pt" height="106pt"
 viewBox="0.00 0.00 368.00 106.00" xmlns="http://www.w3.org/2000/svg" xmlns:xlink="http://www.w3.org/1999/xlink">
<g id="graph0" class="graph" transform="scale(1 1) rotate(0) translate(4 102)">
<title>Hospede::HNome</title>
<!-- Node1 -->
<g id="Node000001" class="node">
<title>Node1</title>
<g id="a_Node000001"><a xlink:title="Retorna o nome do hóspede.">
<polygon fill="#999999" stroke="#666666" points="360,-76 265.25,-76 265.25,-56 360,-56 360,-76"/>
<text xml:space="preserve" text-anchor="middle" x="312.62" y="-62.5" font-family="Helvetica,sans-Serif" font-size="10.00">Hospede::HNome</text>
</a>
</g>
</g>
<!-- Node2 -->
<g id="Node000002" class="node">
<title>Node2</title>
<g id="a_Node000002"><a xlink:href="main_8cpp.html#ae66f6b31b5ad750f1fe042a706a4e3d4" target="_top" xlink:title="Função principal do sistema de hotel.">
<polygon fill="white" stroke="#666666" points="37,-98 0,-98 0,-78 37,-78 37,-98"/>
<text xml:space="preserve" text-anchor="middle" x="18.5" y="-84.5" font-family="Helvetica,sans-Serif" font-size="10.00">main</text>
</a>
</g>
</g>
<!-- Node1&#45;&gt;Node2 -->
<g id="edge1_Node000001_Node000002" class="edge">
<title>Node1&#45;&gt;Node2</title>
<g id="a_edge1_Node000001_Node000002"><a xlink:title=" ">
<path fill="none" stroke="#63b8ff" d="M274.02,-79.96C260.15,-84.43 244.18,-88.78 229.25,-91 158.82,-101.45 73.64,-94.19 37.31,-90.17"/>
<polygon fill="#63b8ff" stroke="#63b8ff" points="274.83,-83.38 283.19,-76.88 272.6,-76.74 274.83,-83.38"/>
</a>
</g>
</g>
<!-- Node3 -->
<g id="Node000003" class="node">
<title>Node3</title>
<g id="a_Node000003"><a xlink:href="class_sistema.html#a8f75885af16b3e03ee0e2e459c0c2404" target="_top" xlink:title=" ">
<polygon fill="white" stroke="#666666" points="229.25,-82 73,-82 73,-50 229.25,-50 229.25,-82"/>
<text xml:space="preserve" text-anchor="start" x="81" y="-68.5" font-family="Helvetica,sans-Serif" font-size="10.00">Sistema::mostrarDadosReserva</text>
<text xml:space="preserve" text-anchor="middle" x="151.12" y="-56.5" font-family="Helvetica,sans-Serif" font-size="10.00">Completa</text>
</a>
</g>
</g>
<!-- Node1&#45;&gt;Node3 -->
<g id="edge2_Node000001_Node000003" class="edge">
<title>Node1&#45;&gt;Node3</title>
<g id="a_edge2_Node000001_Node000003"><a xlink:title=" ">
<path fill="none" stroke="#63b8ff" d="M253.81,-66C245.95,-66 237.79,-66 229.65,-66"/>
<polygon fill="#63b8ff" stroke="#63b8ff" points="253.55,-69.5 263.55,-66 253.55,-62.5 253.55,-69.5"/>
</a>
</g>
</g>
<!-- Node4 -->
<g id="Node000004" class="node">
<title>Node4</title>
<g id="a_Node000004"><a xlink:href="class_sistema.html#af49ee03765c1fc70add0ca0bd35460ff" target="_top" xlink:title=" ">
<polygon fill="white" stroke="#666666" points="223.62,-32 78.62,-32 78.62,0 223.62,0 223.62,-32"/>
<text xml:space="preserve" text-anchor="start" x="86.62" y="-18.5" font-family="Helvetica,sans-Serif" font-size="10.00">Sistema::mostrarHospedePor</text>
<text xml:space="preserve" text-anchor="middle" x="151.12" y="-6.5" font-family="Helvetica,sans-Serif" font-size="10.00">Reserva</text>
</a>
</g>
</g>
<!-- Node1&#45;&gt;Node4 -->
<g id="edge4_Node000001_Node000004" class="edge">
<title>Node1&#45;&gt;Node4</title>
<g id="a_edge4_Node000001_Node000004"><a xlink:title=" ">
<path fill="none" stroke="#63b8ff" d="M267.22,-52.08C247.81,-46 224.91,-38.82 204.67,-32.47"/>
<polygon fill="#63b8ff" stroke="#63b8ff" points="266.16,-55.41 276.74,-55.07 268.25,-48.73 266.16,-55.41"/>
</a>
</g>
</g>
<!-- Node3&#45;&gt;Node2 -->
<g id="edge3_Node000003_Node000002" class="edge">
<title>Node3&#45;&gt;Node2</title>
<g id="a_edge3_Node000003_Node000002"><a xlink:title=" ">
<path fill="none" stroke="#63b8ff" d="M61.42,-80.94C52.47,-82.45 44.18,-83.84 37.39,-84.99"/>
<polygon fill="#63b8ff" stroke="#63b8ff" points="61.86,-84.42 71.14,-79.3 60.7,-77.51 61.86,-84.42"/>
</a>
</g>
</g>
</g>
</svg>
