<?xml version="1.0" encoding="UTF-8" standalone="no"?>
<!DOCTYPE svg PUBLIC "-//W3C//DTD SVG 1.1//EN"
 "http://www.w3.org/Graphics/SVG/1.1/DTD/svg11.dtd">
<!-- Generated by graphviz version 14.0.2 (20251019.1705)
 -->
<!-- Title: Sistema::mostrarHospedePorReserva Pages: 1 -->
<svg width="328pt" height="268pt"
 viewBox="0.00 0.00 328.00 268.00" xmlns="http://www.w3.org/2000/svg" xmlns:xlink="http://www.w3.org/1999/xlink">

<svg id="main" version="1.1" xmlns="http://www.w3.org/2000/svg" xmlns:xlink="http://www.w3.org/1999/xlink" xml:space="preserve">

<style type="text/css"><![CDATA[
.node, .edge {opacity: 0.7;}
.node.selected, .edge.selected {opacity: 1;}
.edge:hover path { stroke: red; }
.edge:hover polygon { stroke: red; fill: red; }
]]></style>
<script type="application/ecmascript" xlink:href="svg.min.js"/>
<svg id="graph" class="graph">
<g id="graph0" class="graph" transform="scale(1 1) rotate(0) translate(4 264)">
<title>Sistema::mostrarHospedePorReserva</title>
<!-- Node1 -->
<g id="Node000001" class="node">
<title>Node1</title>
<g id="a_Node000001"><a xlink:title=" ">
<polygon fill="#999999" stroke="#666666" points="145,-140 0,-140 0,-108 145,-108 145,-140"/>
<text xml:space="preserve" text-anchor="start" x="8" y="-126.5" font-family="Helvetica,sans-Serif" font-size="10.00">Sistema::mostrarHospedePor</text>
<text xml:space="preserve" text-anchor="middle" x="72.5" y="-114.5" font-family="Helvetica,sans-Serif" font-size="10.00">Reserva</text>
</a>
</g>
</g>
<!-- Node2 -->
<g id="Node000002" class="node">
<title>Node2</title>
<g id="a_Node000002"><a xlink:href="class_sistema.html#a37638daf36679a06734878b25c77002d" target="_top" xlink:title=" ">
<polygon fill="white" stroke="#666666" points="320,-260 181,-260 181,-228 320,-228 320,-260"/>
<text xml:space="preserve" text-anchor="start" x="189" y="-246.5" font-family="Helvetica,sans-Serif" font-size="10.00">Sistema::buscarReservaPor</text>
<text xml:space="preserve" text-anchor="middle" x="250.5" y="-234.5" font-family="Helvetica,sans-Serif" font-size="10.00">Numero</text>
</a>
</g>
</g>
<!-- Node1&#45;&gt;Node2 -->
<g id="edge1_Node000001_Node000002" class="edge">
<title>Node1&#45;&gt;Node2</title>
<g id="a_edge1_Node000001_Node000002"><a xlink:title=" ">
<path fill="none" stroke="#63b8ff" d="M88.06,-140.17C107.48,-160.91 143.76,-196.84 181,-219 183.17,-220.29 185.41,-221.53 187.7,-222.72"/>
<polygon fill="#63b8ff" stroke="#63b8ff" points="186.12,-225.84 196.66,-226.97 189.13,-219.52 186.12,-225.84"/>
</a>
</g>
</g>
<!-- Node3 -->
<g id="Node000003" class="node">
<title>Node3</title>
<g id="a_Node000003"><a xlink:href="class_hospede.html#a22dc1c4cb834a9717076bbc4679639e4" target="_top" xlink:title="Retorna o endereço de e&#45;mail do hóspede.">
<polygon fill="white" stroke="#666666" points="297.12,-210 203.88,-210 203.88,-190 297.12,-190 297.12,-210"/>
<text xml:space="preserve" text-anchor="middle" x="250.5" y="-196.5" font-family="Helvetica,sans-Serif" font-size="10.00">Hospede::HEmail</text>
</a>
</g>
</g>
<!-- Node1&#45;&gt;Node3 -->
<g id="edge2_Node000001_Node000003" class="edge">
<title>Node1&#45;&gt;Node3</title>
<g id="a_edge2_Node000001_Node000003"><a xlink:title=" ">
<path fill="none" stroke="#63b8ff" d="M100.56,-140.46C121.84,-152.88 152.54,-169.67 181,-181 185.64,-182.85 190.52,-184.59 195.46,-186.2"/>
<polygon fill="#63b8ff" stroke="#63b8ff" points="194.24,-189.49 204.83,-189.1 196.31,-182.8 194.24,-189.49"/>
</a>
</g>
</g>
<!-- Node4 -->
<g id="Node000004" class="node">
<title>Node4</title>
<g id="a_Node000004"><a xlink:href="class_hospede.html#a3f7e244ec10a26db6411f8b915d67047" target="_top" xlink:title="Retorna o nome do hóspede.">
<polygon fill="white" stroke="#666666" points="297.88,-172 203.12,-172 203.12,-152 297.88,-152 297.88,-172"/>
<text xml:space="preserve" text-anchor="middle" x="250.5" y="-158.5" font-family="Helvetica,sans-Serif" font-size="10.00">Hospede::HNome</text>
</a>
</g>
</g>
<!-- Node1&#45;&gt;Node4 -->
<g id="edge3_Node000001_Node000004" class="edge">
<title>Node1&#45;&gt;Node4</title>
<g id="a_edge3_Node000001_Node000004"><a xlink:title=" ">
<path fill="none" stroke="#63b8ff" d="M145.34,-139.51C160.79,-142.85 176.93,-146.33 191.77,-149.53"/>
<polygon fill="#63b8ff" stroke="#63b8ff" points="190.83,-152.91 201.34,-151.6 192.31,-146.07 190.83,-152.91"/>
</a>
</g>
</g>
<!-- Node5 -->
<g id="Node000005" class="node">
<title>Node5</title>
<g id="a_Node000005"><a xlink:href="class_hospede.html#a41b3ad99025bbcf9a6e7e811d891b79e" target="_top" xlink:title="Retorna o documento de identificação (RG) do hóspede.">
<polygon fill="white" stroke="#666666" points="292.25,-134 208.75,-134 208.75,-114 292.25,-114 292.25,-134"/>
<text xml:space="preserve" text-anchor="middle" x="250.5" y="-120.5" font-family="Helvetica,sans-Serif" font-size="10.00">Hospede::HRG</text>
</a>
</g>
</g>
<!-- Node1&#45;&gt;Node5 -->
<g id="edge4_Node000001_Node000005" class="edge">
<title>Node1&#45;&gt;Node5</title>
<g id="a_edge4_Node000001_Node000005"><a xlink:title=" ">
<path fill="none" stroke="#63b8ff" d="M145.34,-124C162.63,-124 180.77,-124 196.99,-124"/>
<polygon fill="#63b8ff" stroke="#63b8ff" points="196.9,-127.5 206.9,-124 196.9,-120.5 196.9,-127.5"/>
</a>
</g>
</g>
<!-- Node6 -->
<g id="Node000006" class="node">
<title>Node6</title>
<g id="a_Node000006"><a xlink:href="class_hospede.html#ae79a0fd4b49489fcde85744d2d7919cb" target="_top" xlink:title="Retorna o número de telefone do hóspede.">
<polygon fill="white" stroke="#666666" points="303.12,-96 197.88,-96 197.88,-76 303.12,-76 303.12,-96"/>
<text xml:space="preserve" text-anchor="middle" x="250.5" y="-82.5" font-family="Helvetica,sans-Serif" font-size="10.00">Hospede::HTelefone</text>
</a>
</g>
</g>
<!-- Node1&#45;&gt;Node6 -->
<g id="edge5_Node000001_Node000006" class="edge">
<title>Node1&#45;&gt;Node6</title>
<g id="a_edge5_Node000001_Node000006"><a xlink:title=" ">
<path fill="none" stroke="#63b8ff" d="M145.34,-108.49C160.11,-105.3 175.52,-101.97 189.81,-98.89"/>
<polygon fill="#63b8ff" stroke="#63b8ff" points="190.48,-102.32 199.52,-96.79 189,-95.48 190.48,-102.32"/>
</a>
</g>
</g>
<!-- Node7 -->
<g id="Node000007" class="node">
<title>Node7</title>
<g id="a_Node000007"><a xlink:href="class_reserva.html#a4795c2154ab9a851d080e71bb65c0452" target="_top" xlink:title="Retorna o hóspede associado à reserva.">
<polygon fill="white" stroke="#666666" points="303.12,-58 197.88,-58 197.88,-38 303.12,-38 303.12,-58"/>
<text xml:space="preserve" text-anchor="middle" x="250.5" y="-44.5" font-family="Helvetica,sans-Serif" font-size="10.00">Reserva::RHospede</text>
</a>
</g>
</g>
<!-- Node1&#45;&gt;Node7 -->
<g id="edge6_Node000001_Node000007" class="edge">
<title>Node1&#45;&gt;Node7</title>
<g id="a_edge6_Node000001_Node000007"><a xlink:title=" ">
<path fill="none" stroke="#63b8ff" d="M100.56,-107.54C121.84,-95.12 152.54,-78.33 181,-67 185.64,-65.15 190.52,-63.41 195.46,-61.8"/>
<polygon fill="#63b8ff" stroke="#63b8ff" points="196.31,-65.2 204.83,-58.9 194.24,-58.51 196.31,-65.2"/>
</a>
</g>
</g>
<!-- Node8 -->
<g id="Node000008" class="node">
<title>Node8</title>
<g id="a_Node000008"><a xlink:href="class_reserva.html#a0d57da37ede5e631558101df90748814" target="_top" xlink:title="Retorna o número identificador da reserva.">
<polygon fill="white" stroke="#666666" points="319.25,-20 181.75,-20 181.75,0 319.25,0 319.25,-20"/>
<text xml:space="preserve" text-anchor="middle" x="250.5" y="-6.5" font-family="Helvetica,sans-Serif" font-size="10.00">Reserva::RNumeroReserva</text>
</a>
</g>
</g>
<!-- Node1&#45;&gt;Node8 -->
<g id="edge7_Node000001_Node000008" class="edge">
<title>Node1&#45;&gt;Node8</title>
<g id="a_edge7_Node000001_Node000008"><a xlink:title=" ">
<path fill="none" stroke="#63b8ff" d="M87.47,-107.73C106.52,-86.55 142.69,-49.79 181,-29 184.05,-27.35 187.25,-25.83 190.54,-24.43"/>
<polygon fill="#63b8ff" stroke="#63b8ff" points="191.71,-27.73 199.83,-20.92 189.24,-21.18 191.71,-27.73"/>
</a>
</g>
</g>
</g>
</svg>
</svg>

<style type='text/css'>
<![CDATA[
[data-mouse-over-selected='false'] { opacity: 0.7; }
[data-mouse-over-selected='true']  { opacity: 1.0; }
]]>
</style>
<script type="application/ecmascript"><![CDATA[
document.addEventListener('DOMContentLoaded', (event) => {
  highlightEdges();
  highlightAdjacentNodes();
});
]]></script>
</svg>
