<?xml version="1.0" encoding="UTF-8" standalone="no"?>
<!DOCTYPE svg PUBLIC "-//W3C//DTD SVG 1.1//EN"
 "http://www.w3.org/Graphics/SVG/1.1/DTD/svg11.dtd">
<!-- Generated by graphviz version 14.0.2 (20251019.1705)
 -->
<!-- Title: Sistema::cadastrarQuarto Pages: 1 -->
<svg width="307pt" height="142pt"
 viewBox="0.00 0.00 307.00 142.00" xmlns="http://www.w3.org/2000/svg" xmlns:xlink="http://www.w3.org/1999/xlink">
<g id="graph0" class="graph" transform="scale(1 1) rotate(0) translate(4 138)">
<title>Sistema::cadastrarQuarto</title>
<!-- Node1 -->
<g id="Node000001" class="node">
<title>Node1</title>
<g id="a_Node000001"><a xlink:title=" ">
<polygon fill="#999999" stroke="#666666" points="127.75,-77 0,-77 0,-57 127.75,-57 127.75,-77"/>
<text xml:space="preserve" text-anchor="middle" x="63.88" y="-63.5" font-family="Helvetica,sans-Serif" font-size="10.00">Sistema::cadastrarQuarto</text>
</a>
</g>
</g>
<!-- Node2 -->
<g id="Node000002" class="node">
<title>Node2</title>
<g id="a_Node000002"><a xlink:href="class_quartos.html#a9c29a38b3c9293bee738f3eca7b28e98" target="_top" xlink:title="Retorna o número identificador do quarto.">
<polygon fill="white" stroke="#666666" points="280.62,-134 182.12,-134 182.12,-114 280.62,-114 280.62,-134"/>
<text xml:space="preserve" text-anchor="middle" x="231.38" y="-120.5" font-family="Helvetica,sans-Serif" font-size="10.00">Quartos::QNumero</text>
</a>
</g>
</g>
<!-- Node1&#45;&gt;Node2 -->
<g id="edge1_Node000001_Node000002" class="edge">
<title>Node1&#45;&gt;Node2</title>
<g id="a_edge1_Node000001_Node000002"><a xlink:title=" ">
<path fill="none" stroke="#63b8ff" d="M90.26,-77.47C110.1,-85.48 138.46,-96.55 163.75,-105 169.17,-106.81 174.88,-108.6 180.58,-110.32"/>
<polygon fill="#63b8ff" stroke="#63b8ff" points="179.41,-113.63 189.99,-113.1 181.39,-106.92 179.41,-113.63"/>
</a>
</g>
</g>
<!-- Node3 -->
<g id="Node000003" class="node">
<title>Node3</title>
<g id="a_Node000003"><a xlink:href="class_quartos.html#ab9829fdba2f9e15041192f9b06b99911" target="_top" xlink:title="Retorna o preço da diária do quarto.">
<polygon fill="white" stroke="#666666" points="276.12,-96 186.62,-96 186.62,-76 276.12,-76 276.12,-96"/>
<text xml:space="preserve" text-anchor="middle" x="231.38" y="-82.5" font-family="Helvetica,sans-Serif" font-size="10.00">Quartos::QPreco</text>
</a>
</g>
</g>
<!-- Node1&#45;&gt;Node3 -->
<g id="edge2_Node000001_Node000003" class="edge">
<title>Node1&#45;&gt;Node3</title>
<g id="a_edge2_Node000001_Node000003"><a xlink:title=" ">
<path fill="none" stroke="#63b8ff" d="M127.92,-74.24C143.42,-76.02 159.91,-77.91 175.02,-79.64"/>
<polygon fill="#63b8ff" stroke="#63b8ff" points="174.43,-83.1 184.76,-80.76 175.23,-76.15 174.43,-83.1"/>
</a>
</g>
</g>
<!-- Node4 -->
<g id="Node000004" class="node">
<title>Node4</title>
<g id="a_Node000004"><a xlink:href="class_quartos.html#a2a2a8efcf79e40dcbad6020b5931beca" target="_top" xlink:title="Retorna o tipo do quarto.">
<polygon fill="white" stroke="#666666" points="272.75,-58 190,-58 190,-38 272.75,-38 272.75,-58"/>
<text xml:space="preserve" text-anchor="middle" x="231.38" y="-44.5" font-family="Helvetica,sans-Serif" font-size="10.00">Quartos::QTipo</text>
</a>
</g>
</g>
<!-- Node1&#45;&gt;Node4 -->
<g id="edge3_Node000001_Node000004" class="edge">
<title>Node1&#45;&gt;Node4</title>
<g id="a_edge3_Node000001_Node000004"><a xlink:title=" ">
<path fill="none" stroke="#63b8ff" d="M127.92,-59.76C144.53,-57.86 162.27,-55.82 178.23,-53.99"/>
<polygon fill="#63b8ff" stroke="#63b8ff" points="178.47,-57.48 188,-52.86 177.67,-50.53 178.47,-57.48"/>
</a>
</g>
</g>
<!-- Node5 -->
<g id="Node000005" class="node">
<title>Node5</title>
<g id="a_Node000005"><a xlink:href="class_sistema.html#add783f8f18c922b1ff76f7109b87145f" target="_top" xlink:title=" ">
<polygon fill="white" stroke="#666666" points="299,-20 163.75,-20 163.75,0 299,0 299,-20"/>
<text xml:space="preserve" text-anchor="middle" x="231.38" y="-6.5" font-family="Helvetica,sans-Serif" font-size="10.00">Sistema::quartoCadastrado</text>
</a>
</g>
</g>
<!-- Node1&#45;&gt;Node5 -->
<g id="edge4_Node000001_Node000005" class="edge">
<title>Node1&#45;&gt;Node5</title>
<g id="a_edge4_Node000001_Node000005"><a xlink:title=" ">
<path fill="none" stroke="#63b8ff" d="M90.26,-56.53C110.1,-48.52 138.46,-37.45 163.75,-29 169.17,-27.19 174.88,-25.4 180.58,-23.68"/>
<polygon fill="#63b8ff" stroke="#63b8ff" points="181.39,-27.08 189.99,-20.9 179.41,-20.37 181.39,-27.08"/>
</a>
</g>
</g>
</g>
</svg>
