<?xml version="1.0" encoding="UTF-8" standalone="no"?>
<!DOCTYPE svg PUBLIC "-//W3C//DTD SVG 1.1//EN"
 "http://www.w3.org/Graphics/SVG/1.1/DTD/svg11.dtd">
<!-- Generated by graphviz version 14.0.2 (20251019.1705)
 -->
<!-- Title: Quartos::QTipo Pages: 1 -->
<svg width="356pt" height="78pt"
 viewBox="0.00 0.00 356.00 78.00" xmlns="http://www.w3.org/2000/svg" xmlns:xlink="http://www.w3.org/1999/xlink">

<svg id="main" version="1.1" xmlns="http://www.w3.org/2000/svg" xmlns:xlink="http://www.w3.org/1999/xlink" xml:space="preserve">

<style type="text/css"><![CDATA[
.node, .edge {opacity: 0.7;}
.node.selected, .edge.selected {opacity: 1;}
.edge:hover path { stroke: red; }
.edge:hover polygon { stroke: red; fill: red; }
]]></style>
<script type="application/ecmascript" xlink:href="svg.min.js"/>
<svg id="graph" class="graph">
<g id="graph0" class="graph" transform="scale(1 1) rotate(0) translate(4 74)">
<title>Quartos::QTipo</title>
<!-- Node1 -->
<g id="Node000001" class="node">
<title>Node1</title>
<g id="a_Node000001"><a xlink:title="Retorna o tipo do quarto.">
<polygon fill="#999999" stroke="#666666" points="348,-48 265.25,-48 265.25,-28 348,-28 348,-48"/>
<text xml:space="preserve" text-anchor="middle" x="306.62" y="-34.5" font-family="Helvetica,sans-Serif" font-size="10.00">Quartos::QTipo</text>
</a>
</g>
</g>
<!-- Node2 -->
<g id="Node000002" class="node">
<title>Node2</title>
<g id="a_Node000002"><a xlink:href="class_sistema.html#a0d8dbb4fa2ab6df84be4ed0c4c051aaa" target="_top" xlink:title=" ">
<polygon fill="white" stroke="#666666" points="215,-70 87.25,-70 87.25,-50 215,-50 215,-70"/>
<text xml:space="preserve" text-anchor="middle" x="151.12" y="-56.5" font-family="Helvetica,sans-Serif" font-size="10.00">Sistema::cadastrarQuarto</text>
</a>
</g>
</g>
<!-- Node1&#45;&gt;Node2 -->
<g id="edge1_Node000001_Node000002" class="edge">
<title>Node1&#45;&gt;Node2</title>
<g id="a_edge1_Node000001_Node000002"><a xlink:title=" ">
<path fill="none" stroke="#63b8ff" d="M253.86,-45.42C241.49,-47.19 228.16,-49.1 215.35,-50.94"/>
<polygon fill="#63b8ff" stroke="#63b8ff" points="253.99,-48.94 263.39,-44.05 253,-42.01 253.99,-48.94"/>
</a>
</g>
</g>
<!-- Node4 -->
<g id="Node000004" class="node">
<title>Node4</title>
<g id="a_Node000004"><a xlink:href="class_sistema.html#a8f75885af16b3e03ee0e2e459c0c2404" target="_top" xlink:title=" ">
<polygon fill="white" stroke="#666666" points="229.25,-32 73,-32 73,0 229.25,0 229.25,-32"/>
<text xml:space="preserve" text-anchor="start" x="81" y="-18.5" font-family="Helvetica,sans-Serif" font-size="10.00">Sistema::mostrarDadosReserva</text>
<text xml:space="preserve" text-anchor="middle" x="151.12" y="-6.5" font-family="Helvetica,sans-Serif" font-size="10.00">Completa</text>
</a>
</g>
</g>
<!-- Node1&#45;&gt;Node4 -->
<g id="edge3_Node000001_Node000004" class="edge">
<title>Node1&#45;&gt;Node4</title>
<g id="a_edge3_Node000001_Node000004"><a xlink:title=" ">
<path fill="none" stroke="#63b8ff" d="M253.5,-30.53C245.78,-29.42 237.68,-28.26 229.58,-27.1"/>
<polygon fill="#63b8ff" stroke="#63b8ff" points="253,-33.99 263.39,-31.95 253.99,-27.06 253,-33.99"/>
</a>
</g>
</g>
<!-- Node3 -->
<g id="Node000003" class="node">
<title>Node3</title>
<g id="a_Node000003"><a xlink:href="main_8cpp.html#ae66f6b31b5ad750f1fe042a706a4e3d4" target="_top" xlink:title="Função principal do sistema de hotel.">
<polygon fill="white" stroke="#666666" points="37,-48 0,-48 0,-28 37,-28 37,-48"/>
<text xml:space="preserve" text-anchor="middle" x="18.5" y="-34.5" font-family="Helvetica,sans-Serif" font-size="10.00">main</text>
</a>
</g>
</g>
<!-- Node2&#45;&gt;Node3 -->
<g id="edge2_Node000002_Node000003" class="edge">
<title>Node2&#45;&gt;Node3</title>
<g id="a_edge2_Node000002_Node000003"><a xlink:title=" ">
<path fill="none" stroke="#63b8ff" d="M76.59,-47.62C61.91,-45.14 47.8,-42.77 37.28,-40.99"/>
<polygon fill="#63b8ff" stroke="#63b8ff" points="75.94,-51.05 86.38,-49.26 77.1,-44.15 75.94,-51.05"/>
</a>
</g>
</g>
<!-- Node4&#45;&gt;Node3 -->
<g id="edge4_Node000004_Node000003" class="edge">
<title>Node4&#45;&gt;Node3</title>
<g id="a_edge4_Node000004_Node000003"><a xlink:title=" ">
<path fill="none" stroke="#63b8ff" d="M61.42,-30.94C52.47,-32.45 44.18,-33.84 37.39,-34.99"/>
<polygon fill="#63b8ff" stroke="#63b8ff" points="61.86,-34.42 71.14,-29.3 60.7,-27.51 61.86,-34.42"/>
</a>
</g>
</g>
</g>
</svg>
</svg>

<style type='text/css'>
<![CDATA[
[data-mouse-over-selected='false'] { opacity: 0.7; }
[data-mouse-over-selected='true']  { opacity: 1.0; }
]]>
</style>
<script type="application/ecmascript"><![CDATA[
document.addEventListener('DOMContentLoaded', (event) => {
  highlightEdges();
  highlightAdjacentNodes();
});
]]></script>
</svg>
