<?xml version="1.0" encoding="UTF-8" standalone="no"?>
<!DOCTYPE svg PUBLIC "-//W3C//DTD SVG 1.1//EN"
 "http://www.w3.org/Graphics/SVG/1.1/DTD/svg11.dtd">
<!-- Generated by graphviz version 14.0.2 (20251019.1705)
 -->
<!-- Title: main Pages: 1 -->
<!--zoomable 824 -->

<svg id="main" version="1.1" xmlns="http://www.w3.org/2000/svg" xmlns:xlink="http://www.w3.org/1999/xlink" xml:space="preserve" onload="init(evt)">

<style type="text/css"><![CDATA[
.node, .edge {opacity: 0.7;}
.node.selected, .edge.selected {opacity: 1;}
.edge:hover path { stroke: red; }
.edge:hover polygon { stroke: red; fill: red; }
]]></style>

<defs>
  <circle id="rim" cx="0" cy="0" r="7"/>
  <circle id="rim2" cx="0" cy="0" r="3.5"/>
  <g id="zoomPlus">
    <use xlink:href="#rim" fill="#404040"><set attributeName="fill" to="#808080" begin="zoomplus.mouseover" end="zoomplus.mouseout"/></use>
    <path d="M-4,0h8M0,-4v8" fill="none" stroke="white" stroke-width="1.5" pointer-events="none"/>
  </g>
  <g id="zoomMin">
    <use xlink:href="#rim" fill="#404040"><set attributeName="fill" to="#808080" begin="zoomminus.mouseover" end="zoomminus.mouseout"/></use>
    <path d="M-4,0h8" fill="none" stroke="white" stroke-width="1.5" pointer-events="none"/>
  </g>
  <g id="arrowUp" transform="translate(30 24)">
    <use xlink:href="#rim"/>
    <path pointer-events="none" fill="none" stroke="white" stroke-width="1.5" d="M0,-3.0v7 M-2.5,-0.5L0,-3.0L2.5,-0.5"/>
  </g>
  <g id="arrowRight" transform="rotate(90) translate(36 -43)">
    <use xlink:href="#rim"/>
    <path pointer-events="none" fill="none" stroke="white" stroke-width="1.5" d="M0,-3.0v7 M-2.5,-0.5L0,-3.0L2.5,-0.5"/>
  </g>
  <g id="arrowDown" transform="rotate(180) translate(-30 -48)">
    <use xlink:href="#rim"/>
    <path pointer-events="none" fill="none" stroke="white" stroke-width="1.5" d="M0,-3.0v7 M-2.5,-0.5L0,-3.0L2.5,-0.5"/>
  </g>
  <g id="arrowLeft" transform="rotate(270) translate(-36 17)">
    <use xlink:href="#rim"/>
    <path pointer-events="none" fill="none" stroke="white" stroke-width="1.5" d="M0,-3.0v7 M-2.5,-0.5L0,-3.0L2.5,-0.5"/>
  </g>
  <g id="resetDef">
    <use xlink:href="#rim2" fill="#404040"><set attributeName="fill" to="#808080" begin="reset.mouseover" end="reset.mouseout"/></use>
  </g>
</defs>
<script type="application/ecmascript">
var viewWidth = 418;
var viewHeight = 824;
var sectionId = 'dynsection-1';
</script>
<script type="application/ecmascript" xlink:href="svg.min.js"/>
<svg id="graph" class="graph">
<g id="viewport">
<title>main</title>
<!-- Node1 -->
<g id="Node000001" class="node">
<title>Node1</title>
<g id="a_Node000001"><a xlink:title="Função principal do sistema de hotel.">
<polygon fill="#999999" stroke="#666666" points="37,-488 0,-488 0,-468 37,-468 37,-488"/>
<text xml:space="preserve" text-anchor="middle" x="18.5" y="-474.5" font-family="Helvetica,sans-Serif" font-size="10.00">main</text>
</a>
</g>
</g>
<!-- Node2 -->
<g id="Node000002" class="node">
<title>Node2</title>
<g id="a_Node000002"><a xlink:href="class_sistema.html#af2f1272b90b3756bcc2f3e0d714320d8" target="_top" xlink:title=" ">
<polygon fill="white" stroke="#666666" points="221.75,-816 80.5,-816 80.5,-784 221.75,-784 221.75,-816"/>
<text xml:space="preserve" text-anchor="start" x="88.5" y="-802.5" font-family="Helvetica,sans-Serif" font-size="10.00">Sistema::buscarHospedePor</text>
<text xml:space="preserve" text-anchor="middle" x="151.12" y="-790.5" font-family="Helvetica,sans-Serif" font-size="10.00">Codigo</text>
</a>
</g>
</g>
<!-- Node1&#45;&gt;Node2 -->
<g id="edge1_Node000001_Node000002" class="edge">
<title>Node1&#45;&gt;Node2</title>
<g id="a_edge1_Node000001_Node000002"><a xlink:title=" ">
<path fill="none" stroke="#63b8ff" d="M19.97,-488.37C22.34,-535.69 34.32,-730.7 73,-775 73.36,-775.41 73.72,-775.82 74.1,-776.21"/>
<polygon fill="#63b8ff" stroke="#63b8ff" points="71.74,-778.81 81.62,-782.64 76.29,-773.49 71.74,-778.81"/>
</a>
</g>
</g>
<!-- Node3 -->
<g id="Node000003" class="node">
<title>Node3</title>
<g id="a_Node000003"><a xlink:href="class_sistema.html#ae1154865b6df8949efea4ad40e89da0b" target="_top" xlink:title=" ">
<polygon fill="white" stroke="#666666" points="216.88,-766 85.38,-766 85.38,-734 216.88,-734 216.88,-766"/>
<text xml:space="preserve" text-anchor="start" x="93.38" y="-752.5" font-family="Helvetica,sans-Serif" font-size="10.00">Sistema::buscarQuartoPor</text>
<text xml:space="preserve" text-anchor="middle" x="151.12" y="-740.5" font-family="Helvetica,sans-Serif" font-size="10.00">Numero</text>
</a>
</g>
</g>
<!-- Node1&#45;&gt;Node3 -->
<g id="edge2_Node000001_Node000003" class="edge">
<title>Node1&#45;&gt;Node3</title>
<g id="a_edge2_Node000001_Node000003"><a xlink:title=" ">
<path fill="none" stroke="#63b8ff" d="M20.49,-488.31C24.67,-529.78 42.05,-683.9 73,-720 75.26,-722.64 77.79,-725.05 80.51,-727.25"/>
<polygon fill="#63b8ff" stroke="#63b8ff" points="78.28,-729.97 88.51,-732.73 82.23,-724.19 78.28,-729.97"/>
</a>
</g>
</g>
<!-- Node4 -->
<g id="Node000004" class="node">
<title>Node4</title>
<g id="a_Node000004"><a xlink:href="class_sistema.html#a866bfc58977f5297921b099faae2c835" target="_top" xlink:title=" ">
<polygon fill="white" stroke="#666666" points="219.88,-640 82.38,-640 82.38,-620 219.88,-620 219.88,-640"/>
<text xml:space="preserve" text-anchor="middle" x="151.12" y="-626.5" font-family="Helvetica,sans-Serif" font-size="10.00">Sistema::cadastrarHospede</text>
</a>
</g>
</g>
<!-- Node1&#45;&gt;Node4 -->
<g id="edge3_Node000001_Node000004" class="edge">
<title>Node1&#45;&gt;Node4</title>
<g id="a_edge3_Node000001_Node000004"><a xlink:title=" ">
<path fill="none" stroke="#63b8ff" d="M20.83,-488.31C24.51,-512.49 37.02,-573.26 73,-606 76.72,-609.38 80.91,-612.29 85.36,-614.79"/>
<polygon fill="#63b8ff" stroke="#63b8ff" points="83.56,-617.81 94.09,-618.97 86.59,-611.49 83.56,-617.81"/>
</a>
</g>
</g>
<!-- Node5 -->
<g id="Node000005" class="node">
<title>Node5</title>
<g id="a_Node000005"><a xlink:href="class_hospede.html#aa214ce430b6b5b37aac6f3b7a56bbc5c" target="_top" xlink:title="Retorna o código identificador do hóspede.">
<polygon fill="white" stroke="#666666" points="387.38,-716 288.12,-716 288.12,-696 387.38,-696 387.38,-716"/>
<text xml:space="preserve" text-anchor="middle" x="337.75" y="-702.5" font-family="Helvetica,sans-Serif" font-size="10.00">Hospede::HCodigo</text>
</a>
</g>
</g>
<!-- Node1&#45;&gt;Node5 -->
<g id="edge24_Node000001_Node000005" class="edge">
<title>Node1&#45;&gt;Node5</title>
<g id="a_edge24_Node000001_Node000005"><a xlink:title=" ">
<path fill="none" stroke="#63b8ff" d="M20.67,-488.45C25.16,-526.41 42.54,-656.21 73,-682 129.5,-729.84 219.27,-726.99 278.1,-718.3"/>
<polygon fill="#63b8ff" stroke="#63b8ff" points="278.62,-721.76 287.94,-716.73 277.52,-714.85 278.62,-721.76"/>
</a>
</g>
</g>
<!-- Node7 -->
<g id="Node000007" class="node">
<title>Node7</title>
<g id="a_Node000007"><a xlink:href="class_hospede.html#a41b3ad99025bbcf9a6e7e811d891b79e" target="_top" xlink:title="Retorna o documento de identificação (RG) do hóspede.">
<polygon fill="white" stroke="#666666" points="379.5,-678 296,-678 296,-658 379.5,-658 379.5,-678"/>
<text xml:space="preserve" text-anchor="middle" x="337.75" y="-664.5" font-family="Helvetica,sans-Serif" font-size="10.00">Hospede::HRG</text>
</a>
</g>
</g>
<!-- Node1&#45;&gt;Node7 -->
<g id="edge27_Node000001_Node000007" class="edge">
<title>Node1&#45;&gt;Node7</title>
<g id="a_edge27_Node000001_Node000007"><a xlink:title=" ">
<path fill="none" stroke="#63b8ff" d="M19.11,-488.22C18.57,-518.51 21.54,-608.25 73,-649 132.89,-696.42 226.36,-690.22 284.45,-680.07"/>
<polygon fill="#63b8ff" stroke="#63b8ff" points="284.9,-683.55 294.09,-678.28 283.62,-676.67 284.9,-683.55"/>
</a>
</g>
</g>
<!-- Node8 -->
<g id="Node000008" class="node">
<title>Node8</title>
<g id="a_Node000008"><a xlink:href="class_hospede.html#ae79a0fd4b49489fcde85744d2d7919cb" target="_top" xlink:title="Retorna o número de telefone do hóspede.">
<polygon fill="white" stroke="#666666" points="390.38,-602 285.12,-602 285.12,-582 390.38,-582 390.38,-602"/>
<text xml:space="preserve" text-anchor="middle" x="337.75" y="-588.5" font-family="Helvetica,sans-Serif" font-size="10.00">Hospede::HTelefone</text>
</a>
</g>
</g>
<!-- Node1&#45;&gt;Node8 -->
<g id="edge28_Node000001_Node000008" class="edge">
<title>Node1&#45;&gt;Node8</title>
<g id="a_edge28_Node000001_Node000008"><a xlink:title=" ">
<path fill="none" stroke="#63b8ff" d="M21.85,-488.25C27.1,-508.46 41.82,-553.24 73,-573 132.86,-610.94 216.43,-610.03 273.35,-603.33"/>
<polygon fill="#63b8ff" stroke="#63b8ff" points="273.74,-606.81 283.21,-602.07 272.85,-599.87 273.74,-606.81"/>
</a>
</g>
</g>
<!-- Node9 -->
<g id="Node000009" class="node">
<title>Node9</title>
<g id="a_Node000009"><a xlink:href="class_sistema.html#a0d8dbb4fa2ab6df84be4ed0c4c051aaa" target="_top" xlink:title=" ">
<polygon fill="white" stroke="#666666" points="215,-450 87.25,-450 87.25,-430 215,-430 215,-450"/>
<text xml:space="preserve" text-anchor="middle" x="151.12" y="-436.5" font-family="Helvetica,sans-Serif" font-size="10.00">Sistema::cadastrarQuarto</text>
</a>
</g>
</g>
<!-- Node1&#45;&gt;Node9 -->
<g id="edge8_Node000001_Node000009" class="edge">
<title>Node1&#45;&gt;Node9</title>
<g id="a_edge8_Node000001_Node000009"><a xlink:title=" ">
<path fill="none" stroke="#63b8ff" d="M37.19,-471.22C47.54,-467.37 60.92,-462.62 73,-459 79.67,-457 86.72,-455.05 93.73,-453.2"/>
<polygon fill="#63b8ff" stroke="#63b8ff" points="94.37,-456.65 103.19,-450.78 92.63,-449.87 94.37,-456.65"/>
</a>
</g>
</g>
<!-- Node14 -->
<g id="Node000014" class="node">
<title>Node14</title>
<g id="a_Node000014"><a xlink:href="class_sistema.html#ab5d01c8fea43349d61ff29453a8917e1" target="_top" xlink:title=" ">
<polygon fill="white" stroke="#666666" points="207.88,-404 94.38,-404 94.38,-384 207.88,-384 207.88,-404"/>
<text xml:space="preserve" text-anchor="middle" x="151.12" y="-390.5" font-family="Helvetica,sans-Serif" font-size="10.00">Sistema::criarReserva</text>
</a>
</g>
</g>
<!-- Node1&#45;&gt;Node14 -->
<g id="edge13_Node000001_Node000014" class="edge">
<title>Node1&#45;&gt;Node14</title>
<g id="a_edge13_Node000001_Node000014"><a xlink:title=" ">
<path fill="none" stroke="#63b8ff" d="M26.68,-467.73C36.01,-455.09 53.43,-433.73 73,-421 80.69,-415.99 89.42,-411.79 98.17,-408.31"/>
<polygon fill="#63b8ff" stroke="#63b8ff" points="99.19,-411.67 107.37,-404.94 96.78,-405.1 99.19,-411.67"/>
</a>
</g>
</g>
<!-- Node21 -->
<g id="Node000021" class="node">
<title>Node21</title>
<g id="a_Node000021"><a xlink:href="class_quartos.html#ac7951df1aa8bc82644443e2673862692" target="_top" xlink:title="Verifica se o quarto está ocupado.">
<polygon fill="white" stroke="#666666" points="208.25,-488 94,-488 94,-468 208.25,-468 208.25,-488"/>
<text xml:space="preserve" text-anchor="middle" x="151.12" y="-474.5" font-family="Helvetica,sans-Serif" font-size="10.00">Quartos::estaOcupado</text>
</a>
</g>
</g>
<!-- Node1&#45;&gt;Node21 -->
<g id="edge23_Node000001_Node000021" class="edge">
<title>Node1&#45;&gt;Node21</title>
<g id="a_edge23_Node000001_Node000021"><a xlink:title=" ">
<path fill="none" stroke="#63b8ff" d="M37.39,-478C49.25,-478 65.65,-478 82.27,-478"/>
<polygon fill="#63b8ff" stroke="#63b8ff" points="82.24,-481.5 92.24,-478 82.24,-474.5 82.24,-481.5"/>
</a>
</g>
</g>
<!-- Node22 -->
<g id="Node000022" class="node">
<title>Node22</title>
<g id="a_Node000022"><a xlink:href="class_hospede.html#a22dc1c4cb834a9717076bbc4679639e4" target="_top" xlink:title="Retorna o endereço de e&#45;mail do hóspede.">
<polygon fill="white" stroke="#666666" points="384.38,-58 291.12,-58 291.12,-38 384.38,-38 384.38,-58"/>
<text xml:space="preserve" text-anchor="middle" x="337.75" y="-44.5" font-family="Helvetica,sans-Serif" font-size="10.00">Hospede::HEmail</text>
</a>
</g>
</g>
<!-- Node1&#45;&gt;Node22 -->
<g id="edge25_Node000001_Node000022" class="edge">
<title>Node1&#45;&gt;Node22</title>
<g id="a_edge25_Node000001_Node000022"><a xlink:title=" ">
<path fill="none" stroke="#63b8ff" d="M20.38,-467.73C24.39,-422.53 42.14,-241.58 73,-195 129.69,-109.43 171.67,-109.19 265.25,-67 270.05,-64.84 275.14,-62.88 280.31,-61.12"/>
<polygon fill="#63b8ff" stroke="#63b8ff" points="281.03,-64.56 289.52,-58.23 278.93,-57.88 281.03,-64.56"/>
</a>
</g>
</g>
<!-- Node23 -->
<g id="Node000023" class="node">
<title>Node23</title>
<g id="a_Node000023"><a xlink:href="class_hospede.html#a3f7e244ec10a26db6411f8b915d67047" target="_top" xlink:title="Retorna o nome do hóspede.">
<polygon fill="white" stroke="#666666" points="385.12,-20 290.38,-20 290.38,0 385.12,0 385.12,-20"/>
<text xml:space="preserve" text-anchor="middle" x="337.75" y="-6.5" font-family="Helvetica,sans-Serif" font-size="10.00">Hospede::HNome</text>
</a>
</g>
</g>
<!-- Node1&#45;&gt;Node23 -->
<g id="edge26_Node000001_Node000023" class="edge">
<title>Node1&#45;&gt;Node23</title>
<g id="a_edge26_Node000001_Node000023"><a xlink:title=" ">
<path fill="none" stroke="#63b8ff" d="M19.39,-467.62C19.01,-410.92 19.99,-138.95 73,-79 124.33,-20.96 217.86,-8.93 278.63,-7.81"/>
<polygon fill="#63b8ff" stroke="#63b8ff" points="278.47,-11.31 288.44,-7.73 278.41,-4.31 278.47,-11.31"/>
</a>
</g>
</g>
<!-- Node24 -->
<g id="Node000024" class="node">
<title>Node24</title>
<g id="a_Node000024"><a xlink:href="class_sistema.html#abeae5379fa32859346fc1231641f9ff9" target="_top" xlink:title=" ">
<polygon fill="white" stroke="#666666" points="207.88,-564 94.38,-564 94.38,-544 207.88,-544 207.88,-564"/>
<text xml:space="preserve" text-anchor="middle" x="151.12" y="-550.5" font-family="Helvetica,sans-Serif" font-size="10.00">Sistema::liberarQuarto</text>
</a>
</g>
</g>
<!-- Node1&#45;&gt;Node24 -->
<g id="edge29_Node000001_Node000024" class="edge">
<title>Node1&#45;&gt;Node24</title>
<g id="a_edge29_Node000001_Node000024"><a xlink:title=" ">
<path fill="none" stroke="#63b8ff" d="M26.18,-488.13C35.23,-501.03 52.62,-523.08 73,-535 76.38,-536.97 79.95,-538.75 83.64,-540.33"/>
<polygon fill="#63b8ff" stroke="#63b8ff" points="82.25,-543.55 92.84,-543.8 84.72,-537 82.25,-543.55"/>
</a>
</g>
</g>
<!-- Node25 -->
<g id="Node000025" class="node">
<title>Node25</title>
<g id="a_Node000025"><a xlink:href="class_sistema.html#a2dedda4448c3441a6e1d63dde38761e0" target="_top" xlink:title=" ">
<polygon fill="white" stroke="#666666" points="212.75,-300 89.5,-300 89.5,-280 212.75,-280 212.75,-300"/>
<text xml:space="preserve" text-anchor="middle" x="151.12" y="-286.5" font-family="Helvetica,sans-Serif" font-size="10.00">Sistema::listarHospedes</text>
</a>
</g>
</g>
<!-- Node1&#45;&gt;Node25 -->
<g id="edge31_Node000001_Node000025" class="edge">
<title>Node1&#45;&gt;Node25</title>
<g id="a_edge31_Node000001_Node000025"><a xlink:title=" ">
<path fill="none" stroke="#63b8ff" d="M19.49,-467.87C20.05,-438.6 25.84,-353.19 73,-309 75,-307.13 77.14,-305.44 79.41,-303.9"/>
<polygon fill="#63b8ff" stroke="#63b8ff" points="80.91,-307.07 87.98,-299.18 77.53,-300.94 80.91,-307.07"/>
</a>
</g>
</g>
<!-- Node26 -->
<g id="Node000026" class="node">
<title>Node26</title>
<g id="a_Node000026"><a xlink:href="class_sistema.html#a3cd545d8b556e0cd730edc14799b7690" target="_top" xlink:title=" ">
<polygon fill="white" stroke="#666666" points="207.88,-262 94.38,-262 94.38,-242 207.88,-242 207.88,-262"/>
<text xml:space="preserve" text-anchor="middle" x="151.12" y="-248.5" font-family="Helvetica,sans-Serif" font-size="10.00">Sistema::listarQuartos</text>
</a>
</g>
</g>
<!-- Node1&#45;&gt;Node26 -->
<g id="edge32_Node000001_Node000026" class="edge">
<title>Node1&#45;&gt;Node26</title>
<g id="a_edge32_Node000001_Node000026"><a xlink:title=" ">
<path fill="none" stroke="#63b8ff" d="M20.78,-467.55C25.66,-429.55 44.23,-299.45 73,-271 76.22,-267.82 79.88,-265.14 83.81,-262.89"/>
<polygon fill="#63b8ff" stroke="#63b8ff" points="85.1,-266.15 92.7,-258.77 82.15,-259.8 85.1,-266.15"/>
</a>
</g>
</g>
<!-- Node27 -->
<g id="Node000027" class="node">
<title>Node27</title>
<g id="a_Node000027"><a xlink:href="class_sistema.html#ac3e686711c584be14a20720be4d31e9c" target="_top" xlink:title=" ">
<polygon fill="white" stroke="#666666" points="222.12,-224 80.12,-224 80.12,-204 222.12,-204 222.12,-224"/>
<text xml:space="preserve" text-anchor="middle" x="151.12" y="-210.5" font-family="Helvetica,sans-Serif" font-size="10.00">Sistema::listarStatusQuartos</text>
</a>
</g>
</g>
<!-- Node1&#45;&gt;Node27 -->
<g id="edge33_Node000001_Node000027" class="edge">
<title>Node1&#45;&gt;Node27</title>
<g id="a_edge33_Node000001_Node000027"><a xlink:title=" ">
<path fill="none" stroke="#63b8ff" d="M20.32,-467.73C23.88,-425.73 39.36,-267.54 73,-233 73.74,-232.24 74.5,-231.52 75.28,-230.81"/>
<polygon fill="#63b8ff" stroke="#63b8ff" points="77.1,-233.82 83.22,-225.18 73.04,-228.11 77.1,-233.82"/>
</a>
</g>
</g>
<!-- Node28 -->
<g id="Node000028" class="node">
<title>Node28</title>
<g id="a_Node000028"><a xlink:href="class_sistema.html#a8f75885af16b3e03ee0e2e459c0c2404" target="_top" xlink:title=" ">
<polygon fill="white" stroke="#666666" points="229.25,-350 73,-350 73,-318 229.25,-318 229.25,-350"/>
<text xml:space="preserve" text-anchor="start" x="81" y="-336.5" font-family="Helvetica,sans-Serif" font-size="10.00">Sistema::mostrarDadosReserva</text>
<text xml:space="preserve" text-anchor="middle" x="151.12" y="-324.5" font-family="Helvetica,sans-Serif" font-size="10.00">Completa</text>
</a>
</g>
</g>
<!-- Node1&#45;&gt;Node28 -->
<g id="edge34_Node000001_Node000028" class="edge">
<title>Node1&#45;&gt;Node28</title>
<g id="a_edge34_Node000001_Node000028"><a xlink:title=" ">
<path fill="none" stroke="#63b8ff" d="M22.55,-467.69C28.95,-447.6 45.49,-402.77 73,-375 80.37,-367.56 89.37,-361.16 98.59,-355.76"/>
<polygon fill="#63b8ff" stroke="#63b8ff" points="100.17,-358.89 107.28,-351.03 96.82,-352.74 100.17,-358.89"/>
</a>
</g>
</g>
<!-- Node32 -->
<g id="Node000032" class="node">
<title>Node32</title>
<g id="a_Node000032"><a xlink:href="class_sistema.html#a2cfde648109d395e55ddf6ad379f3190" target="_top" xlink:title=" ">
<polygon fill="white" stroke="#666666" points="209.38,-526 92.88,-526 92.88,-506 209.38,-506 209.38,-526"/>
<text xml:space="preserve" text-anchor="middle" x="151.12" y="-512.5" font-family="Helvetica,sans-Serif" font-size="10.00">Sistema::ocuparQuarto</text>
</a>
</g>
</g>
<!-- Node1&#45;&gt;Node32 -->
<g id="edge49_Node000001_Node000032" class="edge">
<title>Node1&#45;&gt;Node32</title>
<g id="a_edge49_Node000001_Node000032"><a xlink:title=" ">
<path fill="none" stroke="#63b8ff" d="M37.19,-484.78C47.54,-488.63 60.92,-493.38 73,-497 79.67,-499 86.72,-500.95 93.73,-502.8"/>
<polygon fill="#63b8ff" stroke="#63b8ff" points="92.63,-506.13 103.19,-505.22 94.37,-499.35 92.63,-506.13"/>
</a>
</g>
</g>
<!-- Node4&#45;&gt;Node5 -->
<g id="edge4_Node000004_Node000005" class="edge">
<title>Node4&#45;&gt;Node5</title>
<g id="a_edge4_Node000004_Node000005"><a xlink:title=" ">
<path fill="none" stroke="#63b8ff" d="M170.02,-640.48C191.88,-652.94 230.3,-673.72 265.25,-687 270.24,-688.9 275.49,-690.68 280.8,-692.33"/>
<polygon fill="#63b8ff" stroke="#63b8ff" points="279.64,-695.64 290.22,-695.12 281.62,-688.93 279.64,-695.64"/>
</a>
</g>
</g>
<!-- Node6 -->
<g id="Node000006" class="node">
<title>Node6</title>
<g id="a_Node000006"><a xlink:href="class_sistema.html#a17820cf4c4402f8d205e78c7dc793988" target="_top" xlink:title=" ">
<polygon fill="white" stroke="#666666" points="410.25,-640 265.25,-640 265.25,-620 410.25,-620 410.25,-640"/>
<text xml:space="preserve" text-anchor="middle" x="337.75" y="-626.5" font-family="Helvetica,sans-Serif" font-size="10.00">Sistema::hospedeCadastrado</text>
</a>
</g>
</g>
<!-- Node4&#45;&gt;Node6 -->
<g id="edge5_Node000004_Node000006" class="edge">
<title>Node4&#45;&gt;Node6</title>
<g id="a_edge5_Node000004_Node000006"><a xlink:title=" ">
<path fill="none" stroke="#63b8ff" d="M220.35,-630C231.1,-630 242.32,-630 253.36,-630"/>
<polygon fill="#63b8ff" stroke="#63b8ff" points="253.27,-633.5 263.27,-630 253.27,-626.5 253.27,-633.5"/>
</a>
</g>
</g>
<!-- Node4&#45;&gt;Node7 -->
<g id="edge6_Node000004_Node000007" class="edge">
<title>Node4&#45;&gt;Node7</title>
<g id="a_edge6_Node000004_Node000007"><a xlink:title=" ">
<path fill="none" stroke="#63b8ff" d="M203.06,-640.48C228.45,-645.71 259.09,-652.02 284.63,-657.27"/>
<polygon fill="#63b8ff" stroke="#63b8ff" points="283.62,-660.64 294.12,-659.23 285.03,-653.78 283.62,-660.64"/>
</a>
</g>
</g>
<!-- Node4&#45;&gt;Node8 -->
<g id="edge7_Node000004_Node000008" class="edge">
<title>Node4&#45;&gt;Node8</title>
<g id="a_edge7_Node000004_Node000008"><a xlink:title=" ">
<path fill="none" stroke="#63b8ff" d="M203.06,-619.52C225.26,-614.95 251.48,-609.55 274.8,-604.75"/>
<polygon fill="#63b8ff" stroke="#63b8ff" points="275.41,-608.2 284.5,-602.76 274,-601.34 275.41,-608.2"/>
</a>
</g>
</g>
<!-- Node10 -->
<g id="Node000010" class="node">
<title>Node10</title>
<g id="a_Node000010"><a xlink:href="class_quartos.html#a9c29a38b3c9293bee738f3eca7b28e98" target="_top" xlink:title="Retorna o número identificador do quarto.">
<polygon fill="white" stroke="#666666" points="387,-374 288.5,-374 288.5,-354 387,-354 387,-374"/>
<text xml:space="preserve" text-anchor="middle" x="337.75" y="-360.5" font-family="Helvetica,sans-Serif" font-size="10.00">Quartos::QNumero</text>
</a>
</g>
</g>
<!-- Node9&#45;&gt;Node10 -->
<g id="edge9_Node000009_Node000010" class="edge">
<title>Node9&#45;&gt;Node10</title>
<g id="a_edge9_Node000009_Node000010"><a xlink:title=" ">
<path fill="none" stroke="#63b8ff" d="M190.57,-429.55C203.31,-425.31 217.28,-419.79 229.25,-413 247.37,-402.73 246.75,-392.57 265.25,-383 269.18,-380.97 273.35,-379.14 277.62,-377.49"/>
<polygon fill="#63b8ff" stroke="#63b8ff" points="278.63,-380.85 286.93,-374.27 276.34,-374.23 278.63,-380.85"/>
</a>
</g>
</g>
<!-- Node11 -->
<g id="Node000011" class="node">
<title>Node11</title>
<g id="a_Node000011"><a xlink:href="class_quartos.html#ab9829fdba2f9e15041192f9b06b99911" target="_top" xlink:title="Retorna o preço da diária do quarto.">
<polygon fill="white" stroke="#666666" points="382.5,-450 293,-450 293,-430 382.5,-430 382.5,-450"/>
<text xml:space="preserve" text-anchor="middle" x="337.75" y="-436.5" font-family="Helvetica,sans-Serif" font-size="10.00">Quartos::QPreco</text>
</a>
</g>
</g>
<!-- Node9&#45;&gt;Node11 -->
<g id="edge10_Node000009_Node000011" class="edge">
<title>Node9&#45;&gt;Node11</title>
<g id="a_edge10_Node000009_Node000011"><a xlink:title=" ">
<path fill="none" stroke="#63b8ff" d="M215.4,-440C236.79,-440 260.5,-440 281.24,-440"/>
<polygon fill="#63b8ff" stroke="#63b8ff" points="281.24,-443.5 291.24,-440 281.24,-436.5 281.24,-443.5"/>
</a>
</g>
</g>
<!-- Node12 -->
<g id="Node000012" class="node">
<title>Node12</title>
<g id="a_Node000012"><a xlink:href="class_quartos.html#a2a2a8efcf79e40dcbad6020b5931beca" target="_top" xlink:title="Retorna o tipo do quarto.">
<polygon fill="white" stroke="#666666" points="379.12,-488 296.38,-488 296.38,-468 379.12,-468 379.12,-488"/>
<text xml:space="preserve" text-anchor="middle" x="337.75" y="-474.5" font-family="Helvetica,sans-Serif" font-size="10.00">Quartos::QTipo</text>
</a>
</g>
</g>
<!-- Node9&#45;&gt;Node12 -->
<g id="edge11_Node000009_Node000012" class="edge">
<title>Node9&#45;&gt;Node12</title>
<g id="a_edge11_Node000009_Node000012"><a xlink:title=" ">
<path fill="none" stroke="#63b8ff" d="M203.06,-450.48C228.54,-455.73 259.31,-462.06 284.91,-467.33"/>
<polygon fill="#63b8ff" stroke="#63b8ff" points="283.92,-470.7 294.42,-469.29 285.33,-463.84 283.92,-470.7"/>
</a>
</g>
</g>
<!-- Node13 -->
<g id="Node000013" class="node">
<title>Node13</title>
<g id="a_Node000013"><a xlink:href="class_sistema.html#add783f8f18c922b1ff76f7109b87145f" target="_top" xlink:title=" ">
<polygon fill="white" stroke="#666666" points="405.38,-526 270.12,-526 270.12,-506 405.38,-506 405.38,-526"/>
<text xml:space="preserve" text-anchor="middle" x="337.75" y="-512.5" font-family="Helvetica,sans-Serif" font-size="10.00">Sistema::quartoCadastrado</text>
</a>
</g>
</g>
<!-- Node9&#45;&gt;Node13 -->
<g id="edge12_Node000009_Node000013" class="edge">
<title>Node9&#45;&gt;Node13</title>
<g id="a_edge12_Node000009_Node000013"><a xlink:title=" ">
<path fill="none" stroke="#63b8ff" d="M210,-450.37C216.72,-452.69 223.29,-455.53 229.25,-459 249.36,-470.7 245.25,-485.12 265.25,-497 267.85,-498.55 270.58,-499.97 273.39,-501.28"/>
<polygon fill="#63b8ff" stroke="#63b8ff" points="271.86,-504.43 282.44,-504.96 274.5,-497.95 271.86,-504.43"/>
</a>
</g>
</g>
<!-- Node14&#45;&gt;Node5 -->
<g id="edge14_Node000014_Node000005" class="edge">
<title>Node14&#45;&gt;Node5</title>
<g id="a_edge14_Node000014_Node000005"><a xlink:title=" ">
<path fill="none" stroke="#63b8ff" d="M206.34,-404.38C215.1,-408.28 223.24,-413.63 229.25,-421 304.66,-513.44 186.34,-597.53 265.25,-687 268.69,-690.9 272.83,-694.04 277.36,-696.56"/>
<polygon fill="#63b8ff" stroke="#63b8ff" points="275.84,-699.72 286.4,-700.55 278.66,-693.31 275.84,-699.72"/>
</a>
</g>
</g>
<!-- Node14&#45;&gt;Node6 -->
<g id="edge15_Node000014_Node000006" class="edge">
<title>Node14&#45;&gt;Node6</title>
<g id="a_edge15_Node000014_Node000006"><a xlink:title=" ">
<path fill="none" stroke="#63b8ff" d="M205.63,-404.47C214.57,-408.36 222.96,-413.69 229.25,-421 285.32,-486.14 206.72,-548.06 265.25,-611 265.84,-611.63 266.45,-612.25 267.08,-612.84"/>
<polygon fill="#63b8ff" stroke="#63b8ff" points="264.74,-615.47 274.86,-618.62 268.91,-609.85 264.74,-615.47"/>
</a>
</g>
</g>
<!-- Node14&#45;&gt;Node10 -->
<g id="edge17_Node000014_Node000010" class="edge">
<title>Node14&#45;&gt;Node10</title>
<g id="a_edge17_Node000014_Node000010"><a xlink:title=" ">
<path fill="none" stroke="#63b8ff" d="M208.27,-384.88C229.95,-381.35 254.8,-377.32 276.82,-373.74"/>
<polygon fill="#63b8ff" stroke="#63b8ff" points="277.25,-377.21 286.56,-372.16 276.13,-370.3 277.25,-377.21"/>
</a>
</g>
</g>
<!-- Node15 -->
<g id="Node000015" class="node">
<title>Node15</title>
<g id="a_Node000015"><a xlink:href="class_sistema.html#a1e95f2a5b2be75a479a71efe63b71043" target="_top" xlink:title=" ">
<polygon fill="white" stroke="#666666" points="398.25,-564 277.25,-564 277.25,-544 398.25,-544 398.25,-564"/>
<text xml:space="preserve" text-anchor="middle" x="337.75" y="-550.5" font-family="Helvetica,sans-Serif" font-size="10.00">Sistema::posicaoQuarto</text>
</a>
</g>
</g>
<!-- Node14&#45;&gt;Node15 -->
<g id="edge16_Node000014_Node000015" class="edge">
<title>Node14&#45;&gt;Node15</title>
<g id="a_edge16_Node000014_Node000015"><a xlink:title=" ">
<path fill="none" stroke="#63b8ff" d="M203.36,-404.43C212.93,-408.32 222.14,-413.67 229.25,-421 266.24,-459.15 226.82,-498.31 265.25,-535 266.16,-535.86 267.1,-536.69 268.07,-537.48"/>
<polygon fill="#63b8ff" stroke="#63b8ff" points="265.97,-540.29 276.26,-542.82 269.79,-534.43 265.97,-540.29"/>
</a>
</g>
</g>
<!-- Node16 -->
<g id="Node000016" class="node">
<title>Node16</title>
<g id="a_Node000016"><a xlink:href="class_reserva.html#a3df24f4285d07d5d287a02abeaae4d30" target="_top" xlink:title="Retorna a data de check&#45;in da reserva.">
<polygon fill="white" stroke="#666666" points="389.25,-298 286.25,-298 286.25,-278 389.25,-278 389.25,-298"/>
<text xml:space="preserve" text-anchor="middle" x="337.75" y="-284.5" font-family="Helvetica,sans-Serif" font-size="10.00">Reserva::RCheckIn</text>
</a>
</g>
</g>
<!-- Node14&#45;&gt;Node16 -->
<g id="edge18_Node000014_Node000016" class="edge">
<title>Node14&#45;&gt;Node16</title>
<g id="a_edge18_Node000014_Node000016"><a xlink:title=" ">
<path fill="none" stroke="#63b8ff" d="M185.11,-383.56C199.68,-377.86 216.38,-369.74 229.25,-359 250.83,-340.99 242.25,-323.16 265.25,-307 268.45,-304.75 271.89,-302.77 275.49,-301.03"/>
<polygon fill="#63b8ff" stroke="#63b8ff" points="276.62,-304.35 284.51,-297.28 273.93,-297.88 276.62,-304.35"/>
</a>
</g>
</g>
<!-- Node17 -->
<g id="Node000017" class="node">
<title>Node17</title>
<g id="a_Node000017"><a xlink:href="class_reserva.html#acb9430861a703b226bc0c2552278ed97" target="_top" xlink:title="Retorna a data de check&#45;out da reserva.">
<polygon fill="white" stroke="#666666" points="393,-260 282.5,-260 282.5,-240 393,-240 393,-260"/>
<text xml:space="preserve" text-anchor="middle" x="337.75" y="-246.5" font-family="Helvetica,sans-Serif" font-size="10.00">Reserva::RCheckOut</text>
</a>
</g>
</g>
<!-- Node14&#45;&gt;Node17 -->
<g id="edge19_Node000014_Node000017" class="edge">
<title>Node14&#45;&gt;Node17</title>
<g id="a_edge19_Node000014_Node000017"><a xlink:title=" ">
<path fill="none" stroke="#63b8ff" d="M189.44,-383.64C203.41,-378.21 218.48,-370.27 229.25,-359 259.01,-327.85 233,-297.57 265.25,-269 267.32,-267.17 269.54,-265.51 271.89,-264.01"/>
<polygon fill="#63b8ff" stroke="#63b8ff" points="273.49,-267.12 280.72,-259.38 270.24,-260.92 273.49,-267.12"/>
</a>
</g>
</g>
<!-- Node18 -->
<g id="Node000018" class="node">
<title>Node18</title>
<g id="a_Node000018"><a xlink:href="class_sistema.html#ad8230e486098d6e1bfb2e5ff1dc9755a" target="_top" xlink:title=" ">
<polygon fill="white" stroke="#666666" points="407.62,-412 267.88,-412 267.88,-392 407.62,-392 407.62,-412"/>
<text xml:space="preserve" text-anchor="middle" x="337.75" y="-398.5" font-family="Helvetica,sans-Serif" font-size="10.00">Sistema::reservaSobreposta</text>
</a>
</g>
</g>
<!-- Node14&#45;&gt;Node18 -->
<g id="edge20_Node000014_Node000018" class="edge">
<title>Node14&#45;&gt;Node18</title>
<g id="a_edge20_Node000014_Node000018"><a xlink:title=" ">
<path fill="none" stroke="#63b8ff" d="M208.27,-396.43C223.44,-397.09 240.16,-397.81 256.38,-398.52"/>
<polygon fill="#63b8ff" stroke="#63b8ff" points="255.85,-402 265.99,-398.93 256.15,-395 255.85,-402"/>
</a>
</g>
</g>
<!-- Node19 -->
<g id="Node000019" class="node">
<title>Node19</title>
<g id="a_Node000019"><a xlink:href="class_reserva.html#a4795c2154ab9a851d080e71bb65c0452" target="_top" xlink:title="Retorna o hóspede associado à reserva.">
<polygon fill="white" stroke="#666666" points="390.38,-222 285.12,-222 285.12,-202 390.38,-202 390.38,-222"/>
<text xml:space="preserve" text-anchor="middle" x="337.75" y="-208.5" font-family="Helvetica,sans-Serif" font-size="10.00">Reserva::RHospede</text>
</a>
</g>
</g>
<!-- Node14&#45;&gt;Node19 -->
<g id="edge21_Node000014_Node000019" class="edge">
<title>Node14&#45;&gt;Node19</title>
<g id="a_edge21_Node000014_Node000019"><a xlink:title=" ">
<path fill="none" stroke="#63b8ff" d="M191.67,-383.59C205.25,-378.25 219.48,-370.38 229.25,-359 267.75,-314.16 223.16,-272.48 265.25,-231 268.08,-228.21 271.27,-225.82 274.69,-223.77"/>
<polygon fill="#63b8ff" stroke="#63b8ff" points="276.01,-227.02 283.48,-219.51 272.96,-220.72 276.01,-227.02"/>
</a>
</g>
</g>
<!-- Node20 -->
<g id="Node000020" class="node">
<title>Node20</title>
<g id="a_Node000020"><a xlink:href="class_reserva.html#a459fe5e23ee1be0486086a4502e3fc87" target="_top" xlink:title="Retorna o quarto reservado.">
<polygon fill="white" stroke="#666666" points="385.5,-336 290,-336 290,-316 385.5,-316 385.5,-336"/>
<text xml:space="preserve" text-anchor="middle" x="337.75" y="-322.5" font-family="Helvetica,sans-Serif" font-size="10.00">Reserva::RQuarto</text>
</a>
</g>
</g>
<!-- Node14&#45;&gt;Node20 -->
<g id="edge22_Node000014_Node000020" class="edge">
<title>Node14&#45;&gt;Node20</title>
<g id="a_edge22_Node000014_Node000020"><a xlink:title=" ">
<path fill="none" stroke="#63b8ff" d="M175.05,-383.59C202.77,-371.08 247.86,-351.04 265.25,-345 270.72,-343.1 276.48,-341.28 282.26,-339.57"/>
<polygon fill="#63b8ff" stroke="#63b8ff" points="283.21,-342.94 291.88,-336.84 281.3,-336.21 283.21,-342.94"/>
</a>
</g>
</g>
<!-- Node24&#45;&gt;Node15 -->
<g id="edge30_Node000024_Node000015" class="edge">
<title>Node24&#45;&gt;Node15</title>
<g id="a_edge30_Node000024_Node000015"><a xlink:title=" ">
<path fill="none" stroke="#63b8ff" d="M208.27,-554C226.37,-554 246.66,-554 265.69,-554"/>
<polygon fill="#63b8ff" stroke="#63b8ff" points="265.51,-557.5 275.51,-554 265.51,-550.5 265.51,-557.5"/>
</a>
</g>
</g>
<!-- Node28&#45;&gt;Node7 -->
<g id="edge38_Node000028_Node000007" class="edge">
<title>Node28&#45;&gt;Node7</title>
<g id="a_edge38_Node000028_Node000007"><a xlink:title=" ">
<path fill="none" stroke="#63b8ff" d="M199.96,-350.48C211.19,-356.52 221.99,-364.53 229.25,-375 299.25,-475.92 184.18,-556.73 265.25,-649 270.49,-654.97 277.38,-659.16 284.8,-662.09"/>
<polygon fill="#63b8ff" stroke="#63b8ff" points="283.51,-665.35 294.1,-664.99 285.59,-658.67 283.51,-665.35"/>
</a>
</g>
</g>
<!-- Node28&#45;&gt;Node8 -->
<g id="edge39_Node000028_Node000008" class="edge">
<title>Node28&#45;&gt;Node8</title>
<g id="a_edge39_Node000028_Node000008"><a xlink:title=" ">
<path fill="none" stroke="#63b8ff" d="M198.81,-350.3C210.33,-356.39 221.56,-364.47 229.25,-375 282.02,-447.22 204.58,-507.28 265.25,-573 267.99,-575.97 271.14,-578.49 274.55,-580.64"/>
<polygon fill="#63b8ff" stroke="#63b8ff" points="272.88,-583.72 283.39,-585.07 276.01,-577.46 272.88,-583.72"/>
</a>
</g>
</g>
<!-- Node28&#45;&gt;Node10 -->
<g id="edge40_Node000028_Node000010" class="edge">
<title>Node28&#45;&gt;Node10</title>
<g id="a_edge40_Node000028_Node000010"><a xlink:title=" ">
<path fill="none" stroke="#63b8ff" d="M229.62,-346.59C245.43,-349.16 261.83,-351.83 276.9,-354.28"/>
<polygon fill="#63b8ff" stroke="#63b8ff" points="276.22,-357.71 286.65,-355.86 277.34,-350.8 276.22,-357.71"/>
</a>
</g>
</g>
<!-- Node28&#45;&gt;Node11 -->
<g id="edge41_Node000028_Node000011" class="edge">
<title>Node28&#45;&gt;Node11</title>
<g id="a_edge41_Node000028_Node000011"><a xlink:title=" ">
<path fill="none" stroke="#63b8ff" d="M190.59,-350.47C203.6,-357.04 217.75,-365.36 229.25,-375 249.14,-391.68 243.58,-406.7 265.25,-421 270.41,-424.4 276.16,-427.2 282.09,-429.5"/>
<polygon fill="#63b8ff" stroke="#63b8ff" points="280.84,-432.77 291.44,-432.63 283.07,-426.13 280.84,-432.77"/>
</a>
</g>
</g>
<!-- Node28&#45;&gt;Node12 -->
<g id="edge42_Node000028_Node000012" class="edge">
<title>Node28&#45;&gt;Node12</title>
<g id="a_edge42_Node000028_Node000012"><a xlink:title=" ">
<path fill="none" stroke="#63b8ff" d="M195.3,-350.48C207.46,-356.73 219.91,-364.84 229.25,-375 256.74,-404.9 234.52,-432.44 265.25,-459 271.06,-464.02 278.06,-467.74 285.37,-470.48"/>
<polygon fill="#63b8ff" stroke="#63b8ff" points="284.17,-473.77 294.76,-473.39 286.25,-467.08 284.17,-473.77"/>
</a>
</g>
</g>
<!-- Node28&#45;&gt;Node16 -->
<g id="edge43_Node000028_Node000016" class="edge">
<title>Node28&#45;&gt;Node16</title>
<g id="a_edge43_Node000028_Node000016"><a xlink:title=" ">
<path fill="none" stroke="#63b8ff" d="M218.26,-317.52C239.73,-312.17 263.27,-306.31 283.67,-301.23"/>
<polygon fill="#63b8ff" stroke="#63b8ff" points="284.32,-304.67 293.18,-298.86 282.63,-297.88 284.32,-304.67"/>
</a>
</g>
</g>
<!-- Node28&#45;&gt;Node17 -->
<g id="edge44_Node000028_Node000017" class="edge">
<title>Node28&#45;&gt;Node17</title>
<g id="a_edge44_Node000028_Node000017"><a xlink:title=" ">
<path fill="none" stroke="#63b8ff" d="M213.31,-317.55C218.88,-315.05 224.29,-312.22 229.25,-309 249.31,-295.98 244.85,-281.48 265.25,-269 267.69,-267.5 270.26,-266.13 272.9,-264.85"/>
<polygon fill="#63b8ff" stroke="#63b8ff" points="274.11,-268.14 281.99,-261.05 271.41,-261.68 274.11,-268.14"/>
</a>
</g>
</g>
<!-- Node28&#45;&gt;Node19 -->
<g id="edge45_Node000028_Node000019" class="edge">
<title>Node28&#45;&gt;Node19</title>
<g id="a_edge45_Node000028_Node000019"><a xlink:title=" ">
<path fill="none" stroke="#63b8ff" d="M217.08,-317.59C221.45,-315.11 225.57,-312.27 229.25,-309 257.8,-283.65 236.02,-255.57 265.25,-231 268.1,-228.6 271.22,-226.51 274.52,-224.67"/>
<polygon fill="#63b8ff" stroke="#63b8ff" points="275.84,-227.91 283.46,-220.55 272.91,-221.56 275.84,-227.91"/>
</a>
</g>
</g>
<!-- Node28&#45;&gt;Node20 -->
<g id="edge47_Node000028_Node000020" class="edge">
<title>Node28&#45;&gt;Node20</title>
<g id="a_edge47_Node000028_Node000020"><a xlink:title=" ">
<path fill="none" stroke="#63b8ff" d="M229.62,-330.64C245.9,-329.94 262.81,-329.2 278.25,-328.53"/>
<polygon fill="#63b8ff" stroke="#63b8ff" points="278.39,-332.03 288.23,-328.1 278.09,-325.04 278.39,-332.03"/>
</a>
</g>
</g>
<!-- Node28&#45;&gt;Node22 -->
<g id="edge36_Node000028_Node000022" class="edge">
<title>Node28&#45;&gt;Node22</title>
<g id="a_edge36_Node000028_Node000022"><a xlink:title=" ">
<path fill="none" stroke="#63b8ff" d="M219.6,-317.73C223.16,-315.22 226.43,-312.33 229.25,-309 299.51,-226.01 192.79,-148.08 265.25,-67 269.42,-62.33 274.6,-58.75 280.25,-56.02"/>
<polygon fill="#63b8ff" stroke="#63b8ff" points="281.32,-59.35 289.39,-52.49 278.8,-52.82 281.32,-59.35"/>
</a>
</g>
</g>
<!-- Node28&#45;&gt;Node23 -->
<g id="edge37_Node000028_Node000023" class="edge">
<title>Node28&#45;&gt;Node23</title>
<g id="a_edge37_Node000028_Node000023"><a xlink:title=" ">
<path fill="none" stroke="#63b8ff" d="M220.02,-317.55C223.43,-315.08 226.55,-312.25 229.25,-309 309.37,-212.44 182.57,-123.37 265.25,-29 269.17,-24.53 274.01,-21.05 279.31,-18.35"/>
<polygon fill="#63b8ff" stroke="#63b8ff" points="280.57,-21.62 288.55,-14.65 277.97,-15.12 280.57,-21.62"/>
</a>
</g>
</g>
<!-- Node29 -->
<g id="Node000029" class="node">
<title>Node29</title>
<g id="a_Node000029"><a xlink:href="class_sistema.html#a37638daf36679a06734878b25c77002d" target="_top" xlink:title=" ">
<polygon fill="white" stroke="#666666" points="407.25,-184 268.25,-184 268.25,-152 407.25,-152 407.25,-184"/>
<text xml:space="preserve" text-anchor="start" x="276.25" y="-170.5" font-family="Helvetica,sans-Serif" font-size="10.00">Sistema::buscarReservaPor</text>
<text xml:space="preserve" text-anchor="middle" x="337.75" y="-158.5" font-family="Helvetica,sans-Serif" font-size="10.00">Numero</text>
</a>
</g>
</g>
<!-- Node28&#45;&gt;Node29 -->
<g id="edge35_Node000028_Node000029" class="edge">
<title>Node28&#45;&gt;Node29</title>
<g id="a_edge35_Node000028_Node000029"><a xlink:title=" ">
<path fill="none" stroke="#63b8ff" d="M218.31,-317.66C222.28,-315.17 225.99,-312.31 229.25,-309 267.18,-270.59 227.76,-231.84 265.25,-193 265.85,-192.38 266.46,-191.77 267.1,-191.18"/>
<polygon fill="#63b8ff" stroke="#63b8ff" points="269.03,-194.11 274.84,-185.24 264.77,-188.55 269.03,-194.11"/>
</a>
</g>
</g>
<!-- Node30 -->
<g id="Node000030" class="node">
<title>Node30</title>
<g id="a_Node000030"><a xlink:href="class_reserva.html#a0d57da37ede5e631558101df90748814" target="_top" xlink:title="Retorna o número identificador da reserva.">
<polygon fill="white" stroke="#666666" points="406.5,-134 269,-134 269,-114 406.5,-114 406.5,-134"/>
<text xml:space="preserve" text-anchor="middle" x="337.75" y="-120.5" font-family="Helvetica,sans-Serif" font-size="10.00">Reserva::RNumeroReserva</text>
</a>
</g>
</g>
<!-- Node28&#45;&gt;Node30 -->
<g id="edge46_Node000028_Node000030" class="edge">
<title>Node28&#45;&gt;Node30</title>
<g id="a_edge46_Node000028_Node000030"><a xlink:title=" ">
<path fill="none" stroke="#63b8ff" d="M219.35,-317.51C222.97,-315.05 226.32,-312.24 229.25,-309 279.9,-253.02 213.11,-197.6 265.25,-143 265.97,-142.25 266.71,-141.52 267.48,-140.83"/>
<polygon fill="#63b8ff" stroke="#63b8ff" points="269.17,-143.92 275.27,-135.26 265.1,-138.23 269.17,-143.92"/>
</a>
</g>
</g>
<!-- Node31 -->
<g id="Node000031" class="node">
<title>Node31</title>
<g id="a_Node000031"><a xlink:href="class_reserva.html#a765cc7aacdbd0e2a62ff1ef08255e024" target="_top" xlink:title="Retorna o status atual da reserva.">
<polygon fill="white" stroke="#666666" points="385.12,-96 290.38,-96 290.38,-76 385.12,-76 385.12,-96"/>
<text xml:space="preserve" text-anchor="middle" x="337.75" y="-82.5" font-family="Helvetica,sans-Serif" font-size="10.00">Reserva::RStatus</text>
</a>
</g>
</g>
<!-- Node28&#45;&gt;Node31 -->
<g id="edge48_Node000028_Node000031" class="edge">
<title>Node28&#45;&gt;Node31</title>
<g id="a_edge48_Node000028_Node000031"><a xlink:title=" ">
<path fill="none" stroke="#63b8ff" d="M219.49,-317.64C223.08,-315.15 226.39,-312.29 229.25,-309 289.68,-239.54 202.98,-172.81 265.25,-105 269.27,-100.62 274.18,-97.2 279.52,-94.54"/>
<polygon fill="#63b8ff" stroke="#63b8ff" points="280.79,-97.8 288.8,-90.86 278.21,-91.3 280.79,-97.8"/>
</a>
</g>
</g>
<!-- Node32&#45;&gt;Node15 -->
<g id="edge50_Node000032_Node000015" class="edge">
<title>Node32&#45;&gt;Node15</title>
<g id="a_edge50_Node000032_Node000015"><a xlink:title=" ">
<path fill="none" stroke="#63b8ff" d="M203.06,-526.48C225.26,-531.05 251.48,-536.45 274.8,-541.25"/>
<polygon fill="#63b8ff" stroke="#63b8ff" points="274,-544.66 284.5,-543.24 275.41,-537.8 274,-544.66"/>
</a>
</g>
</g>
</g>
</svg>

<g id="navigator" transform="translate(0 0)" fill="#404254">
  <rect fill="#f2f5e9" fill-opacity="0.5" stroke="#606060" stroke-width=".5" x="0" y="0" width="60" height="60"/>
  <use id="zoomplus" xlink:href="#zoomPlus" x="17" y="9" onmousedown="handleZoom(evt,'in')"/>
  <use id="zoomminus" xlink:href="#zoomMin" x="42" y="9" onmousedown="handleZoom(evt,'out')"/>
  <use id="reset" xlink:href="#resetDef" x="30" y="36" onmousedown="handleReset()"/>
   <use id="arrowup" xlink:href="#arrowUp" x="0" y="0" onmousedown="handlePan(0,-1)"/>
  <use id="arrowright" xlink:href="#arrowRight" x="0" y="0" onmousedown="handlePan(1,0)"/>
  <use id="arrowdown" xlink:href="#arrowDown" x="0" y="0" onmousedown="handlePan(0,1)"/>
  <use id="arrowleft" xlink:href="#arrowLeft" x="0" y="0" onmousedown="handlePan(-1,0)"/>
</g>
<svg viewBox="0 0 15 15" width="100%" height="30px" preserveAspectRatio="xMaxYMin meet">
 <g id="arrow_out" transform="scale(0.3 0.3)">
  <a xlink:href="main_8cpp_ae66f6b31b5ad750f1fe042a706a4e3d4_cgraph_org.svg" target="_base">
   <rect id="button" ry="5" rx="5" y="6" x="6" height="38" width="38"
        fill="#f2f5e9" fill-opacity="0.5" stroke="#606060" stroke-width="1.0"/>
   <path id="arrow"
     d="M 11.500037,31.436501 C 11.940474,20.09759 22.043105,11.32322 32.158766,21.979434 L 37.068811,17.246167 C 37.068811,17.246167 37.088388,32 37.088388,32 L 22.160133,31.978069 C 22.160133,31.978069 26.997745,27.140456 26.997745,27.140456 C 18.528582,18.264221 13.291696,25.230495 11.500037,31.436501 z"
     style="fill:#404040;"/>
  </a>
 </g>
</svg>

<style type='text/css'>
<![CDATA[
[data-mouse-over-selected='false'] { opacity: 0.7; }
[data-mouse-over-selected='true']  { opacity: 1.0; }
]]>
</style>
<script type="application/ecmascript"><![CDATA[
document.addEventListener('DOMContentLoaded', (event) => {
  highlightEdges();
  highlightAdjacentNodes();
});
]]></script>
</svg>
