<?xml version="1.0" encoding="UTF-8" standalone="no"?>
<!DOCTYPE svg PUBLIC "-//W3C//DTD SVG 1.1//EN"
 "http://www.w3.org/Graphics/SVG/1.1/DTD/svg11.dtd">
<!-- Generated by graphviz version 14.0.2 (20251019.1705)
 -->
<!-- Title: main.cpp Pages: 1 -->
<svg width="328pt" height="252pt"
 viewBox="0.00 0.00 328.00 252.00" xmlns="http://www.w3.org/2000/svg" xmlns:xlink="http://www.w3.org/1999/xlink">
<g id="graph0" class="graph" transform="scale(1 1) rotate(0) translate(4 248)">
<title>main.cpp</title>
<!-- Node1 -->
<g id="Node000001" class="node">
<title>Node1</title>
<g id="a_Node000001"><a xlink:title="Ponto de entrada do sistema de gerenciamento de hotel.">
<polygon fill="#999999" stroke="#666666" points="151.62,-244 95.88,-244 95.88,-224 151.62,-224 151.62,-244"/>
<text xml:space="preserve" text-anchor="middle" x="123.75" y="-230.5" font-family="Helvetica,sans-Serif" font-size="10.00">main.cpp</text>
</a>
</g>
</g>
<!-- Node2 -->
<g id="Node000002" class="node">
<title>Node2</title>
<g id="a_Node000002"><a xlink:title=" ">
<polygon fill="#e0e0e0" stroke="#999999" points="53.5,-20 0,-20 0,0 53.5,0 53.5,-20"/>
<text xml:space="preserve" text-anchor="middle" x="26.75" y="-6.5" font-family="Helvetica,sans-Serif" font-size="10.00">iostream</text>
</a>
</g>
</g>
<!-- Node1&#45;&gt;Node2 -->
<g id="edge1_Node000001_Node000002" class="edge">
<title>Node1&#45;&gt;Node2</title>
<g id="a_edge1_Node000001_Node000002"><a xlink:title=" ">
<path fill="none" stroke="#63b8ff" d="M95.58,-226.26C75.48,-219.89 49.65,-208.22 35.75,-188 2.83,-140.13 13.57,-66.59 21.48,-31.28"/>
<polygon fill="#63b8ff" stroke="#63b8ff" points="24.88,-32.14 23.82,-21.6 18.07,-30.49 24.88,-32.14"/>
</a>
</g>
</g>
<!-- Node3 -->
<g id="Node000003" class="node">
<title>Node3</title>
<g id="a_Node000003"><a xlink:title=" ">
<polygon fill="#e0e0e0" stroke="#999999" points="202.75,-20 162.75,-20 162.75,0 202.75,0 202.75,-20"/>
<text xml:space="preserve" text-anchor="middle" x="182.75" y="-6.5" font-family="Helvetica,sans-Serif" font-size="10.00">string</text>
</a>
</g>
</g>
<!-- Node1&#45;&gt;Node3 -->
<g id="edge2_Node000001_Node000003" class="edge">
<title>Node1&#45;&gt;Node3</title>
<g id="a_edge2_Node000001_Node000003"><a xlink:title=" ">
<path fill="none" stroke="#63b8ff" d="M151.93,-229.97C184.11,-225.37 237.15,-214.19 274.75,-188 300.28,-170.22 306.91,-161.51 316.75,-132 334.89,-77.58 258.63,-39.14 213.65,-21.63"/>
<polygon fill="#63b8ff" stroke="#63b8ff" points="214.98,-18.39 204.39,-18.17 212.53,-24.95 214.98,-18.39"/>
</a>
</g>
</g>
<!-- Node4 -->
<g id="Node000004" class="node">
<title>Node4</title>
<g id="a_Node000004"><a xlink:title=" ">
<polygon fill="#e0e0e0" stroke="#999999" points="95.38,-188 56.12,-188 56.12,-168 95.38,-168 95.38,-188"/>
<text xml:space="preserve" text-anchor="middle" x="75.75" y="-174.5" font-family="Helvetica,sans-Serif" font-size="10.00">limits</text>
</a>
</g>
</g>
<!-- Node1&#45;&gt;Node4 -->
<g id="edge3_Node000001_Node000004" class="edge">
<title>Node1&#45;&gt;Node4</title>
<g id="a_edge3_Node000001_Node000004"><a xlink:title=" ">
<path fill="none" stroke="#63b8ff" d="M115.39,-223.59C108.85,-216.24 99.57,-205.8 91.63,-196.87"/>
<polygon fill="#63b8ff" stroke="#63b8ff" points="94.28,-194.58 85.02,-189.43 89.05,-199.23 94.28,-194.58"/>
</a>
</g>
</g>
<!-- Node5 -->
<g id="Node000005" class="node">
<title>Node5</title>
<g id="a_Node000005"><a xlink:href="_hospede_8h.html" target="_top" xlink:title=" ">
<polygon fill="white" stroke="#666666" points="96.38,-76 33.12,-76 33.12,-56 96.38,-56 96.38,-76"/>
<text xml:space="preserve" text-anchor="middle" x="64.75" y="-62.5" font-family="Helvetica,sans-Serif" font-size="10.00">Hospede.h</text>
</a>
</g>
</g>
<!-- Node1&#45;&gt;Node5 -->
<g id="edge4_Node000001_Node000005" class="edge">
<title>Node1&#45;&gt;Node5</title>
<g id="a_edge4_Node000001_Node000005"><a xlink:title=" ">
<path fill="none" stroke="#63b8ff" d="M95.38,-224.49C78,-217.65 57.15,-206.13 46.75,-188 28.33,-155.89 43.34,-111.41 54.79,-86.29"/>
<polygon fill="#63b8ff" stroke="#63b8ff" points="57.8,-88.12 59.01,-77.59 51.5,-85.06 57.8,-88.12"/>
</a>
</g>
</g>
<!-- Node6 -->
<g id="Node000006" class="node">
<title>Node6</title>
<g id="a_Node000006"><a xlink:href="_quartos_8h.html" target="_top" xlink:title=" ">
<polygon fill="white" stroke="#666666" points="269.12,-76 210.38,-76 210.38,-56 269.12,-56 269.12,-76"/>
<text xml:space="preserve" text-anchor="middle" x="239.75" y="-62.5" font-family="Helvetica,sans-Serif" font-size="10.00">Quartos.h</text>
</a>
</g>
</g>
<!-- Node1&#45;&gt;Node6 -->
<g id="edge7_Node000001_Node000006" class="edge">
<title>Node1&#45;&gt;Node6</title>
<g id="a_edge7_Node000001_Node000006"><a xlink:title=" ">
<path fill="none" stroke="#63b8ff" d="M151.94,-227.03C194.09,-216.36 271.8,-189.52 301.75,-132 312.21,-111.91 290.85,-93.69 270.4,-81.69"/>
<polygon fill="#63b8ff" stroke="#63b8ff" points="272.36,-78.78 261.91,-77.05 269,-84.92 272.36,-78.78"/>
</a>
</g>
</g>
<!-- Node7 -->
<g id="Node000007" class="node">
<title>Node7</title>
<g id="a_Node000007"><a xlink:href="_reserva_8h.html" target="_top" xlink:title=" ">
<polygon fill="white" stroke="#666666" points="154.25,-132 93.25,-132 93.25,-112 154.25,-112 154.25,-132"/>
<text xml:space="preserve" text-anchor="middle" x="123.75" y="-118.5" font-family="Helvetica,sans-Serif" font-size="10.00">Reserva.h</text>
</a>
</g>
</g>
<!-- Node1&#45;&gt;Node7 -->
<g id="edge9_Node000001_Node000007" class="edge">
<title>Node1&#45;&gt;Node7</title>
<g id="a_edge9_Node000001_Node000007"><a xlink:title=" ">
<path fill="none" stroke="#63b8ff" d="M123.75,-223.62C123.75,-206.01 123.75,-167.59 123.75,-143.65"/>
<polygon fill="#63b8ff" stroke="#63b8ff" points="127.25,-143.87 123.75,-133.87 120.25,-143.87 127.25,-143.87"/>
</a>
</g>
</g>
<!-- Node8 -->
<g id="Node000008" class="node">
<title>Node8</title>
<g id="a_Node000008"><a xlink:href="_sistema_8h.html" target="_top" xlink:title=" ">
<polygon fill="white" stroke="#666666" points="212.88,-188 152.62,-188 152.62,-168 212.88,-168 212.88,-188"/>
<text xml:space="preserve" text-anchor="middle" x="182.75" y="-174.5" font-family="Helvetica,sans-Serif" font-size="10.00">Sistema.h</text>
</a>
</g>
</g>
<!-- Node1&#45;&gt;Node8 -->
<g id="edge13_Node000001_Node000008" class="edge">
<title>Node1&#45;&gt;Node8</title>
<g id="a_edge13_Node000001_Node000008"><a xlink:title=" ">
<path fill="none" stroke="#63b8ff" d="M134.03,-223.59C142.32,-216.01 154.2,-205.13 164.15,-196.02"/>
<polygon fill="#63b8ff" stroke="#63b8ff" points="166.46,-198.65 171.47,-189.32 161.73,-193.49 166.46,-198.65"/>
</a>
</g>
</g>
<!-- Node5&#45;&gt;Node2 -->
<g id="edge5_Node000005_Node000002" class="edge">
<title>Node5&#45;&gt;Node2</title>
<g id="a_edge5_Node000005_Node000002"><a xlink:title=" ">
<path fill="none" stroke="#63b8ff" d="M58.13,-55.59C53.06,-48.39 45.91,-38.23 39.72,-29.43"/>
<polygon fill="#63b8ff" stroke="#63b8ff" points="42.78,-27.7 34.16,-21.54 37.06,-31.73 42.78,-27.7"/>
</a>
</g>
</g>
<!-- Node5&#45;&gt;Node3 -->
<g id="edge6_Node000005_Node000003" class="edge">
<title>Node5&#45;&gt;Node3</title>
<g id="a_edge6_Node000005_Node000003"><a xlink:title=" ">
<path fill="none" stroke="#63b8ff" d="M85.3,-55.59C103.75,-47.15 131.07,-34.65 152.09,-25.03"/>
<polygon fill="#63b8ff" stroke="#63b8ff" points="153.42,-28.27 161.06,-20.93 150.51,-21.91 153.42,-28.27"/>
</a>
</g>
</g>
<!-- Node6&#45;&gt;Node3 -->
<g id="edge8_Node000006_Node000003" class="edge">
<title>Node6&#45;&gt;Node3</title>
<g id="a_edge8_Node000006_Node000003"><a xlink:title=" ">
<path fill="none" stroke="#63b8ff" d="M229.82,-55.59C221.81,-48.01 210.33,-37.13 200.72,-28.02"/>
<polygon fill="#63b8ff" stroke="#63b8ff" points="203.33,-25.68 193.66,-21.34 198.52,-30.76 203.33,-25.68"/>
</a>
</g>
</g>
<!-- Node7&#45;&gt;Node3 -->
<g id="edge10_Node000007_Node000003" class="edge">
<title>Node7&#45;&gt;Node3</title>
<g id="a_edge10_Node000007_Node000003"><a xlink:title=" ">
<path fill="none" stroke="#63b8ff" d="M128.78,-111.62C138.4,-93.68 159.59,-54.17 172.37,-30.35"/>
<polygon fill="#63b8ff" stroke="#63b8ff" points="175.37,-32.16 177.02,-21.69 169.21,-28.85 175.37,-32.16"/>
</a>
</g>
</g>
<!-- Node7&#45;&gt;Node5 -->
<g id="edge11_Node000007_Node000005" class="edge">
<title>Node7&#45;&gt;Node5</title>
<g id="a_edge11_Node000007_Node000005"><a xlink:title=" ">
<path fill="none" stroke="#63b8ff" d="M113.47,-111.59C105.18,-104.01 93.3,-93.13 83.35,-84.02"/>
<polygon fill="#63b8ff" stroke="#63b8ff" points="85.77,-81.49 76.03,-77.32 81.04,-86.65 85.77,-81.49"/>
</a>
</g>
</g>
<!-- Node7&#45;&gt;Node6 -->
<g id="edge12_Node000007_Node000006" class="edge">
<title>Node7&#45;&gt;Node6</title>
<g id="a_edge12_Node000007_Node000006"><a xlink:title=" ">
<path fill="none" stroke="#63b8ff" d="M143.96,-111.59C161.98,-103.21 188.62,-90.8 209.23,-81.21"/>
<polygon fill="#63b8ff" stroke="#63b8ff" points="210.43,-84.51 218.01,-77.12 207.47,-78.17 210.43,-84.51"/>
</a>
</g>
</g>
<!-- Node8&#45;&gt;Node3 -->
<g id="edge15_Node000008_Node000003" class="edge">
<title>Node8&#45;&gt;Node3</title>
<g id="a_edge15_Node000008_Node000003"><a xlink:title=" ">
<path fill="none" stroke="#63b8ff" d="M182.75,-167.6C182.75,-141.46 182.75,-67.48 182.75,-31.36"/>
<polygon fill="#63b8ff" stroke="#63b8ff" points="186.25,-31.81 182.75,-21.81 179.25,-31.81 186.25,-31.81"/>
</a>
</g>
</g>
<!-- Node8&#45;&gt;Node5 -->
<g id="edge16_Node000008_Node000005" class="edge">
<title>Node8&#45;&gt;Node5</title>
<g id="a_edge16_Node000008_Node000005"><a xlink:title=" ">
<path fill="none" stroke="#63b8ff" d="M152.18,-170.07C130.5,-163.66 102.27,-152 84.75,-132 73.91,-119.62 68.94,-101.46 66.67,-87.48"/>
<polygon fill="#63b8ff" stroke="#63b8ff" points="70.15,-87.09 65.44,-77.6 63.2,-87.96 70.15,-87.09"/>
</a>
</g>
</g>
<!-- Node8&#45;&gt;Node6 -->
<g id="edge17_Node000008_Node000006" class="edge">
<title>Node8&#45;&gt;Node6</title>
<g id="a_edge17_Node000008_Node000006"><a xlink:title=" ">
<path fill="none" stroke="#63b8ff" d="M187.61,-167.62C196.91,-149.68 217.38,-110.17 229.73,-86.35"/>
<polygon fill="#63b8ff" stroke="#63b8ff" points="232.71,-88.19 234.21,-77.7 226.5,-84.97 232.71,-88.19"/>
</a>
</g>
</g>
<!-- Node8&#45;&gt;Node7 -->
<g id="edge18_Node000008_Node000007" class="edge">
<title>Node8&#45;&gt;Node7</title>
<g id="a_edge18_Node000008_Node000007"><a xlink:title=" ">
<path fill="none" stroke="#63b8ff" d="M172.47,-167.59C164.18,-160.01 152.3,-149.13 142.35,-140.02"/>
<polygon fill="#63b8ff" stroke="#63b8ff" points="144.77,-137.49 135.03,-133.32 140.04,-142.65 144.77,-137.49"/>
</a>
</g>
</g>
<!-- Node9 -->
<g id="Node000009" class="node">
<title>Node9</title>
<g id="a_Node000009"><a xlink:title=" ">
<polygon fill="#e0e0e0" stroke="#999999" points="292.25,-132 249.25,-132 249.25,-112 292.25,-112 292.25,-132"/>
<text xml:space="preserve" text-anchor="middle" x="270.75" y="-118.5" font-family="Helvetica,sans-Serif" font-size="10.00">vector</text>
</a>
</g>
</g>
<!-- Node8&#45;&gt;Node9 -->
<g id="edge14_Node000008_Node000009" class="edge">
<title>Node8&#45;&gt;Node9</title>
<g id="a_edge14_Node000008_Node000009"><a xlink:title=" ">
<path fill="none" stroke="#63b8ff" d="M198.08,-167.59C211.25,-159.51 230.48,-147.71 245.86,-138.27"/>
<polygon fill="#63b8ff" stroke="#63b8ff" points="247.32,-141.48 254.01,-133.27 243.66,-135.52 247.32,-141.48"/>
</a>
</g>
</g>
</g>
</svg>
